<svg width="20" height="19" viewBox="0 0 20 19" fill="none" xmlns="http://www.w3.org/2000/svg">
<path d="M17.1202 10.9595H13.3499C12.8502 10.9589 12.3706 11.1566 12.0164 11.5092C11.6622 11.8618 11.4622 12.3404 11.4604 12.8402V16.6105C11.4602 16.8587 11.5089 17.1045 11.6037 17.3339C11.6986 17.5632 11.8378 17.7716 12.0133 17.9471C12.1888 18.1227 12.3972 18.2618 12.6266 18.3567C12.8559 18.4516 13.1017 18.5003 13.3499 18.5H17.1202C17.6198 18.4979 18.0982 18.2979 18.4506 17.9437C18.8029 17.5895 19.0005 17.1101 19 16.6105V12.8402C19.0003 12.5933 18.9518 12.3487 18.8574 12.1206C18.7631 11.8924 18.6246 11.685 18.45 11.5104C18.2754 11.3358 18.0681 11.1974 17.8399 11.103C17.6117 11.0086 17.3671 10.9602 17.1202 10.9604M6.65005 10.9595H2.87978C2.38025 10.9623 1.90215 11.1627 1.54992 11.5169C1.1977 11.8712 0.999993 12.3504 1 12.8499V16.6202C0.999745 16.8671 1.04819 17.1117 1.14257 17.3399C1.23695 17.5681 1.3754 17.7754 1.55001 17.95C1.72461 18.1246 1.93194 18.2631 2.16012 18.3574C2.3883 18.4518 2.63286 18.5003 2.87978 18.5H6.65005C7.14966 18.5005 7.62909 18.3029 7.98328 17.9506C8.33746 17.5982 8.53751 17.1198 8.53957 16.6202V12.8499C8.53982 12.6017 8.49113 12.3559 8.39626 12.1266C8.30139 11.8972 8.16222 11.6888 7.98671 11.5133C7.8112 11.3378 7.6028 11.1986 7.37344 11.1037C7.14408 11.0089 6.89826 10.9602 6.65005 10.9604M6.65005 0.500001H2.87978C2.63286 0.499745 2.3883 0.548192 2.16012 0.642569C1.93194 0.736947 1.72461 0.875401 1.55001 1.05001C1.3754 1.22461 1.23695 1.43194 1.14257 1.66012C1.04819 1.8883 0.999745 2.13286 1 2.37978V6.15005C0.999482 6.64966 1.19705 7.12909 1.54941 7.48328C1.90178 7.83746 2.38018 8.03751 2.87978 8.03957H6.65005C6.89826 8.03982 7.14408 7.99113 7.37344 7.89626C7.6028 7.80139 7.8112 7.66222 7.98671 7.48671C8.16222 7.3112 8.30139 7.1028 8.39626 6.87344C8.49113 6.64408 8.53982 6.39826 8.53957 6.15005V2.37978C8.53751 1.88018 8.33746 1.40178 7.98328 1.04941C7.62909 0.697053 7.14966 0.499482 6.65005 0.500001ZM17.1202 0.500001H13.3499C12.8503 0.499482 12.3709 0.697053 12.0167 1.04941C11.6625 1.40178 11.4625 1.88018 11.4604 2.37978V6.15005C11.4607 6.65111 11.6598 7.13156 12.0141 7.48586C12.3684 7.84015 12.8489 8.03931 13.3499 8.03957H17.1202C17.6198 8.03751 18.0982 7.83746 18.4506 7.48328C18.8029 7.12909 19.0005 6.64966 19 6.15005V2.37978C19.0003 2.13286 18.9518 1.8883 18.8574 1.66012C18.7631 1.43194 18.6246 1.22461 18.45 1.05001C18.2754 0.875401 18.0681 0.736947 17.8399 0.642569C17.6117 0.548192 17.3671 0.499745 17.1202 0.500001Z" stroke="white" stroke-linecap="round" stroke-linejoin="round"/>
</svg>
