<svg width="18" height="19" viewBox="0 0 18 19" fill="none" xmlns="http://www.w3.org/2000/svg">
<path d="M12.7 2.30182C14.6575 2.31262 15.7177 2.39992 16.4089 3.09112C17.2 3.88222 17.2 5.15482 17.2 7.70002V13.1C17.2 15.6461 17.2 16.9187 16.4089 17.7098C15.6187 18.5 14.3452 18.5 11.8 18.5H6.4C3.8548 18.5 2.5813 18.5 1.7911 17.7098C1 16.9178 1 15.6461 1 13.1V7.70002C1 5.15482 1 3.88222 1.7911 3.09112C2.4823 2.39992 3.5425 2.31262 5.5 2.30182" stroke="white"/>
<path d="M7.74998 11.3H13.6M4.59998 11.3H5.04998M4.59998 8.15002H5.04998M4.59998 14.45H5.04998M7.74998 8.15002H13.6M7.74998 14.45H13.6" stroke="white" stroke-linecap="round"/>
<path d="M5.5 1.85C5.5 1.49196 5.64223 1.14858 5.89541 0.895406C6.14858 0.642232 6.49196 0.5 6.85 0.5H11.35C11.708 0.5 12.0514 0.642232 12.3046 0.895406C12.5578 1.14858 12.7 1.49196 12.7 1.85V2.75C12.7 3.10804 12.5578 3.45142 12.3046 3.70459C12.0514 3.95777 11.708 4.1 11.35 4.1H6.85C6.49196 4.1 6.14858 3.95777 5.89541 3.70459C5.64223 3.45142 5.5 3.10804 5.5 2.75V1.85Z" stroke="white"/>
</svg>
