<svg xmlns="http://www.w3.org/2000/svg" width="19.395" height="20.427" viewBox="0 0 19.395 20.427">
  <path id="assignments" d="M22.71,13.7a2.33,2.33,0,0,1-.672.7L15,19.15a2.91,2.91,0,0,1-3.257,0L4.7,14.4a2.329,2.329,0,0,1-.907-2.665l7.964,5.308a2.91,2.91,0,0,0,3.042.115l.187-.115,7.963-5.309A2.324,2.324,0,0,1,22.71,13.7Zm.235,1.813a2.329,2.329,0,0,1-.906,2.666L15,22.934a2.91,2.91,0,0,1-3.257,0L4.7,18.18a2.329,2.329,0,0,1-.907-2.665l7.964,5.308a2.91,2.91,0,0,0,3.042.115l.187-.115ZM14.982,3.494l7.41,4.94a1.164,1.164,0,0,1,0,1.937l-7.41,4.94a2.911,2.911,0,0,1-3.229,0l-7.41-4.94a1.164,1.164,0,0,1,0-1.937l7.41-4.94A2.91,2.91,0,0,1,14.982,3.494ZM12.856,4.869l-.134.077L6.039,9.4l6.683,4.456a1.164,1.164,0,0,0,1.157.077l.134-.077L20.695,9.4,14.013,4.947A1.164,1.164,0,0,0,12.856,4.869Z" transform="translate(-3.67 -3.005)" fill="#212121"/>
</svg>
