<svg xmlns="http://www.w3.org/2000/svg" width="20.53" height="20.53" viewBox="0 0 20.53 20.53">
  <g id="attendance" transform="translate(0.15 0.15)">
    <g id="Group-23" transform="translate(0 0)">
      <g id="Group_23" data-name="Group 23">
        <g id="_006-calendar" data-name="006-calendar" transform="translate(0 0)">
          <g id="Group-13">
            <path id="Shape" d="M19.244.986A3.351,3.351,0,0,0,16.86,0H3.37A3.37,3.37,0,0,0,0,3.37V16.86a3.37,3.37,0,0,0,3.37,3.37H16.86a3.37,3.37,0,0,0,3.37-3.37V3.37A3.344,3.344,0,0,0,19.244.986Zm-.36,15.868a2.023,2.023,0,0,1-2.023,2.023H3.37a2.023,2.023,0,0,1-2.023-2.023V3.37A2.023,2.023,0,0,1,3.37,1.347H16.86A2.023,2.023,0,0,1,18.883,3.37Z" transform="translate(0 0)" fill="#212427" stroke="#212427" stroke-width="0.3"/>
          </g>
          <path id="Path" d="M10.742,5.35h2.7a.676.676,0,1,0,0-1.347h-2.7a.676.676,0,1,0,0,1.347Z" transform="translate(-1.571 -0.628)" fill="#212427" stroke="#212427" stroke-width="0.3" fill-rule="evenodd"/>
          <path id="Path-2" data-name="Path" d="M17.35,7.2H3.859a.676.676,0,1,0,0,1.347H17.35a.676.676,0,0,0,0-1.347Z" transform="translate(-0.49 -1.13)" fill="#212427" stroke="#212427" stroke-width="0.3" fill-rule="evenodd"/>
        </g>
      </g>
    </g>
  </g>
</svg>
