<svg width="24" height="24" viewBox="0 0 24 24" fill="none" xmlns="http://www.w3.org/2000/svg">
<path d="M5.08891 3.40942L5.68716 3.36164V2.76148V0.888889C5.68716 0.825532 5.71233 0.76477 5.75713 0.71997C5.80193 0.675169 5.86269 0.65 5.92605 0.65C5.98941 0.65 6.05017 0.675169 6.09497 0.719969C6.13977 0.76477 6.16494 0.825532 6.16494 0.888889V2.68208V3.34491L6.82764 3.33195C7.60816 3.31669 8.48545 3.31667 9.48161 3.31667H14.2224C15.2185 3.31667 16.0958 3.31669 16.8763 3.33195L17.539 3.34491V2.68208V0.888889C17.539 0.825529 17.5642 0.764769 17.609 0.719971C17.6538 0.675169 17.7146 0.65 17.7779 0.65C17.8413 0.65 17.902 0.675169 17.9468 0.719968C17.9916 0.764769 18.0168 0.825529 18.0168 0.888889V2.7603V3.36001L18.6146 3.4082C20.2751 3.54205 21.1996 3.85885 21.8549 4.515L21.8555 4.51566C22.4129 5.0722 22.7253 5.82225 22.8888 7.05371H0.815172C0.978703 5.82287 1.29119 5.07211 1.84845 4.51566L1.84911 4.51499C2.50428 3.85888 3.42767 3.54209 5.08891 3.40942Z" stroke="white" stroke-width="1.3"/>
<path d="M0.65 12.1481C0.65 11.4143 0.650014 10.7451 0.656119 10.1314H23.0476C23.0537 10.7451 23.0537 11.4143 23.0537 12.1481V14.5185C23.0537 16.7715 23.0523 18.3961 22.8859 19.6336C22.722 20.8525 22.4087 21.5981 21.8553 22.1511C21.3015 22.7044 20.5555 23.0176 19.3368 23.1817C18.0994 23.3483 16.4752 23.35 14.2222 23.35H9.48149C7.22844 23.35 5.60391 23.3486 4.36635 23.1821C3.14747 23.0182 2.40184 22.705 1.84885 22.1515C1.29558 21.5978 0.982332 20.8518 0.818263 19.6331C0.651677 18.3957 0.65 16.7714 0.65 14.5185V12.1481ZM17.7778 15.1685C18.2645 15.1685 18.7313 14.9751 19.0755 14.631C19.4196 14.2868 19.613 13.82 19.613 13.3333C19.613 12.8466 19.4196 12.3798 19.0755 12.0356C18.7313 11.6915 18.2645 11.4981 17.7778 11.4981C17.2911 11.4981 16.8243 11.6915 16.4801 12.0356C16.136 12.3798 15.9426 12.8466 15.9426 13.3333C15.9426 13.82 16.136 14.2868 16.4801 14.631C16.8243 14.9751 17.2911 15.1685 17.7778 15.1685ZM17.7778 19.9092C18.2645 19.9092 18.7313 19.7159 19.0755 19.3717C19.4196 19.0276 19.613 18.5608 19.613 18.074C19.613 17.5873 19.4196 17.1205 19.0755 16.7764C18.7313 16.4322 18.2645 16.2389 17.7778 16.2389C17.2911 16.2389 16.8243 16.4322 16.4801 16.7764C16.136 17.1205 15.9426 17.5873 15.9426 18.074C15.9426 18.5608 16.136 19.0276 16.4801 19.3717C16.8243 19.7159 17.2911 19.9092 17.7778 19.9092ZM13.1495 14.631C13.4937 14.2868 13.687 13.82 13.687 13.3333C13.687 12.8466 13.4937 12.3798 13.1495 12.0356C12.8054 11.6915 12.3386 11.4981 11.8519 11.4981C11.3651 11.4981 10.8984 11.6915 10.5542 12.0356C10.21 12.3798 10.0167 12.8466 10.0167 13.3333C10.0167 13.82 10.21 14.2868 10.5542 14.631C10.8984 14.9751 11.3651 15.1685 11.8519 15.1685C12.3386 15.1685 12.8054 14.9751 13.1495 14.631ZM13.1495 19.3717C13.4937 19.0276 13.687 18.5608 13.687 18.074C13.687 17.5873 13.4937 17.1205 13.1495 16.7764C12.8054 16.4322 12.3386 16.2389 11.8519 16.2389C11.3651 16.2389 10.8984 16.4322 10.5542 16.7764C10.21 17.1205 10.0167 17.5873 10.0167 18.074C10.0167 18.5608 10.21 19.0276 10.5542 19.3717C10.8984 19.7159 11.3651 19.9092 11.8519 19.9092C12.3386 19.9092 12.8054 19.7159 13.1495 19.3717ZM5.92593 15.1685C6.41265 15.1685 6.87944 14.9751 7.2236 14.631C7.56777 14.2868 7.76112 13.82 7.76112 13.3333C7.76112 12.8466 7.56777 12.3798 7.2236 12.0356C6.87944 11.6915 6.41265 11.4981 5.92593 11.4981C5.43921 11.4981 4.97242 11.6915 4.62826 12.0356C4.28409 12.3798 4.09074 12.8466 4.09074 13.3333C4.09074 13.82 4.28409 14.2868 4.62826 14.631C4.97242 14.9751 5.43921 15.1685 5.92593 15.1685ZM5.92593 19.9092C6.41265 19.9092 6.87944 19.7159 7.2236 19.3717C7.56777 19.0276 7.76112 18.5608 7.76112 18.074C7.76112 17.5873 7.56777 17.1205 7.2236 16.7764C6.87944 16.4322 6.41265 16.2389 5.92593 16.2389C5.43921 16.2389 4.97242 16.4322 4.62826 16.7764C4.28409 17.1205 4.09074 17.5873 4.09074 18.074C4.09074 18.5608 4.28409 19.0276 4.62826 19.3717C4.97242 19.7159 5.43921 19.9092 5.92593 19.9092Z" stroke="white" stroke-width="1.3"/>
</svg>
