<svg width="24" height="24" viewBox="0 0 24 24" fill="none" xmlns="http://www.w3.org/2000/svg">
<path d="M6.81494 0.888889C6.81494 0.653141 6.72129 0.427049 6.55459 0.26035C6.38789 0.0936506 6.1618 0 5.92605 0C5.6903 0 5.46421 0.0936506 5.29751 0.26035C5.13081 0.427049 5.03716 0.653141 5.03716 0.888889V2.76148C3.33049 2.89778 2.21168 3.232 1.38916 4.05571C0.565454 4.87823 0.231232 5.99823 0.09375 7.70371H23.6102C23.4727 5.99704 23.1385 4.87823 22.3148 4.05571C21.4923 3.232 20.3723 2.89778 18.6668 2.7603V0.888889C18.6668 0.653141 18.5732 0.427049 18.4065 0.26035C18.2398 0.0936506 18.0137 0 17.7779 0C17.5422 0 17.3161 0.0936506 17.1494 0.26035C16.9827 0.427049 16.889 0.653141 16.889 0.888889V2.68208C16.1009 2.66667 15.2167 2.66667 14.2224 2.66667H9.48161C8.48724 2.66667 7.60309 2.66667 6.81494 2.68208V0.888889Z" fill="#36C5F0"/>
<path fill-rule="evenodd" clip-rule="evenodd" d="M0 12.1481C0 11.1537 1.32455e-08 10.2696 0.0154074 9.48145H23.6883C23.7037 10.2696 23.7037 11.1537 23.7037 12.1481V14.5185C23.7037 18.9878 23.7037 21.2231 22.3147 22.6109C20.9256 23.9988 18.6916 24 14.2222 24H9.48149C5.01215 24 2.77689 24 1.38904 22.6109C0.0011851 21.2219 0 18.9878 0 14.5185V12.1481ZM17.7778 14.5185C18.0921 14.5185 18.3936 14.3936 18.6158 14.1714C18.8381 13.9491 18.963 13.6476 18.963 13.3333C18.963 13.019 18.8381 12.7175 18.6158 12.4952C18.3936 12.273 18.0921 12.1481 17.7778 12.1481C17.4635 12.1481 17.162 12.273 16.9397 12.4952C16.7175 12.7175 16.5926 13.019 16.5926 13.3333C16.5926 13.6476 16.7175 13.9491 16.9397 14.1714C17.162 14.3936 17.4635 14.5185 17.7778 14.5185ZM17.7778 19.2592C18.0921 19.2592 18.3936 19.1344 18.6158 18.9121C18.8381 18.6898 18.963 18.3884 18.963 18.074C18.963 17.7597 18.8381 17.4583 18.6158 17.236C18.3936 17.0137 18.0921 16.8889 17.7778 16.8889C17.4635 16.8889 17.162 17.0137 16.9397 17.236C16.7175 17.4583 16.5926 17.7597 16.5926 18.074C16.5926 18.3884 16.7175 18.6898 16.9397 18.9121C17.162 19.1344 17.4635 19.2592 17.7778 19.2592ZM13.037 13.3333C13.037 13.6476 12.9122 13.9491 12.6899 14.1714C12.4676 14.3936 12.1662 14.5185 11.8519 14.5185C11.5375 14.5185 11.2361 14.3936 11.0138 14.1714C10.7915 13.9491 10.6667 13.6476 10.6667 13.3333C10.6667 13.019 10.7915 12.7175 11.0138 12.4952C11.2361 12.273 11.5375 12.1481 11.8519 12.1481C12.1662 12.1481 12.4676 12.273 12.6899 12.4952C12.9122 12.7175 13.037 13.019 13.037 13.3333ZM13.037 18.074C13.037 18.3884 12.9122 18.6898 12.6899 18.9121C12.4676 19.1344 12.1662 19.2592 11.8519 19.2592C11.5375 19.2592 11.2361 19.1344 11.0138 18.9121C10.7915 18.6898 10.6667 18.3884 10.6667 18.074C10.6667 17.7597 10.7915 17.4583 11.0138 17.236C11.2361 17.0137 11.5375 16.8889 11.8519 16.8889C12.1662 16.8889 12.4676 17.0137 12.6899 17.236C12.9122 17.4583 13.037 17.7597 13.037 18.074ZM5.92593 14.5185C6.24026 14.5185 6.54172 14.3936 6.76398 14.1714C6.98625 13.9491 7.11112 13.6476 7.11112 13.3333C7.11112 13.019 6.98625 12.7175 6.76398 12.4952C6.54172 12.273 6.24026 12.1481 5.92593 12.1481C5.6116 12.1481 5.31014 12.273 5.08788 12.4952C4.86561 12.7175 4.74074 13.019 4.74074 13.3333C4.74074 13.6476 4.86561 13.9491 5.08788 14.1714C5.31014 14.3936 5.6116 14.5185 5.92593 14.5185ZM5.92593 19.2592C6.24026 19.2592 6.54172 19.1344 6.76398 18.9121C6.98625 18.6898 7.11112 18.3884 7.11112 18.074C7.11112 17.7597 6.98625 17.4583 6.76398 17.236C6.54172 17.0137 6.24026 16.8889 5.92593 16.8889C5.6116 16.8889 5.31014 17.0137 5.08788 17.236C4.86561 17.4583 4.74074 17.7597 4.74074 18.074C4.74074 18.3884 4.86561 18.6898 5.08788 18.9121C5.31014 19.1344 5.6116 19.2592 5.92593 19.2592Z" fill="#36C5F0"/>
</svg>
