<svg xmlns="http://www.w3.org/2000/svg" width="24" height="24" viewBox="0 0 24 24">
  <g id="chatter" transform="translate(-100 -344)">
    <rect id="Rectangle_1292" data-name="Rectangle 1292" width="24" height="24" transform="translate(100 344)" fill="#fff" opacity="0"/>
    <path id="chatter-f" d="M9.538,3A7.479,7.479,0,0,0,2.762,13.64c-.253.995-.536,2.1-.722,2.832a1.246,1.246,0,0,0,1.5,1.519c.748-.18,1.9-.456,2.921-.7A7.477,7.477,0,1,0,9.538,3ZM3.557,10.476a5.977,5.977,0,1,1,3.32,5.358l-.243-.121-.264.063c-.92.219-1.983.474-2.779.665.2-.777.46-1.806.688-2.7l.07-.275-.13-.252A5.952,5.952,0,0,1,3.557,10.476ZM14.522,20.943a7.45,7.45,0,0,1-5.084-1.994h.1a8.49,8.49,0,0,0,2.075-.256,5.992,5.992,0,0,0,5.571.131l.243-.121.264.063c.919.219,1.959.444,2.731.608-.174-.748-.412-1.75-.639-2.642l-.07-.275.13-.252A5.986,5.986,0,0,0,17.765,8.44a8.413,8.413,0,0,0-.8-2.041A7.483,7.483,0,0,1,21.3,16.631c.252,1,.508,2.093.67,2.794A1.24,1.24,0,0,1,20.5,20.92c-.725-.152-1.864-.395-2.9-.638A7.452,7.452,0,0,1,14.522,20.943Z" transform="translate(99.968 344)" fill="#212121"/>
  </g>
</svg>
