<svg xmlns="http://www.w3.org/2000/svg" width="24" height="24" viewBox="0 0 24 24">
  <g id="chatter-filled" transform="translate(-224 -344)">
    <rect id="Rectangle_1292" data-name="Rectangle 1292" width="24" height="24" transform="translate(224 344)" fill="#fff" opacity="0"/>
    <path id="chatter-filled-f" d="M9.476,3A7.479,7.479,0,0,0,2.7,13.641c-.3,1.221-.562,2.526-.679,3.132a.993.993,0,0,0,1.15,1.167c.621-.111,1.972-.36,3.226-.649A7.477,7.477,0,1,0,9.476,3ZM9.438,18.949A7.483,7.483,0,0,0,17.6,20.282c1.041.244,2.179.487,2.9.638a1.24,1.24,0,0,0,1.463-1.495c-.162-.7-.417-1.79-.67-2.794A7.483,7.483,0,0,0,16.968,6.4a8.413,8.413,0,0,1,.8,2.041,5.986,5.986,0,0,1,2.076,7.765l-.13.252.07.275c.227.893.465,1.894.639,2.642-.772-.163-1.812-.389-2.731-.608l-.264-.063-.243.121a5.992,5.992,0,0,1-5.571-.131,8.49,8.49,0,0,1-2.075.256Z" transform="translate(223.92 344)" fill="#212121"/>
  </g>
</svg>
