<svg xmlns="http://www.w3.org/2000/svg" width="24" height="24" viewBox="0 0 24 24">
  <g id="date-filled" transform="translate(-1216 -220)">
    <rect id="Rectangle_1292" data-name="Rectangle 1292" width="24" height="24" transform="translate(1216 220)" fill="#fff" opacity="0"/>
    <path id="date-filled-f" d="M6173,20864h-14a3,3,0,0,1-3-3v-14a3,3,0,0,1,3-3h14a3,3,0,0,1,3,3v14A3,3,0,0,1,6173,20864Zm-13.572-14.105a.789.789,0,0,0-.681.393.833.833,0,0,0,0,.869.789.789,0,0,0,.681.393.266.266,0,0,0,.068-.006h13.022a.828.828,0,0,0,0-1.643H6159.5A.266.266,0,0,0,6159.428,20849.895Zm5.624-.969h2.681a.285.285,0,0,1,.041,0,.1.1,0,0,0,.033,0,.827.827,0,0,0,0-1.654.5.5,0,0,0-.074,0h-2.681a.5.5,0,0,0-.073,0,.827.827,0,0,0,0,1.654.171.171,0,0,0,.031,0A.16.16,0,0,1,6165.052,20848.926Z" transform="translate(-4938 -20622)" fill="#212121"/>
  </g>
</svg>
