<svg xmlns="http://www.w3.org/2000/svg" width="24" height="24" viewBox="0 0 24 24">
  <g id="desk" transform="translate(-844 -220)">
    <rect id="Rectangle_1292" data-name="Rectangle 1292" width="24" height="24" transform="translate(844 220)" fill="#fff" opacity="0"/>
    <path id="desk-f" d="M19.487,2.5a3.513,3.513,0,0,1,3.508,3.314l.006.2V18.987A3.513,3.513,0,0,1,19.486,22.5H6.513a3.513,3.513,0,0,1-3.508-3.314L3,18.987V6.011A3.513,3.513,0,0,1,6.514,2.5Zm-7.3,7.567H4.621v8.921l.008.174a1.892,1.892,0,0,0,1.884,1.718h5.675Zm9.188,6.486H13.81v4.326h5.676a1.892,1.892,0,0,0,1.892-1.892ZM19.487,4.12H13.81V14.931h7.567V6.011l-.008-.174A1.892,1.892,0,0,0,19.487,4.12Zm-7.3,0H6.514l-.155.006A1.892,1.892,0,0,0,4.622,6.011V8.445h7.567Z" transform="translate(843 219.502)" fill="#212121"/>
  </g>
</svg>
