<svg xmlns="http://www.w3.org/2000/svg" width="24" height="24" viewBox="0 0 24 24">
  <g id="desk-flled" transform="translate(-968 -220)">
    <rect id="Rectangle_1292" data-name="Rectangle 1292" width="24" height="24" transform="translate(968 220)" fill="#fff" opacity="0"/>
    <path id="desk-flled-f" d="M12.187,10.066V22.5H6.513a3.513,3.513,0,0,1-3.508-3.314L3,18.987V10.066Zm1.621,6.486H23v2.435A3.513,3.513,0,0,1,19.486,22.5H13.81ZM19.487,2.5a3.513,3.513,0,0,1,3.508,3.314l.006.2,0,8.919h-9.19V2.5Zm-7.3,0V8.445H3V6.011A3.514,3.514,0,0,1,6.514,2.5Z" transform="translate(967.012 219.502)" fill="#212121"/>
  </g>
</svg>
