<svg width="25" height="24" viewBox="0 0 25 24" fill="none" xmlns="http://www.w3.org/2000/svg">
<path d="M23.2019 18.3982L23.2019 18.3983L23.2063 18.4013C23.6224 18.6908 23.7957 19.1082 23.7957 19.6043C23.7957 20.2641 23.4717 20.9983 22.8621 21.6811C21.8284 22.8347 20.5448 23.35 19.0461 23.35C17.3525 23.35 15.4052 22.6848 13.391 21.5239C11.3852 20.3678 9.36093 18.7477 7.52686 16.907L7.52287 16.9109L7.5252 16.9053C5.69143 15.0782 4.08869 13.0714 2.94816 11.08C1.80336 9.08117 1.15 7.14305 1.15 5.44036C1.15 3.95783 1.63286 2.65551 2.75251 1.58335C3.42219 0.950042 4.13735 0.65 4.78717 0.65C5.30126 0.65 5.75018 0.848602 6.0791 1.29085L8.84018 5.17531C9.23626 5.75109 9.36046 6.11661 9.36046 6.37648C9.36046 6.70466 9.18115 7.07343 8.62828 7.6263L8.62823 7.62625L8.62157 7.63311L7.71538 8.56634C7.41136 8.87283 7.33897 9.2354 7.33897 9.51046C7.33897 9.8404 7.45183 10.1338 7.54326 10.3167L7.54314 10.3167L7.54923 10.3283C7.79416 10.7945 8.23315 11.3785 8.74384 11.9834C9.26292 12.5983 9.88563 13.2691 10.5252 13.9156L10.5252 13.9156L10.5301 13.9205C11.8012 15.1781 13.2324 16.4235 14.1133 16.8943L14.129 16.9025C14.3167 16.9963 14.6089 17.1068 14.9488 17.1068C15.2244 17.1068 15.5879 17.0341 15.8948 16.7285C15.8955 16.7278 15.8962 16.7271 15.8969 16.7264L16.816 15.8208L16.816 15.8209L16.8194 15.8174C17.3745 15.2624 17.7428 15.0853 18.0557 15.0853C18.3239 15.0853 18.7057 15.2048 19.2471 15.5986L19.2471 15.5986L19.2539 15.6034L23.2019 18.3982Z" stroke="white" stroke-width="1.3" stroke-linejoin="bevel"/>
</svg>
