<svg xmlns="http://www.w3.org/2000/svg" width="24" height="24" viewBox="0 0 24 24">
  <g id="explore-filled" transform="translate(-968 -1601)">
    <rect id="Rectangle_1384" data-name="Rectangle 1384" width="24" height="24" transform="translate(968 1601)" fill="#fff" opacity="0"/>
    <path id="explore-filled-f" d="M9.389,14.111a2.5,2.5,0,0,1,2.5,2.5V20.5a2.5,2.5,0,0,1-2.5,2.5H5.5A2.5,2.5,0,0,1,3,20.5V16.611a2.5,2.5,0,0,1,2.5-2.5Zm11.111,0a2.5,2.5,0,0,1,2.5,2.5V20.5A2.5,2.5,0,0,1,20.5,23H16.611a2.5,2.5,0,0,1-2.5-2.5V16.611a2.5,2.5,0,0,1,2.5-2.5ZM9.389,3a2.5,2.5,0,0,1,2.5,2.5V9.389a2.5,2.5,0,0,1-2.5,2.5H5.5A2.5,2.5,0,0,1,3,9.389V5.5A2.5,2.5,0,0,1,5.5,3ZM20.5,3A2.5,2.5,0,0,1,23,5.5V9.389a2.5,2.5,0,0,1-2.5,2.5H16.611a2.5,2.5,0,0,1-2.5-2.5V5.5a2.5,2.5,0,0,1,2.5-2.5Z" transform="translate(967 1600)" fill="#212121"/>
  </g>
</svg>
