<svg width="25" height="24" viewBox="0 0 25 24" fill="none" xmlns="http://www.w3.org/2000/svg">
<path d="M4.5166 9.15106L12.5013 0.922211L20.486 9.15106V23.0768H4.5166V9.15106Z" fill="#36C5F0"/>
<path d="M22.0202 9.53797C22.0202 9.29315 21.9231 9.05835 21.7504 8.88524C21.5776 8.71212 21.3432 8.61486 21.0989 8.61486C20.8545 8.61486 20.6202 8.71212 20.4474 8.88524C20.2746 9.05835 20.1776 9.29315 20.1776 9.53797H22.0202ZM4.82242 9.53797C4.82242 9.29315 4.72536 9.05835 4.55258 8.88524C4.3798 8.71212 4.14546 8.61486 3.90112 8.61486C3.65677 8.61486 3.42243 8.71212 3.24965 8.88524C3.07687 9.05835 2.97981 9.29315 2.97981 9.53797H4.82242ZM22.9047 12.6519C22.989 12.7426 23.0907 12.8154 23.2037 12.8658C23.3167 12.9163 23.4387 12.9434 23.5624 12.9456C23.6861 12.9478 23.809 12.925 23.9237 12.8785C24.0385 12.8321 24.1427 12.763 24.2302 12.6754C24.3176 12.5877 24.3866 12.4833 24.4329 12.3683C24.4793 12.2534 24.502 12.1303 24.4999 12.0063C24.4977 11.8824 24.4706 11.7602 24.4202 11.6469C24.3699 11.5337 24.2973 11.4318 24.2068 11.3473L22.9047 12.6519ZM12.5 0.922296L13.1511 0.269966C12.9783 0.0970982 12.7441 0 12.5 0C12.2559 0 12.0217 0.0970982 11.8489 0.269966L12.5 0.922296ZM0.793232 11.3473C0.702715 11.4318 0.630113 11.5337 0.579758 11.6469C0.529403 11.7602 0.502326 11.8824 0.500143 12.0063C0.497961 12.1303 0.520717 12.2534 0.567054 12.3683C0.613391 12.4833 0.682359 12.5877 0.769845 12.6754C0.857331 12.763 0.961542 12.8321 1.07626 12.8785C1.19098 12.925 1.31386 12.9478 1.43756 12.9456C1.56127 12.9434 1.68326 12.9163 1.79628 12.8658C1.90929 12.8154 2.011 12.7426 2.09535 12.6519L0.793232 11.3473ZM6.35794 24H18.6421V22.1538H6.35794V24ZM22.0202 20.6153V9.53797H20.1776V20.6153H22.0202ZM4.82242 20.6153V9.53797H2.97981V20.6153H4.82242ZM24.2068 11.3473L13.1511 0.269966L11.8489 1.57463L22.9047 12.6519L24.2068 11.3473ZM11.8489 0.269966L0.793232 11.3473L2.09535 12.6519L13.1511 1.57463L11.8489 0.269966ZM18.6421 24C19.538 24 20.3972 23.6434 21.0308 23.0086C21.6643 22.3739 22.0202 21.513 22.0202 20.6153H20.1776C20.1776 21.4645 19.4897 22.1538 18.6421 22.1538V24ZM6.35794 22.1538C5.51033 22.1538 4.82242 21.4645 4.82242 20.6153H2.97981C2.97981 21.513 3.33572 22.3739 3.96924 23.0086C4.60276 23.6434 5.462 24 6.35794 24V22.1538Z" fill="#36C5F0"/>
</svg>
