<svg xmlns="http://www.w3.org/2000/svg" width="24" height="24" viewBox="0 0 24 24">
  <g id="home" transform="translate(-348 -220)">
    <rect id="Rectangle_1292" data-name="Rectangle 1292" width="24" height="24" transform="translate(348 220)" fill="#fff" opacity="0"/>
    <path id="home-2" data-name="home" d="M10.55,2.546a2.207,2.207,0,0,1,2.9,0l6.75,5.84A2.333,2.333,0,0,1,21,10.15V20.207A1.773,1.773,0,0,1,19.25,22h-3.5a1.773,1.773,0,0,1-1.75-1.8V14.564a.253.253,0,0,0-.25-.256h-3.5a.253.253,0,0,0-.25.256v5.643A1.773,1.773,0,0,1,8.25,22H4.75A1.773,1.773,0,0,1,3,20.207V10.15a2.333,2.333,0,0,1,.8-1.765Zm1.934,1.176a.736.736,0,0,0-.967,0l-6.75,5.84a.778.778,0,0,0-.267.588V20.207a.253.253,0,0,0,.25.256h3.5a.253.253,0,0,0,.25-.256V14.564a1.773,1.773,0,0,1,1.75-1.8h3.5a1.773,1.773,0,0,1,1.75,1.8v5.643a.253.253,0,0,0,.25.256h3.5a.253.253,0,0,0,.25-.256V10.15a.778.778,0,0,0-.267-.588Z" transform="translate(348 219.998)" fill="#212121"/>
  </g>
</svg>
