<svg width="20" height="18" viewBox="0 0 20 18" fill="none" xmlns="http://www.w3.org/2000/svg">
<path d="M11.0351 2.40836L11.0353 2.40839C11.2807 2.45301 11.4434 2.68806 11.3988 2.93341L11.3988 2.93344C11.3591 3.1515 11.1691 3.30423 10.955 3.30425L11.0351 2.40836ZM11.0351 2.40836L11.0164 2.40527L11.0164 2.40526C10.7698 2.36745 10.541 2.53671 10.5028 2.78243L10.5028 2.78244M11.0351 2.40836L10.5028 2.78244M10.5028 2.78244C10.4647 3.0283 10.6336 3.25797 10.8779 3.29763M10.5028 2.78244L10.8779 3.29763M10.2714 2.62749C10.307 2.67496 10.3328 2.72897 10.3475 2.78643C10.4092 3.02807 10.2633 3.27397 10.0217 3.33563C9.47417 3.47543 9.02047 3.81748 8.74267 4.29866L10.2714 2.62749ZM10.2714 2.62749C10.2359 2.58001 10.1914 2.54 10.1404 2.50975M10.2714 2.62749L10.1404 2.50975M10.1404 2.50975C10.0893 2.47949 10.0329 2.45958 9.97418 2.45115M10.1404 2.50975L9.97418 2.45115M9.97418 2.45115C9.91548 2.44272 9.85569 2.44594 9.79823 2.46062M9.97418 2.45115L9.79823 2.46062M9.79823 2.46062C9.0143 2.66084 8.36113 3.15331 7.96057 3.84718M9.79823 2.46062L7.96057 3.84718M7.96057 3.84718C7.83586 4.06315 7.90986 4.33927 8.1258 4.46396M7.96057 3.84718L8.1258 4.46396M8.1258 4.46396C8.17715 4.49364 8.23385 4.51291 8.29265 4.52066M8.1258 4.46396L8.29265 4.52066M8.29265 4.52066C8.35145 4.52842 8.4112 4.52451 8.46849 4.50916M8.29265 4.52066L8.46849 4.50916M8.46849 4.50916C8.52578 4.49381 8.57949 4.46732 8.62653 4.4312M8.46849 4.50916L8.62653 4.4312M8.62653 4.4312C8.67356 4.39509 8.71302 4.35006 8.74265 4.2987L8.62653 4.4312ZM10.8779 3.29763C10.9033 3.30204 10.9291 3.30425 10.955 3.30425L10.8779 3.29763Z" fill="white" stroke="white" stroke-width="0.2"/>
<path d="M4.08238 7.04281L4.0824 7.04282C4.08361 7.0406 4.08482 7.03859 4.0859 7.0369L6.70638 2.49821C7.86382 0.493394 10.4363 -0.195806 12.4412 0.961657C13.4087 1.52025 14.102 2.42633 14.3929 3.5119C14.6838 4.59755 14.5365 5.72884 13.9779 6.69645L11.9019 10.2921C12.3848 10.2519 12.8887 10.2308 13.4031 10.2308C14.4539 10.2308 15.463 10.3177 16.3339 10.4798C16.3536 10.4821 16.373 10.4856 16.3922 10.4904C16.6903 10.5474 16.9721 10.6134 17.2333 10.688C17.8341 10.8597 18.2966 11.0666 18.6108 11.3112C18.927 11.5573 19.1 11.848 19.1 12.181C19.1 12.1831 19.0999 12.185 19.0999 12.1866V15.9276C19.0999 16.2611 18.9272 16.5521 18.6115 16.7985C18.2977 17.0433 17.836 17.2502 17.236 17.4216C16.2034 17.7166 14.8421 17.8779 13.403 17.8779C11.9639 17.8779 10.6026 17.7166 9.56994 17.4216C8.87003 17.2216 8.35546 16.9725 8.04618 16.6688C7.48985 17.217 6.7863 17.6022 6.00781 17.776C5.70224 17.8442 5.39323 17.8779 5.08604 17.8779L4.08238 7.04281ZM4.08238 7.04281L4.08179 7.04395L1.46089 11.5835C0.902219 12.5511 0.754948 13.6824 1.04582 14.768L1.14239 14.7421L1.04582 14.768C1.3367 15.8536 2.02997 16.7597 2.99758 17.3183M4.08238 7.04281L2.99758 17.3183M2.99758 17.3183C3.63244 17.6851 4.35278 17.8782 5.08601 17.8779L2.99758 17.3183ZM18.1961 12.181C18.1941 12.1753 18.1873 12.1584 18.1652 12.1302C18.1347 12.0914 18.081 12.0393 17.9923 11.9783C17.8146 11.8563 17.5048 11.7048 16.9852 11.5563C16.7822 11.4984 16.5635 11.4461 16.3326 11.3993L12.2707 13.1921C12.6377 13.2159 13.0169 13.2282 13.4031 13.2282C14.7625 13.2282 16.0346 13.0773 16.9852 12.8058L18.1961 12.181ZM18.1961 12.181C18.1941 12.1868 18.1873 12.2039 18.1648 12.2324C18.1342 12.2712 18.0804 12.3233 17.9916 12.3843C17.8138 12.5062 17.5041 12.6575 16.9852 12.8058L18.1961 12.181ZM9.82119 11.5562C10.7717 11.2847 12.0438 11.1338 13.4032 11.1338C13.8138 11.1338 14.2164 11.1478 14.6049 11.1747L10.5284 12.9739C10.2772 12.9244 10.0403 12.8683 9.82116 12.8057C9.30061 12.657 8.99058 12.5051 8.81312 12.383C8.7244 12.322 8.67091 12.2698 8.64065 12.2312C8.61883 12.2033 8.61221 12.1866 8.61022 12.181C8.61221 12.1754 8.61883 12.1586 8.64066 12.1308C8.67092 12.0921 8.72441 12.0399 8.81313 11.9789C8.99061 11.8568 9.30064 11.705 9.82119 11.5562ZM9.82119 11.5562L9.79372 11.4601L9.8212 11.5562C9.82119 11.5562 9.82119 11.5562 9.82119 11.5562ZM7.48843 2.94977L7.40182 2.89977L7.48843 2.94977C8.39681 1.37637 10.4162 0.835345 11.9896 1.74374C12.7483 2.18173 13.2919 2.89234 13.5206 3.74568C13.7493 4.59905 13.6338 5.48625 13.1959 6.24493L10.7988 10.3966L5.09148 7.10126L7.48843 2.94977ZM7.70627 12.1776L7.70616 12.1811V15.6928C6.71181 16.9817 4.8695 17.3563 3.44917 16.5362C2.6905 16.0982 2.14683 15.3876 1.91816 14.5343C1.68949 13.6809 1.805 12.7937 2.24297 12.035L4.63995 7.88331L9.52265 10.7025C8.94687 10.8711 8.5018 11.073 8.19648 11.3105C7.88081 11.5559 7.70747 11.8456 7.70627 12.1776ZM7.70658 12.1716L7.70652 12.1723L7.70658 12.1716ZM18.1969 15.9259C18.1969 15.9258 18.1969 15.9257 18.1969 15.9257C18.1965 15.9257 18.1931 15.9433 18.1656 15.9786C18.1354 16.0174 18.082 16.0696 17.9936 16.1308C17.8166 16.253 17.5074 16.4049 16.9881 16.5533C16.0395 16.8243 14.7663 16.9749 13.4031 16.9749C12.0399 16.9749 10.7667 16.8243 9.8181 16.5533C9.29881 16.4049 8.98959 16.253 8.81261 16.1308C8.72414 16.0697 8.67078 16.0174 8.64059 15.9786C8.61313 15.9433 8.60971 15.9257 8.60932 15.9257C8.6093 15.9257 8.60929 15.9258 8.60928 15.9259V13.3094C8.8741 13.4449 9.19603 13.5663 9.57303 13.6741C9.85156 13.7536 10.154 13.8231 10.474 13.8825C10.4913 13.8868 10.5092 13.8901 10.5276 13.8923C11.3858 14.0478 12.3745 14.1313 13.4031 14.1313C14.8385 14.1313 16.1987 13.9697 17.2333 13.6741C17.6102 13.5664 17.9321 13.445 18.1969 13.3095V15.9259Z" fill="white" stroke="white" stroke-width="0.2"/>
</svg>
