<svg width="20" height="18" viewBox="0 0 20 18" fill="none" xmlns="http://www.w3.org/2000/svg">
<path d="M6 5.5H14M6 9.5H12M16 0.5C16.7956 0.5 17.5587 0.816071 18.1213 1.37868C18.6839 1.94129 19 2.70435 19 3.5V11.5C19 12.2956 18.6839 13.0587 18.1213 13.6213C17.5587 14.1839 16.7956 14.5 16 14.5H11L6 17.5V14.5H4C3.20435 14.5 2.44129 14.1839 1.87868 13.6213C1.31607 13.0587 1 12.2956 1 11.5V3.5C1 2.70435 1.31607 1.94129 1.87868 1.37868C2.44129 0.816071 3.20435 0.5 4 0.5H16Z" stroke="white" stroke-linecap="round" stroke-linejoin="round"/>
</svg>
