<svg width="4" height="16" viewBox="0 0 4 16" fill="none" xmlns="http://www.w3.org/2000/svg">
<path d="M0.799805 13.8C0.799805 13.4022 0.95784 13.0206 1.23914 12.7393C1.52045 12.458 1.90198 12.3 2.2998 12.3C2.69763 12.3 3.07916 12.458 3.36047 12.7393C3.64177 13.0206 3.7998 13.4022 3.7998 13.8C3.7998 14.1978 3.64177 14.5793 3.36047 14.8606C3.07916 15.142 2.69763 15.3 2.2998 15.3C1.90198 15.3 1.52045 15.142 1.23914 14.8606C0.95784 14.5793 0.799805 14.1978 0.799805 13.8ZM0.799805 7.79999C0.799805 7.40216 0.95784 7.02063 1.23914 6.73933C1.52045 6.45802 1.90198 6.29999 2.2998 6.29999C2.69763 6.29999 3.07916 6.45802 3.36047 6.73933C3.64177 7.02063 3.7998 7.40216 3.7998 7.79999C3.7998 8.19781 3.64177 8.57934 3.36047 8.86065C3.07916 9.14195 2.69763 9.29999 2.2998 9.29999C1.90198 9.29999 1.52045 9.14195 1.23914 8.86065C0.95784 8.57934 0.799805 8.19781 0.799805 7.79999ZM0.799805 1.79999C0.799805 1.40216 0.95784 1.02063 1.23914 0.739328C1.52045 0.458023 1.90198 0.299988 2.2998 0.299988C2.69763 0.299988 3.07916 0.458023 3.36047 0.739328C3.64177 1.02063 3.7998 1.40216 3.7998 1.79999C3.7998 2.19781 3.64177 2.57934 3.36047 2.86065C3.07916 3.14195 2.69763 3.29999 2.2998 3.29999C1.90198 3.29999 1.52045 3.14195 1.23914 2.86065C0.95784 2.57934 0.799805 2.19781 0.799805 1.79999Z" fill="white"/>
</svg>
