<svg width="24" height="24" viewBox="0 0 24 24" fill="none" xmlns="http://www.w3.org/2000/svg">
<path d="M22.9711 16.4446L17.1864 13.8523C16.9243 13.74 16.6383 13.6948 16.3543 13.7209C16.0704 13.747 15.7974 13.8435 15.5602 14.0017C15.5361 14.0171 15.5132 14.0343 15.4916 14.0531L12.4682 16.6246C12.4369 16.6417 12.4019 16.6513 12.3662 16.6526C12.3305 16.6538 12.295 16.6468 12.2625 16.632C10.3192 15.694 8.30603 13.6931 7.36436 11.7767C7.34868 11.7447 7.34053 11.7095 7.34053 11.6738C7.34053 11.6382 7.34868 11.603 7.36436 11.571L9.94446 8.50963C9.96297 8.48698 9.98014 8.46326 9.99589 8.4386C10.1519 8.20044 10.2461 7.92717 10.27 7.64348C10.294 7.35978 10.2469 7.07459 10.133 6.81365L7.55907 1.03874C7.41289 0.697844 7.1601 0.413548 6.83862 0.228524C6.51715 0.0434999 6.14434 -0.0322709 5.77614 0.0125833C4.17595 0.222954 2.70711 1.00879 1.6441 2.22324C0.581094 3.43768 -0.00334014 4.99764 1.43606e-05 6.6116C1.43606e-05 16.1997 7.8003 24 17.3884 24C19.0023 24.0031 20.5621 23.4186 21.7765 22.3556C22.9909 21.2926 23.7768 19.8239 23.9874 18.2239C24.0322 17.8574 23.9574 17.4863 23.7743 17.1657C23.5912 16.8451 23.3095 16.5922 22.9711 16.4446ZM17.3884 22.5305C8.61094 22.5305 1.46946 15.3891 1.46946 6.6116C1.46536 5.35514 1.91886 4.14017 2.74523 3.19369C3.5716 2.24721 4.71429 1.63397 5.95982 1.46855H5.98799C6.03733 1.46948 6.08525 1.48529 6.12546 1.51391C6.16566 1.54254 6.19628 1.58264 6.2133 1.62897L8.79707 7.39775C8.8118 7.42982 8.81943 7.4647 8.81943 7.5C8.81943 7.5353 8.8118 7.57017 8.79707 7.60225L6.21208 10.6709C6.19279 10.6928 6.17519 10.7162 6.15942 10.7407C5.99767 10.9877 5.90242 11.2722 5.88289 11.5667C5.86337 11.8613 5.92024 12.1559 6.04799 12.422C7.13415 14.6458 9.37505 16.8695 11.6233 17.9557C11.891 18.0827 12.187 18.1382 12.4825 18.1168C12.7781 18.0953 13.063 17.9976 13.3095 17.8332C13.3327 17.8173 13.356 17.8002 13.3781 17.7818L16.4002 15.2103C16.43 15.1942 16.463 15.1848 16.4968 15.1827C16.5306 15.1806 16.5645 15.1858 16.5961 15.198L22.3821 17.7904C22.4293 17.8105 22.4691 17.845 22.4956 17.8889C22.5222 17.9329 22.5343 17.9841 22.5302 18.0353C22.3657 19.2814 21.753 20.4249 20.8067 21.2522C19.8605 22.0795 18.6453 22.5339 17.3884 22.5305Z" fill="#0B1420"/>
</svg>
