<svg width="24" height="24" viewBox="0 0 24 24" fill="none" xmlns="http://www.w3.org/2000/svg">
<mask id="path-1-outside-1_1557_574" maskUnits="userSpaceOnUse" x="0.200195" y="0.199707" width="23" height="23" fill="black">
<rect fill="white" x="0.200195" y="0.199707" width="23" height="23"/>
<path d="M21.8741 15.9998L16.6679 13.6667C16.432 13.5656 16.1746 13.525 15.9191 13.5485C15.6635 13.572 15.4178 13.6588 15.2043 13.8012C15.1826 13.8151 15.162 13.8306 15.1426 13.8475L12.4216 16.1618C12.3933 16.1772 12.3619 16.1858 12.3298 16.187C12.2976 16.1881 12.2657 16.1818 12.2364 16.1684C10.4874 15.3242 8.6756 13.5234 7.8281 11.7987C7.81399 11.7699 7.80666 11.7382 7.80666 11.7061C7.80666 11.674 7.81399 11.6424 7.8281 11.6135L10.1502 8.85835C10.1668 8.83796 10.1823 8.81662 10.1965 8.79443C10.3369 8.58008 10.4217 8.33414 10.4432 8.07882C10.4648 7.82349 10.4224 7.56682 10.3199 7.33197L8.00334 2.13457C7.87178 1.82777 7.64426 1.5719 7.35494 1.40538C7.06561 1.23886 6.73008 1.17066 6.39871 1.21103C4.95854 1.40037 3.63659 2.10761 2.67988 3.20061C1.72318 4.29361 1.19719 5.69757 1.20021 7.15013C1.20021 15.7794 8.22044 22.7996 16.8497 22.7996C18.3022 22.8024 19.706 22.2763 20.799 21.3197C21.8919 20.363 22.5993 19.0412 22.7888 17.6011C22.8291 17.2713 22.7618 16.9373 22.597 16.6488C22.4322 16.3603 22.1787 16.1326 21.8741 15.9998ZM16.8497 21.4771C8.95002 21.4771 2.5227 15.0498 2.5227 7.15013C2.51902 6.01932 2.92717 4.92585 3.6709 4.07402C4.41462 3.22219 5.44305 2.67028 6.56402 2.5214H6.58937C6.63378 2.52223 6.67691 2.53646 6.71309 2.56222C6.74928 2.58799 6.77683 2.62408 6.79215 2.66578L9.11754 7.85766C9.1308 7.88653 9.13766 7.91792 9.13766 7.94969C9.13766 7.98145 9.1308 8.01285 9.11754 8.04171L6.79105 10.8035C6.77369 10.8232 6.75785 10.8442 6.74366 10.8663C6.59808 11.0886 6.51236 11.3446 6.49479 11.6097C6.47722 11.8748 6.5284 12.14 6.64337 12.3795C7.62091 14.3809 9.63772 16.3822 11.6611 17.3598C11.902 17.4741 12.1685 17.5241 12.4344 17.5048C12.7004 17.4854 12.9568 17.3975 13.1787 17.2496C13.1996 17.2352 13.2206 17.2198 13.2404 17.2033L15.9603 14.8889C15.9872 14.8745 16.0169 14.866 16.0473 14.8641C16.0777 14.8622 16.1082 14.8669 16.1367 14.8779L21.344 17.211C21.3865 17.2291 21.4223 17.2601 21.4462 17.2997C21.4701 17.3393 21.481 17.3853 21.4773 17.4314C21.3292 18.5529 20.7779 19.5821 19.9262 20.3267C19.0746 21.0712 17.9809 21.4802 16.8497 21.4771Z"/>
</mask>
<path d="M21.8741 15.9998L16.6679 13.6667C16.432 13.5656 16.1746 13.525 15.9191 13.5485C15.6635 13.572 15.4178 13.6588 15.2043 13.8012C15.1826 13.8151 15.162 13.8306 15.1426 13.8475L12.4216 16.1618C12.3933 16.1772 12.3619 16.1858 12.3298 16.187C12.2976 16.1881 12.2657 16.1818 12.2364 16.1684C10.4874 15.3242 8.6756 13.5234 7.8281 11.7987C7.81399 11.7699 7.80666 11.7382 7.80666 11.7061C7.80666 11.674 7.81399 11.6424 7.8281 11.6135L10.1502 8.85835C10.1668 8.83796 10.1823 8.81662 10.1965 8.79443C10.3369 8.58008 10.4217 8.33414 10.4432 8.07882C10.4648 7.82349 10.4224 7.56682 10.3199 7.33197L8.00334 2.13457C7.87178 1.82777 7.64426 1.5719 7.35494 1.40538C7.06561 1.23886 6.73008 1.17066 6.39871 1.21103C4.95854 1.40037 3.63659 2.10761 2.67988 3.20061C1.72318 4.29361 1.19719 5.69757 1.20021 7.15013C1.20021 15.7794 8.22044 22.7996 16.8497 22.7996C18.3022 22.8024 19.706 22.2763 20.799 21.3197C21.8919 20.363 22.5993 19.0412 22.7888 17.6011C22.8291 17.2713 22.7618 16.9373 22.597 16.6488C22.4322 16.3603 22.1787 16.1326 21.8741 15.9998ZM16.8497 21.4771C8.95002 21.4771 2.5227 15.0498 2.5227 7.15013C2.51902 6.01932 2.92717 4.92585 3.6709 4.07402C4.41462 3.22219 5.44305 2.67028 6.56402 2.5214H6.58937C6.63378 2.52223 6.67691 2.53646 6.71309 2.56222C6.74928 2.58799 6.77683 2.62408 6.79215 2.66578L9.11754 7.85766C9.1308 7.88653 9.13766 7.91792 9.13766 7.94969C9.13766 7.98145 9.1308 8.01285 9.11754 8.04171L6.79105 10.8035C6.77369 10.8232 6.75785 10.8442 6.74366 10.8663C6.59808 11.0886 6.51236 11.3446 6.49479 11.6097C6.47722 11.8748 6.5284 12.14 6.64337 12.3795C7.62091 14.3809 9.63772 16.3822 11.6611 17.3598C11.902 17.4741 12.1685 17.5241 12.4344 17.5048C12.7004 17.4854 12.9568 17.3975 13.1787 17.2496C13.1996 17.2352 13.2206 17.2198 13.2404 17.2033L15.9603 14.8889C15.9872 14.8745 16.0169 14.866 16.0473 14.8641C16.0777 14.8622 16.1082 14.8669 16.1367 14.8779L21.344 17.211C21.3865 17.2291 21.4223 17.2601 21.4462 17.2997C21.4701 17.3393 21.481 17.3853 21.4773 17.4314C21.3292 18.5529 20.7779 19.5821 19.9262 20.3267C19.0746 21.0712 17.9809 21.4802 16.8497 21.4771Z" fill="#0B1420"/>
<path d="M21.8741 15.9998L21.7514 16.2736L21.7542 16.2748L21.8741 15.9998ZM16.6679 13.6667L16.7906 13.3929L16.786 13.391L16.6679 13.6667ZM15.2043 13.8012L15.3664 14.0537L15.3707 14.0508L15.2043 13.8012ZM15.1426 13.8475L15.337 14.076L15.3396 14.0737L15.1426 13.8475ZM12.4216 16.1618L12.5652 16.4252L12.5924 16.4104L12.6159 16.3903L12.4216 16.1618ZM12.2364 16.1684L12.106 16.4387L12.112 16.4414L12.2364 16.1684ZM7.8281 11.7987L7.55867 11.9306L7.55885 11.931L7.8281 11.7987ZM7.80666 11.7061H8.10666H7.80666ZM7.8281 11.6135L7.59871 11.4202L7.57491 11.4484L7.55867 11.4816L7.8281 11.6135ZM10.1502 8.85835L10.3796 9.05171L10.3825 9.0482L10.1502 8.85835ZM10.1965 8.79443L9.94549 8.63005L9.94362 8.63297L10.1965 8.79443ZM10.3199 7.33197L10.5949 7.21199L10.5939 7.20984L10.3199 7.33197ZM8.00334 2.13457L7.72759 2.25281L7.72932 2.25671L8.00334 2.13457ZM6.39871 1.21103L6.36243 0.91322L6.35961 0.913591L6.39871 1.21103ZM1.20021 7.15013H1.50021L1.50021 7.14951L1.20021 7.15013ZM16.8497 22.7996L16.8503 22.4996H16.8497V22.7996ZM22.7888 17.6011L23.0863 17.6403L23.0866 17.6375L22.7888 17.6011ZM16.8497 21.4771L16.8505 21.1771H16.8497V21.4771ZM2.5227 7.15013H2.8227L2.8227 7.14915L2.5227 7.15013ZM6.56402 2.5214V2.2214H6.54419L6.52452 2.22401L6.56402 2.5214ZM6.58937 2.5214L6.59497 2.2214H6.58937V2.5214ZM6.79215 2.66578L6.51055 2.76922L6.51412 2.77895L6.51836 2.7884L6.79215 2.66578ZM9.11754 7.85766L8.84373 7.9803L8.84493 7.98291L9.11754 7.85766ZM9.11754 8.04171L9.34698 8.23499L9.37317 8.2039L9.39014 8.16696L9.11754 8.04171ZM6.79105 10.8035L7.01628 11.0018L7.02049 10.9968L6.79105 10.8035ZM6.74366 10.8663L6.99462 11.0307L6.99611 11.0284L6.74366 10.8663ZM6.64337 12.3795L6.37291 12.5093L6.37381 12.5112L6.64337 12.3795ZM11.6611 17.3598L11.5306 17.6299L11.5325 17.6308L11.6611 17.3598ZM13.1787 17.2496L13.3451 17.4992L13.3481 17.4972L13.1787 17.2496ZM13.2404 17.2033L13.4325 17.4338L13.4348 17.4318L13.2404 17.2033ZM15.9603 14.8889L15.8183 14.6247L15.7902 14.6398L15.7659 14.6604L15.9603 14.8889ZM16.1367 14.8779L16.2593 14.6041L16.2521 14.6009L16.2447 14.598L16.1367 14.8779ZM21.344 17.211L21.2213 17.4848L21.2264 17.487L21.344 17.211ZM21.4773 17.4314L21.7748 17.4707L21.7758 17.4631L21.7764 17.4554L21.4773 17.4314ZM21.9968 15.726L16.7906 13.393L16.5452 13.9405L21.7514 16.2736L21.9968 15.726ZM16.786 13.391C16.5043 13.2702 16.1969 13.2217 15.8916 13.2497L15.9465 13.8472C16.1524 13.8283 16.3597 13.861 16.5497 13.9425L16.786 13.391ZM15.8916 13.2497C15.5864 13.2778 15.2929 13.3815 15.0379 13.5516L15.3707 14.0508C15.5427 13.9361 15.7406 13.8661 15.9465 13.8472L15.8916 13.2497ZM15.0423 13.5487C15.0083 13.5705 14.976 13.5947 14.9456 13.6212L15.3396 14.0737C15.348 14.0664 15.357 14.0597 15.3664 14.0536L15.0423 13.5487ZM14.9482 13.6189L12.2272 15.9333L12.6159 16.3903L15.337 14.076L14.9482 13.6189ZM12.2779 15.8984C12.2906 15.8915 12.3047 15.8877 12.3191 15.8872L12.3405 16.4868C12.4191 16.484 12.4961 16.4629 12.5652 16.4252L12.2779 15.8984ZM12.3191 15.8872C12.3335 15.8867 12.3478 15.8895 12.3609 15.8955L12.112 16.4414C12.1836 16.4741 12.2618 16.4896 12.3405 16.4868L12.3191 15.8872ZM12.3668 15.8983C10.678 15.0831 8.91519 13.3308 8.09736 11.6664L7.55885 11.931C8.43601 13.7161 10.2968 15.5654 12.106 16.4386L12.3668 15.8983ZM8.09753 11.6668C8.10354 11.679 8.10666 11.6925 8.10666 11.7061H7.50666C7.50666 11.7839 7.52445 11.8607 7.55867 11.9306L8.09753 11.6668ZM8.10666 11.7061C8.10666 11.7198 8.10354 11.7332 8.09753 11.7455L7.55867 11.4816C7.52445 11.5515 7.50666 11.6283 7.50666 11.7061H8.10666ZM8.0575 11.8069L10.3796 9.05168L9.92079 8.66502L7.59871 11.4202L8.0575 11.8069ZM10.3825 9.0482C10.4065 9.01875 10.4289 8.98793 10.4493 8.95589L9.94362 8.63297C9.93575 8.64531 9.92715 8.65717 9.91789 8.66851L10.3825 9.0482ZM10.4474 8.9588C10.6151 8.70278 10.7164 8.40902 10.7421 8.10405L10.1443 8.05359C10.1269 8.25927 10.0586 8.45739 9.94551 8.63006L10.4474 8.9588ZM10.7421 8.10405C10.7679 7.79908 10.7173 7.4925 10.5949 7.21199L10.0449 7.45196C10.1275 7.64114 10.1616 7.84791 10.1443 8.05359L10.7421 8.10405ZM10.5939 7.20984L8.27735 2.01244L7.72932 2.25671L10.0459 7.45411L10.5939 7.20984ZM8.27906 2.01635C8.12192 1.64988 7.85017 1.34427 7.50459 1.14537L7.20529 1.66539C7.43836 1.79953 7.62164 2.00565 7.72761 2.2528L8.27906 2.01635ZM7.50459 1.14537C7.15901 0.946469 6.75824 0.865016 6.36243 0.913234L6.43499 1.50883C6.70193 1.47631 6.97222 1.53124 7.20529 1.66539L7.50459 1.14537ZM6.35961 0.913591C4.84716 1.11243 3.45886 1.85517 2.45414 3.00302L2.90562 3.3982C3.81431 2.36006 5.06992 1.6883 6.43781 1.50847L6.35961 0.913591ZM2.45414 3.00302C1.44943 4.15088 0.897038 5.6253 0.900209 7.15075L1.50021 7.14951C1.49734 5.76985 1.99693 4.43635 2.90562 3.3982L2.45414 3.00302ZM0.900208 7.15013C0.900208 15.9451 8.05476 23.0996 16.8497 23.0996V22.4996C8.38613 22.4996 1.50021 15.6137 1.50021 7.15013H0.900208ZM16.8491 23.0996C18.3745 23.1026 19.8488 22.5501 20.9966 21.5454L20.6014 21.0939C19.5633 22.0026 18.2299 22.5023 16.8503 22.4996L16.8491 23.0996ZM20.9966 21.5454C22.1444 20.5408 22.8872 19.1526 23.0862 17.6403L22.4914 17.562C22.3113 18.9298 21.6395 20.1853 20.6014 21.0939L20.9966 21.5454ZM23.0866 17.6375C23.1347 17.2436 23.0544 16.8446 22.8575 16.5L22.3365 16.7976C22.4693 17.03 22.5235 17.2991 22.491 17.5648L23.0866 17.6375ZM22.8575 16.5C22.6607 16.1554 22.3578 15.8835 21.994 15.7248L21.7542 16.2748C21.9995 16.3818 22.2038 16.5652 22.3365 16.7976L22.8575 16.5ZM16.8497 21.1771C9.11571 21.1771 2.8227 14.8841 2.8227 7.15013H2.2227C2.2227 15.2155 8.78434 21.7771 16.8497 21.7771V21.1771ZM2.8227 7.14915C2.81925 6.09123 3.2011 5.06825 3.89688 4.27133L3.44491 3.87671C2.65324 4.78345 2.21878 5.94741 2.2227 7.15111L2.8227 7.14915ZM3.89688 4.27133C4.59267 3.47441 5.5548 2.95807 6.60352 2.81879L6.52452 2.22401C5.33129 2.38249 4.23658 2.96998 3.44491 3.87671L3.89688 4.27133ZM6.56402 2.8214H6.58937V2.2214H6.56402V2.8214ZM6.58377 2.82135C6.56773 2.82105 6.55216 2.81591 6.5391 2.80661L6.88709 2.31783C6.80165 2.25701 6.69983 2.22341 6.59497 2.22145L6.58377 2.82135ZM6.5391 2.80661C6.52603 2.79731 6.51608 2.78428 6.51055 2.76922L7.07375 2.56233C7.03759 2.46388 6.97252 2.37866 6.88709 2.31783L6.5391 2.80661ZM6.51836 2.7884L8.84374 7.98029L9.39133 7.73504L7.06594 2.54315L6.51836 2.7884ZM8.84493 7.98291C8.84014 7.97249 8.83766 7.96116 8.83766 7.94969H9.43766C9.43766 7.87468 9.42145 7.80057 9.39014 7.73241L8.84493 7.98291ZM8.83766 7.94969C8.83766 7.93822 8.84014 7.92688 8.84493 7.91646L9.39014 8.16696C9.42145 8.09881 9.43766 8.02469 9.43766 7.94969H8.83766ZM8.88809 7.84843L6.56161 10.6102L7.02049 10.9968L9.34698 8.23499L8.88809 7.84843ZM6.56587 10.6053C6.53853 10.6363 6.51357 10.6694 6.49121 10.7043L6.99611 11.0284C7.00213 11.019 7.00886 11.0101 7.01623 11.0018L6.56587 10.6053ZM6.49271 10.702C6.31882 10.9674 6.21643 11.2733 6.19544 11.5899L6.79413 11.6296C6.80828 11.416 6.87734 11.2098 6.99461 11.0307L6.49271 10.702ZM6.19544 11.5899C6.17446 11.9065 6.23559 12.2232 6.37292 12.5093L6.91382 12.2497C6.8212 12.0567 6.77997 11.8431 6.79413 11.6296L6.19544 11.5899ZM6.37381 12.5112C7.38117 14.5736 9.44727 16.6234 11.5306 17.6299L11.7916 17.0897C9.82816 16.1411 7.86066 14.1881 6.91293 12.2478L6.37381 12.5112ZM11.5325 17.6308C11.8203 17.7674 12.1385 17.827 12.4562 17.804L12.4127 17.2055C12.1985 17.2211 11.9838 17.1809 11.7898 17.0888L11.5325 17.6308ZM12.4562 17.804C12.7739 17.7809 13.0801 17.6759 13.3451 17.4992L13.0123 17C12.8335 17.1192 12.627 17.19 12.4127 17.2055L12.4562 17.804ZM13.3481 17.4972C13.3747 17.4789 13.4036 17.4578 13.4325 17.4338L13.0484 16.9728C13.0375 16.9818 13.0245 16.9916 13.0093 17.002L13.3481 17.4972ZM13.4348 17.4318L16.1547 15.1174L15.7659 14.6604L13.046 16.9748L13.4348 17.4318ZM16.1023 15.1532C16.0911 15.1592 16.0787 15.1627 16.066 15.1635L16.0286 14.5647C15.955 14.5693 15.8833 14.5898 15.8183 14.6247L16.1023 15.1532ZM16.066 15.1635C16.0533 15.1643 16.0406 15.1624 16.0287 15.1578L16.2447 14.598C16.1759 14.5715 16.1022 14.5601 16.0286 14.5647L16.066 15.1635ZM16.014 15.1517L21.2213 17.4848L21.4667 16.9372L16.2593 14.6041L16.014 15.1517ZM21.2264 17.487C21.2111 17.4805 21.1982 17.4693 21.1895 17.455L21.7029 17.1444C21.6464 17.051 21.562 16.9778 21.4615 16.935L21.2264 17.487ZM21.1895 17.455C21.1809 17.4407 21.177 17.4241 21.1783 17.4074L21.7764 17.4554C21.7851 17.3466 21.7594 17.2378 21.7029 17.1444L21.1895 17.455ZM21.1799 17.3921C21.0414 18.4414 20.5255 19.4042 19.7287 20.1008L20.1237 20.5525C21.0302 19.76 21.6171 18.6645 21.7748 17.4707L21.1799 17.3921ZM19.7287 20.1008C18.932 20.7974 17.9088 21.18 16.8505 21.1771L16.8489 21.7771C18.053 21.7804 19.2171 21.345 20.1237 20.5525L19.7287 20.1008Z" fill="#0B1420" mask="url(#path-1-outside-1_1557_574)"/>
</svg>
