<svg width="20" height="21" viewBox="0 0 20 21" fill="none" xmlns="http://www.w3.org/2000/svg">
<path d="M17.1117 2.94278C15.2589 1.03542 12.6975 0 10.0817 0C4.52316 0 0.0544959 4.52316 0.108992 10.0272C0.108992 11.7711 0.599455 13.4605 1.41689 14.9864L0 20.1635L5.2861 18.8011C6.75749 19.6185 8.39237 20 10.0272 20C15.5313 20 20 15.4768 20 9.97275C20 7.30245 18.9646 4.79564 17.1117 2.94278ZM10.0817 18.3106C8.61035 18.3106 7.13896 17.9292 5.88556 17.1662L5.55858 17.0027L2.39782 17.8202L3.21526 14.7139L2.99728 14.3869C0.599455 10.5177 1.74387 5.39509 5.66757 2.99727C9.59128 0.599455 14.6594 1.74387 17.0572 5.66757C19.455 9.59128 18.3106 14.6594 14.3869 17.0572C13.1335 17.8747 11.6076 18.3106 10.0817 18.3106ZM14.8774 12.2616L14.2779 11.9891C14.2779 11.9891 13.406 11.6076 12.861 11.3351C12.8065 11.3351 12.752 11.2807 12.6975 11.2807C12.5341 11.2807 12.4251 11.3351 12.3161 11.3896C12.3161 11.3896 12.2616 11.4441 11.4986 12.3161C11.4441 12.4251 11.3351 12.4796 11.2262 12.4796H11.1717C11.1172 12.4796 11.0082 12.4251 10.9537 12.3706L10.6812 12.2616C10.0817 11.9891 9.53679 11.6621 9.10082 11.2262C8.99183 11.1172 8.82834 11.0082 8.71935 10.8992C8.33787 10.5177 7.9564 10.0817 7.68392 9.59128L7.62943 9.48229C7.57493 9.42779 7.57493 9.3733 7.52044 9.2643C7.52044 9.15531 7.52044 9.04632 7.57493 8.99183C7.57493 8.99183 7.79292 8.71935 7.9564 8.55586C8.0654 8.44687 8.11989 8.28338 8.22888 8.17439C8.33787 8.0109 8.39237 7.79291 8.33787 7.62943C8.28338 7.35695 7.62943 5.88556 7.46594 5.55858C7.35695 5.39509 7.24796 5.3406 7.08447 5.2861H6.92098C6.81199 5.2861 6.6485 5.2861 6.48501 5.2861C6.37602 5.2861 6.26703 5.3406 6.15804 5.3406L6.10354 5.39509C5.99455 5.44959 5.88556 5.55858 5.77657 5.61308C5.66758 5.72207 5.61308 5.83106 5.50409 5.94005C5.12262 6.43052 4.90463 7.02997 4.90463 7.62943C4.90463 8.06539 5.01362 8.50136 5.17711 8.88283L5.23161 9.04632C5.72207 10.0817 6.37602 11.0082 7.24796 11.8256L7.46594 12.0436C7.62943 12.2071 7.79292 12.3161 7.90191 12.4796C9.04632 13.4605 10.3542 14.1689 11.8256 14.5504C11.9891 14.6049 12.2071 14.6049 12.3706 14.6594C12.5341 14.6594 12.752 14.6594 12.9155 14.6594C13.188 14.6594 13.515 14.5504 13.733 14.4414C13.8965 14.3324 14.0054 14.3324 14.1144 14.2234L14.2234 14.1144C14.3324 14.0054 14.4414 13.951 14.5504 13.842C14.6594 13.733 14.7684 13.624 14.8229 13.515C14.9319 13.297 14.9864 13.0245 15.0409 12.752C15.0409 12.6431 15.0409 12.4796 15.0409 12.3706C15.0409 12.3706 14.9864 12.3161 14.8774 12.2616Z" fill="#0B1420"/>
</svg>
