<svg width="26" height="25" viewBox="0 0 26 25" fill="none" xmlns="http://www.w3.org/2000/svg">
<path d="M7.66667 8.00016H18.3333M7.66667 13.3335H15.6667M21 1.3335C22.0609 1.3335 23.0783 1.75492 23.8284 2.50507C24.5786 3.25521 25 4.27263 25 5.3335V16.0002C25 17.061 24.5786 18.0784 23.8284 18.8286C23.0783 19.5787 22.0609 20.0002 21 20.0002H14.3333L7.66667 24.0002V20.0002H5C3.93913 20.0002 2.92172 19.5787 2.17157 18.8286C1.42143 18.0784 1 17.061 1 16.0002V5.3335C1 4.27263 1.42143 3.25521 2.17157 2.50507C2.92172 1.75492 3.93913 1.3335 5 1.3335H21Z" stroke="white" stroke-width="1.5" stroke-linecap="round" stroke-linejoin="round"/>
</svg>
