<svg width="24" height="24" viewBox="0 0 24 24" fill="none" xmlns="http://www.w3.org/2000/svg">
<path d="M20.0089 3.8511L20.0089 3.85113L20.014 3.85626C22.1244 5.96668 23.3054 8.82278 23.3054 11.8703C23.3054 18.149 18.2068 23.3054 11.9351 23.3054C10.0667 23.3054 8.20555 22.8695 6.53471 21.9413L6.36031 21.8444L6.1671 21.8942L0.709767 23.3007L2.16875 17.9698L2.22139 17.7775L2.12723 17.6017C1.18701 15.8467 0.62973 13.9163 0.62973 11.9351H0.629754L0.629705 11.9302C0.567605 5.65802 5.66073 0.5 12 0.5C14.9833 0.5 17.9011 1.68123 20.0089 3.8511ZM2.37052 21.0836L2.15344 21.9085L2.97925 21.6949L6.5601 20.7688L6.76346 20.8705C8.33574 21.8226 10.1713 22.2946 12 22.2946C13.9058 22.2946 15.8154 21.7515 17.3913 20.7255C22.2994 17.7215 23.7216 11.3817 20.7293 6.48522C17.7269 1.57205 11.3838 0.147364 6.48522 3.14093C1.5729 6.1429 0.145746 12.5519 3.14256 17.3877L3.14694 17.3948L3.15154 17.4017L3.28626 17.6037L2.37052 21.0836ZM14.8872 14.0511C14.9201 14.0141 14.9454 13.9858 14.9647 13.9643C14.9861 13.9545 15.0032 13.9476 15.0203 13.9419C15.0287 13.9391 15.0372 13.9366 15.046 13.9345C15.0578 13.9396 15.0706 13.9449 15.0839 13.9499C15.1011 13.9564 15.1225 13.9637 15.1474 13.9704C15.4706 14.1301 15.868 14.3133 16.1885 14.4583C16.3602 14.5359 16.5113 14.6033 16.6196 14.6513L16.7473 14.7078L16.7819 14.723L16.7908 14.7269L16.791 14.7269L17.4027 15.005V15.0053V15.0063V15.0072V15.0082V15.0091V15.01V15.011V15.0119V15.0128V15.0138V15.0147V15.0157V15.0166V15.0175V15.0185V15.0194V15.0203V15.0213V15.0222V15.0231V15.0241V15.025V15.0259V15.0269V15.0278V15.0287V15.0297V15.0306V15.0315V15.0325V15.0334V15.0343V15.0352V15.0362V15.0371V15.038V15.0389V15.0399V15.0408V15.0417V15.0426V15.0436V15.0445V15.0454V15.0463V15.0472V15.0482V15.0491V15.05V15.0509V15.0518V15.0528V15.0537V15.0546V15.0555V15.0564V15.0573V15.0582V15.0591V15.0601V15.061V15.0619V15.0628V15.0637V15.0646V15.0655V15.0664V15.0673V15.0682V15.0691V15.07V15.0709V15.0718V15.0727V15.0736V15.0745V15.0754V15.0763V15.0772V15.0781V15.079V15.0799V15.0808V15.0817V15.0826V15.0835V15.0844V15.0853V15.0862V15.0871V15.088V15.0888V15.0897V15.0906V15.0915V15.0924V15.0933V15.0941V15.095V15.0959V15.0968V15.0977V15.0985V15.0994V15.1003V15.1012V15.102V15.1029V15.1038V15.1047V15.1055V15.1064V15.1073V15.1081V15.109V15.1099V15.1107V15.1116V15.1124V15.1133V15.1142V15.115V15.1159V15.1167V15.1176V15.1185V15.1193V15.1202V15.121V15.1219V15.1227V15.1236V15.1244V15.1253V15.1261V15.1269V15.1278V15.1286V15.1287C17.3387 15.4465 17.2854 15.6841 17.196 15.8629C17.1754 15.9042 17.1151 15.9723 16.9654 16.1221C16.929 16.1585 16.8913 16.1876 16.8243 16.2378L16.818 16.2426C16.7555 16.2894 16.6664 16.3562 16.5762 16.4464L16.4464 16.5762C16.4457 16.5769 16.4454 16.5773 16.4449 16.5776C16.4444 16.578 16.4438 16.5784 16.4425 16.5792C16.4371 16.5825 16.4262 16.5883 16.3942 16.6026C16.3874 16.6056 16.3797 16.6089 16.3712 16.6126C16.3108 16.6389 16.211 16.6824 16.0988 16.7535C15.8795 16.8592 15.5834 16.9486 15.373 16.9486H15.3718H15.3707H15.3695H15.3684H15.3673H15.3661H15.365H15.3638H15.3627H15.3615H15.3603H15.3592H15.358H15.3569H15.3557H15.3545H15.3534H15.3522H15.351H15.3499H15.3487H15.3475H15.3464H15.3452H15.344H15.3428H15.3417H15.3405H15.3393H15.3381H15.3369H15.3358H15.3346H15.3334H15.3322H15.331H15.3298H15.3286H15.3274H15.3262H15.325H15.3238H15.3226H15.3215H15.3203H15.319H15.3178H15.3166H15.3154H15.3142H15.313H15.3118H15.3106H15.3094H15.3082H15.307H15.3057H15.3045H15.3033H15.3021H15.3009H15.2997H15.2984H15.2972H15.296H15.2948H15.2935H15.2923H15.2911H15.2899H15.2886H15.2874H15.2862H15.2849H15.2837H15.2825H15.2812H15.28H15.2787H15.2775H15.2763H15.275H15.2738H15.2725H15.2713H15.27H15.2688H15.2675H15.2663H15.265H15.2638H15.2625H15.2613H15.26H15.2588H15.2575H15.2563H15.255H15.2538H15.2525H15.2512H15.25H15.2487H15.2475H15.2462H15.2449H15.2437H15.2424H15.2411H15.2399H15.2386H15.2373H15.236H15.2348H15.2335H15.2322H15.231H15.2297H15.2284H15.2271H15.2259H15.2246H15.2233H15.222H15.2207H15.2195H15.2182H15.2169H15.2156H15.2143H15.213H15.2118H15.2105H15.2092H15.2079H15.2066H15.2053H15.204H15.2027H15.2014H15.2002H15.1989H15.1976H15.1963H15.195H15.1937H15.1924H15.1911H15.1898H15.1885H15.1872H15.1859H15.1846H15.1833H15.182H15.1807H15.1794H15.1781H15.1768H15.1755H15.1742H15.1729H15.1716H15.1703H15.169H15.1677H15.1664H15.1651H15.1637H15.1624H15.1611H15.1598H15.1585H15.1572H15.1559H15.1546H15.1533H15.1519H15.1506H15.1493H15.148H15.1467H15.1454H15.1441H15.1428H15.1414H15.1401H15.1388H15.1375H15.1362H15.1349H15.1335H15.1322H15.1309H15.1296H15.1283H15.1269H15.1256H15.1243H15.123H15.1217H15.1203H15.119H15.1177H15.1164H15.115H15.1137H15.1124H15.1111H15.1097H15.1084H15.1071H15.1058H15.1044H15.1031H15.1018H15.1005H15.0991H15.0978H15.0965H15.0952H15.0938H15.0925H15.0912H15.0899H15.0885H15.0872H15.0859H15.0845H15.0832H15.0819H15.0806H15.0792H15.0779H15.0766H15.0752H15.0739H15.0726H15.0713H15.0699H15.0686H15.0673H15.0659H15.0646H15.0633H15.062H15.0606H15.0593H15.058H15.0566H15.0553H15.054H15.0526H15.0513H15.05H15.0486H15.0473H15.046H15.0447H15.0433H15.042H15.0407H15.0393H15.038H15.0367H15.0353H15.034H15.0327H15.0314H15.03H15.0287H15.0274H15.026H15.0247H15.0234H15.0221H15.0207H15.0194H15.0181H15.0167H15.0154H15.0141H15.0128H15.0114H15.0101H15.0088H15.0074H15.0061H15.0048H15.0035H15.0021H15.0008H14.9995H14.9982H14.9968H14.9955H14.9942H14.9929H14.9915H14.9902H14.9889H14.9876H14.9862H14.9849H14.9836H14.9823H14.9809H14.9796H14.9783H14.977H14.9756H14.9743H14.973H14.9717H14.9704H14.969H14.9677H14.9664H14.9651H14.9638H14.9625H14.9611H14.9598H14.9585H14.9572H14.9559H14.9545H14.9532H14.9519H14.9506H14.9493H14.948H14.9467H14.9454H14.944H14.9427H14.9414H14.9401H14.9388H14.9375H14.9362H14.9349H14.9336H14.9322H14.9309H14.9296H14.9283H14.927H14.9257H14.9244H14.9231H14.9218H14.9205H14.9192H14.9179H14.9166H14.9153H14.914H14.9127H14.9114H14.9101H14.9088H14.9075H14.9062H14.9049H14.9036H14.9023H14.901H14.8997H14.8984H14.8971H14.8959H14.8946H14.8933H14.892H14.8907H14.8894H14.8881H14.8868H14.8855H14.8843H14.883H14.8817H14.8804H14.8791H14.8778H14.8766H14.8753H14.874H14.8727H14.8714H14.8702H14.8689H14.8676H14.8663H14.8651H14.8638H14.8625H14.8613H14.86H14.8587H14.8574H14.8562H14.8549H14.8536H14.8524H14.8511H14.8498H14.8486H14.8473H14.8461H14.8448H14.8435H14.8423H14.841H14.8398H14.8385H14.8373H14.836H14.8348H14.8335H14.8323H14.831H14.8298H14.8285H14.8273H14.826H14.8248H14.8235H14.8223H14.821H14.8198H14.8186H14.8173H14.8161H14.8148H14.8136H14.8124H14.8111H14.8099H14.8087H14.8074H14.8062H14.805H14.8038H14.8025H14.8013H14.8001H14.7989H14.7976H14.7964H14.7956C14.6814 16.9188 14.5678 16.9026 14.4861 16.891L14.4707 16.8888C14.3459 16.871 14.2801 16.86 14.2338 16.8446L14.2176 16.8392L14.2012 16.8349C12.5479 16.4063 11.074 15.6146 9.77704 14.5139C9.68819 14.3949 9.59013 14.3006 9.50661 14.2246C9.46845 14.1899 9.43515 14.1605 9.40431 14.1333C9.34616 14.0819 9.29676 14.0383 9.24004 13.9816L8.98058 13.7221L8.97488 13.7164L8.969 13.7109C7.98721 12.7905 7.24882 11.7488 6.69172 10.5805L6.6365 10.4149L6.62993 10.3951L6.62174 10.376C6.4483 9.97133 6.33784 9.51956 6.33784 9.08108C6.33784 8.49579 6.54865 7.89748 6.92956 7.39861C7.00745 7.31717 7.0663 7.23866 7.10878 7.18199L7.11351 7.17568C7.14495 7.13376 7.16811 7.10332 7.18995 7.0775C7.25931 7.03478 7.31955 6.98948 7.36013 6.95897C7.36366 6.95632 7.36704 6.95377 7.37027 6.95135C7.44426 6.89586 7.47171 6.87721 7.48847 6.86884L7.56104 6.83255L7.56473 6.82887C7.59288 6.82272 7.61673 6.81669 7.63476 6.81213C7.63865 6.81114 7.64226 6.81023 7.64559 6.8094C7.70536 6.79445 7.72102 6.79217 7.72149 6.79189H7.72234H7.72348H7.72462H7.72576H7.7269H7.72804H7.72918H7.73032H7.73146H7.7326H7.73374H7.73488H7.73602H7.73716H7.7383H7.73944H7.74058H7.74172H7.74286H7.744H7.74514H7.74628H7.74742H7.74856H7.74969H7.75083H7.75197H7.75311H7.75425H7.75539H7.75653H7.75767H7.75881H7.75994H7.76108H7.76222H7.76336H7.7645H7.76563H7.76677H7.76791H7.76905H7.77018H7.77132H7.77246H7.7736H7.77473H7.77587H7.77701H7.77814H7.77928H7.78041H7.78155H7.78269H7.78382H7.78496H7.78609H7.78723H7.78836H7.7895H7.79063H7.79177H7.7929H7.79403H7.79517H7.7963H7.79743H7.79857H7.7997H7.80083H7.80197H7.8031H7.80423H7.80536H7.80649H7.80763H7.80876H7.80989H7.81102H7.81215H7.81328H7.81441H7.81554H7.81667H7.8178H7.81893H7.82006H7.82118H7.82231H7.82344H7.82457H7.8257H7.82682H7.82795H7.82908H7.8302H7.83133H7.83246H7.83358H7.83471H7.83583H7.83696H7.83808H7.8392H7.84033H7.84145H7.84258H7.8437H7.84482H7.84594H7.84706H7.84819H7.84931H7.85043H7.85155H7.85267H7.85379H7.85491H7.85603H7.85715H7.85826H7.85938H7.8605H7.86162H7.86273H7.86385H7.86497H7.86608H7.8672H7.86831H7.86943H7.87054H7.87166H7.87277H7.87388H7.875H7.87611H7.87722H7.87833H7.87944H7.88055H7.88167H7.88277H7.88388H7.88499H7.8861H7.88721H7.88832H7.88943H7.89053H7.89164H7.89275H7.89385H7.89496H7.89606H7.89716H7.89827H7.89937H7.90048H7.90158H7.90268H7.90378H7.90488H7.90598H7.90708H7.90818H7.90928H7.91038H7.91148H7.91257H7.91367H7.91477H7.91586H7.91696H7.91806H7.91915H7.92024H7.92134H7.92243H7.92352H7.92461H7.92571H7.9268H7.92789H7.92898H7.93007H7.93115H7.93224H7.93333H7.93442H7.9355H7.93659H7.93767H7.93876H7.93984H7.94093H7.94201H7.94309H7.94418H7.94526H7.94634H7.94742H7.9485H7.94958H7.95065H7.95173H7.95281H7.95389H7.95496H7.95604H7.95711H7.95819H7.95926H7.96033H7.9614H7.96248H7.96355H7.96462H7.96569H7.96676H7.96782H7.96889H7.96996H7.97103H7.97209H7.97316H7.97422H7.97529H7.97635H7.97741H7.97847H7.97953H7.98059H7.98165H7.98271H7.98377H7.98483H7.98589H7.98694H7.988H7.98905H7.99011H7.99116H7.99221H7.99327H7.99432H7.99537H7.99642H7.99747H7.99852H7.99956H8.00061H8.00166H8.0027H8.00375H8.00479H8.00584H8.00688H8.00792H8.00896H8.01H8.01104H8.01208H8.01312H8.01415H8.01519H8.01623H8.01726H8.0183H8.01933H8.02036H8.02139H8.02242H8.02345H8.02448H8.02551H8.02654H8.02757H8.02859H8.02962H8.03064H8.03167H8.03269H8.03371H8.03473H8.03575H8.03677H8.03779H8.03881H8.03983H8.04084H8.04186H8.04287H8.04389H8.0449H8.04591H8.04692H8.04793H8.04894H8.04995H8.05096H8.05196H8.05297H8.05397H8.05498H8.05598H8.05698H8.05798H8.05898H8.05998H8.06098H8.06198H8.06298H8.06397H8.06497H8.06596H8.06696H8.06795H8.06894H8.06993H8.07092H8.07191H8.0729H8.07388H8.07487H8.07585H8.07684H8.07782H8.0788H8.07978H8.08076H8.08174H8.08272H8.08369H8.08467H8.08565H8.08662H8.08759H8.08856H8.08954H8.09051H8.09148H8.09244H8.09341H8.09438H8.09534H8.09631H8.09727H8.09823H8.09919H8.10015H8.10111H8.10207H8.10303H8.10398H8.10494H8.10589H8.10684H8.1078H8.10875H8.1097H8.11065H8.11159H8.11254H8.11348H8.11443H8.11537H8.11631H8.11726H8.1182H8.11913H8.12007H8.12101H8.12195H8.12288H8.12381H8.12475H8.12568H8.12661H8.12754H8.12846H8.12939H8.13032H8.13124H8.13217H8.13309H8.13401H8.13493H8.13585H8.13677H8.13768H8.1386H8.13951H8.14043H8.14134H8.14225H8.14316H8.14407H8.14498H8.14588H8.14679H8.14769H8.1486H8.1495H8.1504H8.1513H8.1522H8.15309H8.15399H8.15488H8.15578H8.15667H8.15756H8.15845H8.15934H8.16023H8.16111H8.162H8.16288H8.16376H8.16465H8.16553H8.16641H8.16728H8.16816H8.16903H8.16991H8.17078H8.17165H8.17252H8.17339H8.17426H8.17513H8.17599H8.17686H8.17772H8.17858H8.17944H8.1803H8.18116H8.18201H8.18287H8.18372H8.18457H8.18543H8.18628H8.18712H8.18797H8.18882H8.18966H8.19051H8.19135H8.19219H8.19303H8.19387H8.1947H8.19554H8.19637H8.1972H8.19804H8.19887H8.19969H8.20052H8.20135H8.20217H8.203H8.20382H8.20464H8.20546H8.20628H8.20709H8.20791H8.20872H8.20953H8.21034H8.21115H8.21196H8.21277H8.21357H8.21438H8.21518H8.21598H8.21678H8.21758H8.21838H8.21917H8.21997H8.22076H8.22155H8.22234H8.22313H8.22392H8.2247H8.22549H8.22627H8.22705H8.22783H8.22861H8.22939H8.23016H8.23094H8.23171H8.23248H8.23325H8.23402H8.23479H8.23555H8.23631H8.23708H8.23784H8.34576C8.37929 6.80518 8.39574 6.8143 8.40643 6.82143C8.41472 6.82695 8.43006 6.83791 8.45476 6.87118C8.55486 7.07602 8.78028 7.57268 8.99485 8.07078C9.10735 8.33194 9.21456 8.58817 9.29703 8.79729C9.33834 8.90204 9.37224 8.99193 9.39712 9.06309C9.40956 9.09863 9.41894 9.12723 9.42559 9.14919C9.43122 9.16778 9.4335 9.17704 9.43399 9.17907C9.43411 9.17953 9.43413 9.17961 9.43408 9.17936L9.44014 9.20966L9.44913 9.23663C9.4489 9.23668 9.45288 9.257 9.44353 9.30064C9.4349 9.34093 9.41811 9.38472 9.39557 9.42465C9.31002 9.52163 9.24861 9.62437 9.21106 9.68719C9.20849 9.69149 9.20603 9.6956 9.20369 9.69951C9.14882 9.79096 9.13046 9.81649 9.11672 9.83023C9.00415 9.9428 8.87971 10.0855 8.78858 10.1932C8.74183 10.2485 8.70152 10.2973 8.67282 10.3324L8.63888 10.3741L8.63762 10.3756C8.51056 10.518 8.47689 10.683 8.46449 10.7698C8.45119 10.8629 8.45129 10.9594 8.45134 11.0168C8.45135 11.0204 8.45135 11.0238 8.45135 11.027V11.1451L8.50414 11.2506C8.51738 11.2771 8.52244 11.2904 8.53201 11.3155C8.53691 11.3283 8.543 11.3443 8.55198 11.3668C8.57202 11.4169 8.60329 11.4879 8.66038 11.5631L8.69873 11.6398L8.70359 11.6495L8.70887 11.659C9.06603 12.3019 9.5573 12.859 10.0248 13.3265C10.1096 13.4113 10.2094 13.4911 10.284 13.5508L10.2931 13.558C10.3798 13.6274 10.4374 13.6743 10.4789 13.7157C11.0557 14.2926 11.7629 14.7117 12.5066 15.0498L12.5171 15.0545L12.5278 15.0588L12.7787 15.1592C12.8353 15.2015 12.8934 15.2354 12.944 15.2607C13.0078 15.2927 13.1435 15.3541 13.2973 15.3541H13.3622C13.6324 15.3541 13.9263 15.2264 14.0962 14.9506C14.5285 14.4566 14.762 14.192 14.8872 14.0511Z" stroke="white"/>
</svg>
