<svg xmlns="http://www.w3.org/2000/svg" width="24" height="24" viewBox="0 0 24 24">
  <g id="disc" transform="translate(-100 -2841)">
    <rect id="Rectangle_1487" data-name="Rectangle 1487" width="24" height="24" transform="translate(100 2841)" fill="#810b0b" opacity="0"/>
    <g id="disc-f" transform="translate(104.559 2843.049)">
      <g id="Vrstva_x0020_1_3_" transform="translate(0 0)">
        <path id="Path_3291" data-name="Path 3291" d="M102.385,0h6.66l5.636,5.883V17.308A2.588,2.588,0,0,1,112.1,19.9h-9.711A2.593,2.593,0,0,1,99.8,17.308V2.586A2.591,2.591,0,0,1,102.385,0Z" transform="translate(-99.799 0)" fill="#008bf5"/>
        <g id="Group_2775" data-name="Group 2775" transform="translate(4.229 0)">
          <path id="Path_3292" data-name="Path 3292" d="M467.218,0V5.832h5.643Z" transform="translate(-462.208)" fill="#fff" opacity="0.302"/>
          <path id="Path_3293" data-name="Path 3293" d="M273.472,366.124a3.215,3.215,0,1,0,0,4.547A3.213,3.213,0,0,0,273.472,366.124Zm-4.024,4.518a2.275,2.275,0,0,1-.494-.494c.421-.32.85-.632,1.271-.951a.661.661,0,0,0,.174.174C270.08,369.792,269.768,370.22,269.448,370.642Zm2.4-1.591a.924.924,0,1,1-1.307-1.307.924.924,0,0,1,1.307,1.307Zm.312-1.453a.731.731,0,0,0-.167-.167c.312-.429.632-.85.944-1.278a2.521,2.521,0,0,1,.5.5C273.014,366.967,272.593,367.286,272.164,367.6Z" transform="translate(-267.983 -356)" fill="#fff"/>
        </g>
      </g>
    </g>
  </g>
</svg>
