<svg xmlns="http://www.w3.org/2000/svg" width="24" height="24" viewBox="0 0 24 24">
  <g id="doc" transform="translate(-224 -2841)">
    <rect id="Rectangle_1487" data-name="Rectangle 1487" width="24" height="24" transform="translate(224 2841)" fill="#810b0b" opacity="0"/>
    <g id="doc-f" transform="translate(228.545 2843.033)">
      <g id="Vrstva_x0020_1_4_" transform="translate(0 0)">
        <path id="Path_3294" data-name="Path 3294" d="M102.352,0h6.67l5.646,5.89V17.34a2.593,2.593,0,0,1-2.593,2.593h-9.722a2.593,2.593,0,0,1-2.593-2.593V2.593A2.593,2.593,0,0,1,102.352,0Z" transform="translate(-99.759 0)" fill="#0263d1"/>
        <g id="Group_2776" data-name="Group 2776" transform="translate(2.408 0)">
          <path id="Path_3295" data-name="Path 3295" d="M467.212,0V5.842h5.654Z" transform="translate(-460.365)" fill="#fff" opacity="0.302"/>
          <path id="Path_3296" data-name="Path 3296" d="M195.356,435.554v-3.3h1.169a2.131,2.131,0,0,1,.653.1,1.8,1.8,0,0,1,.548.293,1.309,1.309,0,0,1,.387.516,2,2,0,0,1,0,1.483,1.309,1.309,0,0,1-.387.516,1.8,1.8,0,0,1-.548.293,2.13,2.13,0,0,1-.653.1Zm.825-.717h.245a1.415,1.415,0,0,0,.365-.046,1.045,1.045,0,0,0,.312-.15.654.654,0,0,0,.226-.29,1.075,1.075,0,0,0,.083-.446,1.1,1.1,0,0,0-.083-.449.661.661,0,0,0-.226-.288.985.985,0,0,0-.312-.15,1.415,1.415,0,0,0-.365-.046h-.245Zm4.076.755a1.688,1.688,0,0,1-1.233-.481,1.74,1.74,0,0,1,0-2.413,1.687,1.687,0,0,1,1.233-.481,1.67,1.67,0,0,1,1.22.481,1.747,1.747,0,0,1,0,2.413A1.67,1.67,0,0,1,200.257,435.591Zm-.634-.992a.855.855,0,0,0,1.255,0,1.113,1.113,0,0,0,0-1.392.855.855,0,0,0-1.255,0,1.1,1.1,0,0,0,0,1.392Zm4.3.992a1.692,1.692,0,0,1-1.2-.446,1.839,1.839,0,0,1,.005-2.48,1.7,1.7,0,0,1,1.193-.449,1.677,1.677,0,0,1,1.053.317,1.185,1.185,0,0,1,.473.838l-.833.169a.746.746,0,0,0-.247-.441.675.675,0,0,0-.451-.167.774.774,0,0,0-.591.253,1.2,1.2,0,0,0,0,1.432.769.769,0,0,0,.594.255.685.685,0,0,0,.441-.145.637.637,0,0,0,.228-.387l.852.193a1.253,1.253,0,0,1-.519.777A1.7,1.7,0,0,1,203.923,435.591Z" transform="translate(-195.356 -421.33)" fill="#fff"/>
        </g>
      </g>
    </g>
  </g>
</svg>
