<svg xmlns="http://www.w3.org/2000/svg" width="24" height="24" viewBox="0 0 24 24">
  <g id="excel" transform="translate(-348 -2841)">
    <rect id="Rectangle_1487" data-name="Rectangle 1487" width="24" height="24" transform="translate(348 2841)" fill="#810b0b" opacity="0"/>
    <g id="_006-excel" data-name="006-excel" transform="translate(352.523 2843.003)">
      <g id="Vrstva_x0020_1_5_" transform="translate(0)">
        <path id="Path_3297" data-name="Path 3297" d="M102.331,0h6.687l5.664,5.909V17.39a2.6,2.6,0,0,1-2.6,2.6h-9.747a2.6,2.6,0,0,1-2.6-2.6V2.6A2.6,2.6,0,0,1,102.331,0Z" transform="translate(-99.727)" fill="#00733b"/>
        <g id="Group_2777" data-name="Group 2777" transform="translate(4.405)">
          <path id="Path_3298" data-name="Path 3298" d="M467.176,0V5.859h5.673Z" transform="translate(-462.298)" fill="#fff" opacity="0.302"/>
          <path id="Path_3299" data-name="Path 3299" d="M274.081,382.294h2.655V383.3h-2.655Zm3.483-5.14h2.663v1h-2.663Zm-3.483,0h2.655v1h-2.655Zm3.483,1.691h2.663v1.006h-2.663Zm-3.483,0h2.655v1.006h-2.655Zm3.483,1.758h2.663v1.006h-2.663Zm-3.483,0h2.655v1.006h-2.655Zm3.483,1.691h2.663V383.3h-2.663Z" transform="translate(-274.081 -367.626)" fill="#fff"/>
        </g>
      </g>
    </g>
  </g>
</svg>
