<svg xmlns="http://www.w3.org/2000/svg" width="24" height="24" viewBox="0 0 24 24">
  <g id="file" transform="translate(-348 -716)">
    <rect id="Rectangle_1292" data-name="Rectangle 1292" width="24" height="24" transform="translate(348 716)" fill="#fff" opacity="0"/>
    <path id="file-f" d="M18.5,20a.5.5,0,0,1-.5.5H6a.5.5,0,0,1-.5-.5V4A.5.5,0,0,1,6,3.5h6V8a2,2,0,0,0,2,2h4.5Zm-5-15.379L17.378,8.5H14a.5.5,0,0,1-.5-.5Zm5.914,3.793L13.585,2.586c-.026-.026-.058-.046-.085-.07a2.072,2.072,0,0,0-.219-.18c-.04-.027-.086-.045-.128-.068a2.243,2.243,0,0,0-.216-.116,1.977,1.977,0,0,0-.624-.138c-.047,0-.093-.014-.141-.014H6A2,2,0,0,0,4,4V20a2,2,0,0,0,2,2H18a2,2,0,0,0,2-2V9.828A2,2,0,0,0,19.414,8.414Z" transform="translate(348 716)" fill="#212121"/>
  </g>
</svg>
