<svg xmlns="http://www.w3.org/2000/svg" width="24" height="24" viewBox="0 0 24 24">
  <g id="mail" transform="translate(-472 -2965)">
    <rect id="Rectangle_1487" data-name="Rectangle 1487" width="24" height="24" transform="translate(472 2965)" fill="#810b0b" opacity="0"/>
    <g id="mail-f" transform="translate(476.518 2966.996)">
      <g id="Vrstva_x0020_1_26_" transform="translate(-0.001 0)">
        <path id="Path_3360" data-name="Path 3360" d="M102.362,0h6.695l5.667,5.912V17.405a2.6,2.6,0,0,1-2.6,2.6h-9.759a2.6,2.6,0,0,1-2.6-2.6V2.6a2.6,2.6,0,0,1,2.6-2.6Z" transform="translate(-99.759 0)" fill="#eb3023"/>
        <g id="Group_2798" data-name="Group 2798" transform="translate(4.545 0)">
          <path id="Path_3361" data-name="Path 3361" d="M467.212,0V5.864h5.675Z" transform="translate(-462.468)" fill="#fff" opacity="0.302"/>
          <path id="Path_3362" data-name="Path 3362" d="M282.946,379.063h.858v1.6a.239.239,0,0,0,.27.27.362.362,0,0,0,.316-.24,1.409,1.409,0,0,0,.127-.653,1.545,1.545,0,0,0-.529-1.246,2.079,2.079,0,0,0-1.384-.445,2.208,2.208,0,0,0-1.57.561,1.9,1.9,0,0,0-.6,1.456,2.013,2.013,0,0,0,.593,1.51,2.113,2.113,0,0,0,1.546.58,3.572,3.572,0,0,0,1.734-.475l.3.89a5.422,5.422,0,0,1-2.1.456,2.882,2.882,0,0,1-2.97-2.961,2.718,2.718,0,0,1,.874-2.066,3.071,3.071,0,0,1,2.193-.82,2.871,2.871,0,0,1,2.007.728,2.369,2.369,0,0,1,.8,1.831,1.912,1.912,0,0,1-.388,1.27,1.27,1.27,0,0,1-1.02.464.919.919,0,0,1-.882-.429.887.887,0,0,1-.8.367,1.187,1.187,0,0,1-.909-.364,1.365,1.365,0,0,1-.343-.982,1.414,1.414,0,0,1,.329-.984,1.124,1.124,0,0,1,.879-.361.867.867,0,0,1,.669.248Zm-.89,1.753a.535.535,0,0,0,.785,0,.661.661,0,0,0,.148-.45.674.674,0,0,0-.148-.453.5.5,0,0,0-.391-.17.507.507,0,0,0-.394.173.668.668,0,0,0-.151.45A.656.656,0,0,0,282.056,380.817Z" transform="translate(-279.537 -367.94)" fill="#fff"/>
        </g>
      </g>
    </g>
  </g>
</svg>
