<svg xmlns="http://www.w3.org/2000/svg" width="24" height="24" viewBox="0 0 24 24">
  <g id="music" transform="translate(-844 -2841)">
    <rect id="Rectangle_1487" data-name="Rectangle 1487" width="24" height="24" transform="translate(844 2841)" fill="#810b0b" opacity="0"/>
    <g id="music-f" transform="translate(848.523 2843.002)">
      <g id="Vrstva_x0020_1_14_" transform="translate(0 0)">
        <path id="Path_3324" data-name="Path 3324" d="M102.353,0h6.688l5.667,5.907V17.4a2.6,2.6,0,0,1-2.6,2.6h-9.755a2.6,2.6,0,0,1-2.6-2.6V2.6a2.6,2.6,0,0,1,2.6-2.6Z" transform="translate(-99.753 0)" fill="#90c"/>
        <g id="Group_2786" data-name="Group 2786" transform="translate(5.348 0)">
          <path id="Path_3325" data-name="Path 3325" d="M467.136,0V5.858h5.673Z" transform="translate(-463.202)" fill="#fff" opacity="0.302"/>
          <path id="Path_3326" data-name="Path 3326" d="M315.338,369.1a2.566,2.566,0,0,0,.344-1.125,1.614,1.614,0,0,0-.166-.781,2.245,2.245,0,0,0-.854-.842,2.407,2.407,0,0,1-.627-.529l-.031-.037a1.137,1.137,0,0,1-.221-.4.235.235,0,0,0-.467.037v4.217a1.344,1.344,0,0,0-.713-.2.971.971,0,1,0,1.186.947v-2.76a1.716,1.716,0,0,1,1.094,1.291.978.978,0,0,1-.092.129.242.242,0,0,0,.025.338.234.234,0,0,0,.332-.025,1.461,1.461,0,0,0,.172-.246Z" transform="translate(-311.422 -355.955)" fill="#fff"/>
        </g>
      </g>
    </g>
  </g>
</svg>
