<svg xmlns="http://www.w3.org/2000/svg" width="24" height="24" viewBox="0 0 24 24">
  <g id="pdf" transform="translate(-968 -2841)">
    <rect id="Rectangle_1487" data-name="Rectangle 1487" width="24" height="24" transform="translate(968 2841)" fill="#810b0b" opacity="0"/>
    <g id="pdf-f" transform="translate(972.523 2843.003)">
      <g id="Vrstva_x0020_1_15_" transform="translate(0 0)">
        <path id="Path_3327" data-name="Path 3327" d="M102.376,0h6.685l5.666,5.906V17.392a2.6,2.6,0,0,1-2.6,2.6h-9.753a2.6,2.6,0,0,1-2.6-2.6V2.6a2.6,2.6,0,0,1,2.6-2.6Z" transform="translate(-99.773 0)" fill="#e5252a"/>
        <g id="Group_2787" data-name="Group 2787" transform="translate(2.893 0)">
          <path id="Path_3328" data-name="Path 3328" d="M467.219,0V5.861h5.671Z" transform="translate(-460.829)" fill="#fff" opacity="0.302"/>
          <path id="Path_3329" data-name="Path 3329" d="M214.278,449.611v-3.652h1.554a1.288,1.288,0,0,1,.919.32,1.219,1.219,0,0,1,0,1.7,1.288,1.288,0,0,1-.919.32h-.62v1.314Zm.934-2.108h.515a.461.461,0,0,0,.325-.1.386.386,0,0,0,0-.55.46.46,0,0,0-.325-.1h-.515Zm2.268,2.108v-3.652h1.294a2.26,2.26,0,0,1,.719.11,1.933,1.933,0,0,1,.61.325,1.434,1.434,0,0,1,.43.57,2.258,2.258,0,0,1,0,1.644,1.434,1.434,0,0,1-.43.57,1.934,1.934,0,0,1-.61.325,2.261,2.261,0,0,1-.719.11Zm.914-.794h.27a1.5,1.5,0,0,0,.4-.05,1.215,1.215,0,0,0,.345-.165.741.741,0,0,0,.25-.32,1.419,1.419,0,0,0,0-.994.741.741,0,0,0-.25-.32,1.212,1.212,0,0,0-.345-.165,1.5,1.5,0,0,0-.4-.05h-.27Zm2.763.794v-3.652h2.6v.794h-1.664v.585h1.329v.789h-1.329v1.484Z" transform="translate(-214.278 -434.692)" fill="#fff"/>
        </g>
      </g>
    </g>
  </g>
</svg>
