<svg xmlns="http://www.w3.org/2000/svg" width="24" height="24" viewBox="0 0 24 24">
  <g id="report" transform="translate(-1092 -2841)">
    <rect id="Rectangle_1487" data-name="Rectangle 1487" width="24" height="24" transform="translate(1092 2841)" fill="#810b0b" opacity="0"/>
    <g id="report-f" transform="translate(1096.523 2843.001)">
      <g id="Vrstva_x0020_1_17_" transform="translate(0 0)">
        <path id="Path_3333" data-name="Path 3333" d="M102.353,0h6.688l5.668,5.908V17.4a2.605,2.605,0,0,1-2.6,2.6h-9.756a2.6,2.6,0,0,1-2.6-2.6V2.6a2.6,2.6,0,0,1,2.6-2.6Z" transform="translate(-99.753 0)" fill="#e03303"/>
        <g id="Group_2789" data-name="Group 2789" transform="translate(4.555 0)">
          <path id="Path_3334" data-name="Path 3334" d="M467.136,0V5.859h5.674Z" transform="translate(-462.408)" fill="#fff" opacity="0.302"/>
          <path id="Path_3335" data-name="Path 3335" d="M282.7,371.556a2.8,2.8,0,1,0,2.932,2.938.128.128,0,0,0-.129-.135h-2.539a.135.135,0,0,1-.135-.129v-2.545A.126.126,0,0,0,282.7,371.556Zm.676-.412v2.539a.126.126,0,0,0,.129.129h2.545a.131.131,0,0,0,.129-.135,2.8,2.8,0,0,0-2.668-2.662A.128.128,0,0,0,283.38,371.144Z" transform="translate(-280.03 -361.64)" fill="#fff"/>
        </g>
      </g>
    </g>
  </g>
</svg>
