<svg xmlns="http://www.w3.org/2000/svg" width="24" height="24" viewBox="0 0 24 24">
  <g id="text" transform="translate(-348 -2965)">
    <rect id="Rectangle_1487" data-name="Rectangle 1487" width="24" height="24" transform="translate(348 2965)" fill="#810b0b" opacity="0"/>
    <g id="text-f" transform="translate(352.518 2966.996)">
      <g id="Vrstva_x0020_1_25_" transform="translate(0.001 0)">
        <path id="Path_3357" data-name="Path 3357" d="M102.378,0h6.689l5.669,5.909V17.4a2.6,2.6,0,0,1-2.6,2.6h-9.759a2.6,2.6,0,0,1-2.6-2.6V2.6a2.6,2.6,0,0,1,2.6-2.6Z" transform="translate(-99.773 0)" fill="#251d36"/>
        <g id="Group_2797" data-name="Group 2797" transform="translate(2.74 0)">
          <path id="Path_3358" data-name="Path 3358" d="M467.219,0V5.864h5.674Z" transform="translate(-460.67)" fill="#fff" opacity="0.302"/>
          <path id="Path_3359" data-name="Path 3359" d="M209.187,437.728v-2.845h-1.04v-.79h3v.79h-1.035v2.845Zm5.345,0h-.975l-.665-1.115-.665,1.115h-.98l1.155-1.94-1.01-1.695h.975l.525.88.52-.88h.98l-1.01,1.7Zm1.13,0v-2.845h-1.035v-.79h3v.79h-1.04v2.845Z" transform="translate(-208.147 -423.119)" fill="#fff"/>
        </g>
      </g>
    </g>
  </g>
</svg>
