<svg xmlns="http://www.w3.org/2000/svg" width="24" height="24" viewBox="0 0 24 24">
  <g id="video" transform="translate(-720 -2841)">
    <rect id="Rectangle_1487" data-name="Rectangle 1487" width="24" height="24" transform="translate(720 2841)" fill="#810b0b" opacity="0"/>
    <g id="video-f" transform="translate(725 2843)">
      <g id="Vrstva_x0020_1_13_" transform="translate(0 0)">
        <path id="Path_3321" data-name="Path 3321" d="M102.377,0h6.686l5.667,5.907V17.4a2.6,2.6,0,0,1-2.6,2.6h-9.755a2.6,2.6,0,0,1-2.6-2.6V2.6a2.6,2.6,0,0,1,2.6-2.6Z" transform="translate(-99.773 0)" fill="#fa0000"/>
        <g id="Group_2785" data-name="Group 2785" transform="translate(4.248 0)">
          <path id="Path_3322" data-name="Path 3322" d="M467.219,0V5.862h5.672Z" transform="translate(-462.182)" fill="#fff" opacity="0.302"/>
          <path id="Path_3323" data-name="Path 3323" d="M271.105,359.141a3.231,3.231,0,1,0,3.228,3.233A3.235,3.235,0,0,0,271.105,359.141Zm1.359,3.333a.265.265,0,0,1-.1.1l-1.844.924a.232.232,0,0,1-.31-.1.182.182,0,0,1-.025-.1V361.45a.229.229,0,0,1,.23-.23.2.2,0,0,1,.1.025l1.844.92A.233.233,0,0,1,272.465,362.474Z" transform="translate(-267.872 -350.066)" fill="#fff"/>
        </g>
      </g>
    </g>
  </g>
</svg>
