<svg xmlns="http://www.w3.org/2000/svg" width="24" height="24" viewBox="0 0 24 24">
  <g id="word" transform="translate(-720 -2965)">
    <rect id="Rectangle_1487" data-name="Rectangle 1487" width="24" height="24" transform="translate(720 2965)" fill="#810b0b" opacity="0"/>
    <g id="word-f" transform="translate(724.518 2966.996)">
      <g id="Vrstva_x0020_1_29_" transform="translate(0)">
        <path id="Path_3369" data-name="Path 3369" d="M102.315,0h6.7l5.669,5.911v11.5a2.6,2.6,0,0,1-2.605,2.6h-9.76a2.6,2.6,0,0,1-2.6-2.6V2.6a2.6,2.6,0,0,1,2.6-2.6Z" transform="translate(-99.713)" fill="#0263d1"/>
        <g id="Group_2801" data-name="Group 2801" transform="translate(4.403)">
          <path id="Path_3370" data-name="Path 3370" d="M467.2,0V5.865h5.676Z" transform="translate(-462.313)" fill="#fff" opacity="0.302"/>
          <path id="Path_3371" data-name="Path 3371" d="M279.584,377.957h-5.276a.439.439,0,1,1,0-.877h5.276a.439.439,0,0,1,0,.877Zm-1.759,5.276h-3.518a.439.439,0,1,1,0-.877h3.518a.439.439,0,0,1,0,.877Zm1.759-1.759h-5.276a.439.439,0,1,1,0-.877h5.276a.439.439,0,0,1,0,.877Zm0-1.759h-5.276a.439.439,0,1,1,0-.877h5.276a.439.439,0,0,1,0,.877Z" transform="translate(-273.865 -367.547)" fill="#fff"/>
        </g>
      </g>
    </g>
  </g>
</svg>
