<svg xmlns="http://www.w3.org/2000/svg" width="24" height="24" viewBox="0 0 24 24">
  <g id="xls" transform="translate(-844 -2965)">
    <rect id="Rectangle_1487" data-name="Rectangle 1487" width="24" height="24" transform="translate(844 2965)" fill="#810b0b" opacity="0"/>
    <g id="xls-f" transform="translate(848.52 2966.996)">
      <g id="Vrstva_x0020_1_30_" transform="translate(0 0)">
        <path id="Path_3372" data-name="Path 3372" d="M102.4,0h6.7l5.667,5.915V17.4a2.6,2.6,0,0,1-2.6,2.607H102.4A2.607,2.607,0,0,1,99.8,17.4V2.6A2.605,2.605,0,0,1,102.4,0Z" transform="translate(-99.799 0)" fill="#00733b"/>
        <g id="Group_2802" data-name="Group 2802" transform="translate(2.943 0)">
          <path id="Path_3373" data-name="Path 3373" d="M467.218,0V5.864h5.674Z" transform="translate(-460.872)" fill="#fff" opacity="0.302"/>
          <path id="Path_3374" data-name="Path 3374" d="M219.485,434.641h-.971l-.665-1.117-.665,1.117h-.979l1.154-1.942-1.015-1.687h.978l.526.876.518-.876h.978l-1.008,1.694Zm.343,0v-3.629h.927v2.84h1.577v.789Zm4.038.044a1.484,1.484,0,0,1-.964-.343,1.134,1.134,0,0,1-.445-.825l.8-.234a.721.721,0,0,0,.219.445.644.644,0,0,0,.438.175.58.58,0,0,0,.329-.088.281.281,0,0,0,.124-.234.267.267,0,0,0-.1-.2.93.93,0,0,0-.256-.131,3.372,3.372,0,0,0-.351-.1,2.441,2.441,0,0,1-.387-.139,1.363,1.363,0,0,1-.351-.2.76.76,0,0,1-.256-.321,1.058,1.058,0,0,1-.1-.475.9.9,0,0,1,.38-.745,1.422,1.422,0,0,1,.92-.3,1.706,1.706,0,0,1,.935.256,1.115,1.115,0,0,1,.5.679l-.832.351a.727.727,0,0,0-.212-.372.583.583,0,0,0-.387-.139.519.519,0,0,0-.277.073.214.214,0,0,0-.095.19.224.224,0,0,0,.131.19,1.22,1.22,0,0,0,.336.1,2.87,2.87,0,0,1,.431.11,2.665,2.665,0,0,1,.438.2.874.874,0,0,1,.329.358,1.181,1.181,0,0,1,.139.591.99.99,0,0,1-.394.818A1.632,1.632,0,0,1,223.866,434.685Z" transform="translate(-216.206 -420.073)" fill="#fff"/>
        </g>
      </g>
    </g>
  </g>
</svg>
