<svg xmlns="http://www.w3.org/2000/svg" width="24" height="24" viewBox="0 0 24 24">
  <g id="zip" transform="translate(-472 -2841)">
    <rect id="Rectangle_1487" data-name="Rectangle 1487" width="24" height="24" transform="translate(472 2841)" fill="#810b0b" opacity="0"/>
    <g id="zip-f" transform="translate(476.518 2842.996)">
      <g id="Vrstva_x0020_1_31_" transform="translate(-0.001 0)">
        <path id="Path_3375" data-name="Path 3375" d="M102.355,0h6.692l5.671,5.911v11.5a2.607,2.607,0,0,1-2.6,2.6h-9.761a2.6,2.6,0,0,1-2.6-2.6V2.6a2.6,2.6,0,0,1,2.6-2.6Z" transform="translate(-99.753 0)" fill="#ffb11f"/>
        <g id="Group_2803" data-name="Group 2803" transform="translate(3.241 0)">
          <path id="Path_3376" data-name="Path 3376" d="M467.136,0V5.862h5.677Z" transform="translate(-461.09)" fill="#fff" opacity="0.302"/>
          <path id="Path_3377" data-name="Path 3377" d="M230.242,65.414V64.048a.263.263,0,0,0-.264-.264h-.738a.263.263,0,0,0-.264.264v1.365l-.412,1.206a1.105,1.105,0,1,0,2.091,0Zm-.172,1.894a.59.59,0,0,1-.929,0,.572.572,0,0,1-.074-.517l.135-.406h.806l.141.406A.574.574,0,0,1,230.069,67.308Zm-2.1-10.856v.75a.263.263,0,0,0,.264.264h1v1.119h-1a.263.263,0,0,0-.264.264v.578a.268.268,0,0,0,.264.271h1v1.113h-1a.263.263,0,0,0-.264.264v.584a.263.263,0,0,0,.264.264h1v.849a.268.268,0,0,0,.271.264h1.47a.266.266,0,0,0,.264-.264v-.584a.271.271,0,0,0-.264-.264h-1.009V60.813h1.009a.266.266,0,0,0,.264-.264v-.584a.266.266,0,0,0-.264-.264h-1.009V58.586h1.009a.272.272,0,0,0,.264-.271v-.578a.272.272,0,0,0-.264-.271h-1.009V56.446Z" transform="translate(-227.972 -55.019)" fill="#fff"/>
        </g>
      </g>
    </g>
  </g>
</svg>
