<svg version="1.2" xmlns="http://www.w3.org/2000/svg" viewBox="0 0 1152 720" width="1152" height="720">
	<title>TechCreants_Final</title>
	<style>
		.s0 { fill: #28b9f2 } 
		.s1 { fill: #0a5deb } 
		.s2 { fill: #cc29cf } 
		.s3 { fill: #000000 } 
		.s4 { fill: #de1fa6 } 
	</style>
	<g id="Layer 1">
		<g id="&lt;Group&gt;">
			<g id="&lt;Group&gt;">
				<g id="&lt;Group&gt;">
					<path id="&lt;Path&gt;" class="s0" d="m614.9 411.3c-72.7 18.9-148-24.3-165.9-97.2-17.8-72.1 29.2-142.5 98.3-151.6 41.7-5.6 82.2 7.9 109.4 52.6 10.6-4.3 20.2-10.8 27.5-20.2q0.4-0.5 0.8-0.9c-35.5-52.7-96.5-71.9-158.2-55.8-85.9 22.4-126 103-105.1 183 20.9 80 102.5 127.9 181.6 107.3 51.4-13.4 89.8-52.8 104.3-100.6-15.1 39.7-48.5 71.8-92.7 83.4z"/>
				</g>
				<g id="&lt;Group&gt;">
					<g id="&lt;Group&gt;">
						<path id="&lt;Path&gt;" class="s1" d="m692.7 356.4c-17.8 26.2-44.8 46.2-77.8 54.9-72.7 18.9-148-24.3-165.9-97.2-17.8-72.1 29.2-142.5 98.3-151.6 41.7-5.6 82.2 7.9 109.4 52.6 6.2-2.6 12.1-5.9 17.4-10.1l-0.8-3c0 0-47-64.9-124.7-53-77.6 12-128.7 71.4-116.6 148.1 13.6 86.8 78.3 122.3 116.9 126.4 33.7 3.7 105.1 0.9 143.8-67.1z"/>
					</g>
				</g>
				<g id="&lt;Group&gt;">
					<g id="&lt;Group&gt;">
						<g id="&lt;Group&gt;">
							<path id="&lt;Path&gt;" class="s2" d="m490 380.7c16.5 0 33.8 1.9 42.8-4.5 22.7-16.2 19.9-41.9 19.7-48.8-0.2-10-0.7-30.6-1.7-67.5-0.9-36.9 4-58.8 4-58.8 0 0-47 3-45.5 60.2 1.4 57.2 0 63.1 0.4 76.8 0.3 13.7-5.7 38.8-19.7 42.6z"/>
						</g>
						<g id="&lt;Group&gt;">
							<path id="&lt;Path&gt;" class="s1" d="m552.5 327.4c0.2 6.9 3 32.6-19.7 48.8-8.2 5.8-23.3 4.8-38.5 4.6 43.6-9.7 40-40.7 39.7-52.1l-1.6-65.1c-1.3-50.1 22.4-62.5 22.4-62.5 0 0-4.9 21.9-4 58.8z"/>
						</g>
					</g>
				</g>
				<g id="&lt;Group&gt;">
					<g id="&lt;Group&gt;" style="opacity: .3">
						<g id="&lt;Group&gt;">
							<path id="&lt;Path&gt;" class="s3" d="m550.8 259.9c-0.4-16.9 0.4-30.6 1.4-40.5-10.9 0.7-26.9 4.5-38.2 20.8-3.3 4.7-4.4 11.6-4.7 19.4 0 0.6 0 1.1 0 1.7 0.2 7.9 0.3 14.7 0.4 20.8 4.6-13.1 27.8-19.5 41.2-19.8 0-0.8-0.1-1.6-0.1-2.4z"/>
						</g>
					</g>
					<g id="&lt;Group&gt;">
						<path id="&lt;Path&gt;" class="s0" d="m507.5 263c0-16.5-1.8-33.7 4.5-42.8 16-23.1 41.6-21 48.4-21 9.9 0 30.3 0 66.9 0 36.6 0 58.3-5.5 58.3-5.5 0 0-3 47-59.7 47-56.7 0-62.5 1.6-76.1 1.6-13.6 0-38.5 6.7-42.3 20.7z"/>
					</g>
					<g id="&lt;Group&gt;">
						<path id="&lt;Path&gt;" class="s1" d="m560.4 199.2c-6.8 0-32.4-2.1-48.4 21-5.8 8.3-4.8 23.4-4.5 38.5 9.5-43.7 40.3-41 51.6-41h64.5c49.7 0 62-24 62-24 0 0-21.7 5.5-58.3 5.5z"/>
					</g>
				</g>
			</g>
			<g id="&lt;Group&gt;">
				<g id="&lt;Group&gt;">
					<path id="&lt;Compound Path&gt;" fill-rule="evenodd" class="s1" d="m676 508.6q1.4 4.9 1.4 11.2v1.7h-54.1q1.5 7.6 7.3 12.3 5.8 4.7 13.8 4.7 5.7 0 10.4-2.5 4.7-2.6 7.5-7.4h13q-4.4 10.1-12.4 15.4-7.9 5.4-18.5 5.4-7.1 0-13-2.4-5.9-2.4-10.7-7.1-4.5-4.4-7-10.4-2.6-5.9-2.6-12 0-6.4 2.4-12 2.3-5.5 6.8-10.1 4.7-4.9 10.7-7.4 6.1-2.5 13.2-2.5 8.4 0 15.7 3.7 7.3 3.7 12 10.4 2.8 4.1 4.1 9zm-11.3 3.2q-2.1-7.5-7.5-11.6-5.3-4.1-12.7-4.1-7.6 0-13.1 4.2-5.6 4.2-7.7 11.5zm-157.6-15.9q-2.4 5.6-2.4 11.5 0 6.2 2.2 11.8 2.2 5.6 6.4 9.7 4.3 4.2 10.1 6.6 5.7 2.4 11.6 2.4 7.3 0 13.2-2.6 5.9-2.6 9.7-7.6h15.1q-5.5 10.5-15.3 16.1-9.8 5.6-22.7 5.6-9.5 0-17.6-3.5-8.1-3.5-14.5-10.3-5.4-5.6-8.2-12.9-2.8-7.2-2.8-15.5 0-8.3 3.3-15.8 3.4-7.5 10-13.7 6.1-5.7 13.7-8.6 7.6-3 16.3-3 13 0 22.9 5.8 9.9 5.9 14.9 16.5h-14.4q-4.1-5.3-10.1-8-5.9-2.7-13.5-2.7-6 0-11.4 2.2-5.4 2.1-9.6 6.2-4.4 4.2-6.9 9.8zm93-7.6q3.7-1.9 8.6-2v11.4q-7.7 0.5-11.1 4.3-3.3 3.8-3.3 12.1v33.7h-11.6v-60.5h10.9v7q2.8-4 6.5-6zm243.5-1h9.1v9.9h-9.1v50.6h-11.5v-50.6h-9.1v-9.9h9.1v-19.6h11.5zm54 43.2q0 8.1-5.9 13.5-5.8 5.4-14.7 5.4-8.9 0-14.4-5.7-5.5-5.6-6-15.5h10.9q0 4.8 2.8 7.9 2.8 3.1 7.1 3.1 4 0 6.6-2.3 2.6-2.4 2.6-6 0-3.2-1.8-5.4-1.9-2.2-6-3.7-1.4-0.6-3.9-1.4-6.9-2.5-8.7-3.9-3.5-2.6-5.1-5.8-1.6-3.3-1.6-7.6 0-7.4 5.4-12.5 5.5-5.2 13.4-5.2 8.2 0 13 4.5 4.9 4.6 5.3 12.8h-11.1q-0.2-3.4-2.3-5.3-2-1.8-5.5-1.8-3.1 0-5.1 2-2.1 2-2.1 4.9 0 5.1 9.3 8.3 2.7 1 4.2 1.5 7.3 2.8 10.4 7 3.2 4.2 3.2 11.2zm-158.3-43.2h11.6v60.5h-11.6v-7.4q-4.5 4.3-9.9 6.5-5.5 2.3-11.7 2.3-14.4 0-24-9.1-9.6-9.1-9.6-22.8 0-6.4 2.4-12.1 2.4-5.7 6.8-10.1 4.9-4.8 10.6-7 5.8-2.3 13.1-2.3 6.6 0 12.2 2.2 5.5 2.2 10.1 6.6zm0.5 30.7q0-9-6.4-15.3-6.4-6.4-15.3-6.4-9.1 0-15.6 6.1-6.4 6-6.4 14.8 0 9.2 6.4 15.4 6.5 6.2 15.8 6.2 8.5 0 15-6.2 6.5-6.3 6.5-14.6zm70.5-24.7q6.7 7 6.7 20v34.5h-11.6v-32.1q0-9.6-3.8-14.3-3.8-4.6-11.7-4.6-8.6 0-12.5 5.5-3.9 5.4-3.9 18v27.5h-11.5v-60.5h11.1v6.9q3.6-4.1 7.9-6 4.4-1.9 10-1.9 12.6 0 19.3 7z"/>
				</g>
			</g>
			<g id="&lt;Group&gt;">
				<g id="&lt;Group&gt;">
					<path id="&lt;Compound Path&gt;" fill-rule="evenodd" class="s4" d="m250.7 478.5h-16.9v69.3h-13.1v-69.3h-16.9v-10.8h46.9zm88.7 23.9q-6.4 6.1-6.4 15.1 0 9.1 6.5 15.1 6.4 6.1 16.1 6.1 6.4 0 11.6-3 5.2-3 8.1-8.5h13.5q-4.3 10.9-12.7 16.6-8.4 5.6-20.5 5.6-7.7 0-13.9-2.3-6.2-2.4-11.2-7.1-4.8-4.4-7.5-10.3-2.7-5.9-2.7-12.1 0-6.3 2.5-11.8 2.4-5.6 7.2-10.1 5.3-5 11.9-7.6 6.5-2.6 14-2.6 11.8 0 20.4 5.7 8.6 5.8 12.5 16.2h-13.5q-3.2-5.6-8.3-8.3-5.1-2.8-12.1-2.8-9.1 0-15.5 6.1zm116.3 10.7v34.7h-12.3v-31.2q0-10-3.8-14.9-3.8-4.9-11.8-4.9-4.8 0-8.5 1.9-3.8 2-6 5.8-1.4 2.2-1.9 5.5-0.6 3.2-0.6 10.3v27.5h-12.3v-80.1h12.3v26.5q2.9-3.9 7.7-5.9 4.7-2 11.1-2 12.4 0 19.2 7.1 6.9 7 6.9 19.7zm-141.2-4.5q1.4 4.9 1.4 11.3v1.7h-57.4q1.5 7.6 7.7 12.3 6.2 4.7 14.7 4.7 6.1 0 11.1-2.6 4.9-2.6 7.9-7.3h13.9q-4.8 10-13.2 15.4-8.5 5.3-19.7 5.3-7.6 0-13.9-2.4-6.2-2.3-11.3-7.1-4.8-4.4-7.5-10.3-2.7-5.9-2.7-12.1 0-6.4 2.5-11.9 2.4-5.6 7.2-10.1 5.1-5 11.5-7.5 6.4-2.5 13.9-2.5 9 0 16.7 3.7 7.8 3.7 12.8 10.4 3 4.1 4.4 9zm-12 3.2q-2.3-7.5-8-11.6-5.6-4.1-13.5-4.1-8.1 0-14 4.2-5.9 4.2-8.1 11.5z"/>
				</g>
			</g>
		</g>
	</g>
</svg>