<svg width="18" height="18" viewBox="0 0 18 18" fill="none" xmlns="http://www.w3.org/2000/svg">
<path d="M16 16.65H16.65V16V2V1.35H16H2H1.35V2V16V16.65H2H16ZM8.65 8V4.65H9.35V8V8.65H10H13.35V9.35H10H9.35V10V13.35H8.65V10V9.35H8H4.65V8.65H8H8.65V8ZM16 0.65C16.358 0.65 16.7014 0.792232 16.9546 1.04541C17.2078 1.29858 17.35 1.64196 17.35 2V16C17.35 16.358 17.2078 16.7014 16.9546 16.9546C16.7014 17.2078 16.358 17.35 16 17.35H2C1.64196 17.35 1.29858 17.2078 1.04541 16.9546C0.792232 16.7014 0.65 16.358 0.65 16V2C0.65 1.2511 1.25687 0.65 2 0.65H16Z" stroke="white" stroke-width="1.3"/>
</svg>
