<svg width="29" height="29" viewBox="0 0 29 29" fill="none" xmlns="http://www.w3.org/2000/svg">
<path fill-rule="evenodd" clip-rule="evenodd" d="M14.3748 28.7168C21.9637 28.7168 28.2495 22.431 28.2495 14.8278C28.2495 7.23898 21.9494 0.953125 14.3605 0.953125C6.77168 0.953125 0.48584 7.23898 0.48584 14.8278C0.48584 22.431 6.786 28.7168 14.3748 28.7168ZM14.3748 26.2397C8.04604 26.2397 2.97727 21.1709 2.97727 14.8278C2.97727 8.499 8.03172 3.41592 14.3605 3.41592C20.6893 3.41592 25.7724 8.499 25.7867 14.8278C25.801 21.1709 20.7036 26.2397 14.3748 26.2397H14.3748ZM14.3462 21.2568C15.0908 21.2568 15.5346 20.7414 15.5346 19.9395V16.0162H19.687C20.4745 16.0162 21.0043 15.5867 21.0043 14.8564C21.0043 14.0976 20.5032 13.6537 19.687 13.6537H15.5346V9.5013C15.5346 8.69946 15.0908 8.18399 14.3462 8.18399C13.6016 8.18399 13.1721 8.7281 13.1721 9.5013V13.6537H9.03401C8.23217 13.6537 7.70239 14.0976 7.70239 14.8564C7.70239 15.5867 8.26081 16.0162 9.03401 16.0162H13.1721V19.9395C13.1721 20.7127 13.6016 21.2568 14.3462 21.2568Z" fill="white"/>
</svg>
