<svg width="24" height="25" viewBox="0 0 24 25" fill="none" xmlns="http://www.w3.org/2000/svg">
<path d="M12.0005 7.5H12C11.4561 7.5 10.9244 7.66129 10.4722 7.96346C10.0199 8.26563 9.66747 8.69513 9.45933 9.19762C9.25119 9.70012 9.19673 10.2531 9.30284 10.7865C9.40895 11.3199 9.67086 11.81 10.0555 12.1945L10.3585 11.8915L10.0555 12.1945C10.4401 12.5791 10.9301 12.8411 11.4635 12.9472C11.997 13.0533 12.5499 12.9988 13.0524 12.7907C13.5549 12.5825 13.9844 12.2301 14.2865 11.7778C14.5887 11.3256 14.75 10.7939 14.75 10.25L14.75 10.2495C14.7493 9.52051 14.4594 8.82159 13.9439 8.30612L13.5903 8.65967L13.9439 8.30612C13.4284 7.79064 12.7295 7.50073 12.0005 7.5ZM11.9998 13.5C11.3571 13.5 10.7288 13.3094 10.1944 12.9523C9.65994 12.5952 9.24338 12.0876 8.99739 11.4937C8.75141 10.8999 8.68705 10.2464 8.81245 9.61596C8.93785 8.98552 9.24738 8.40643 9.70191 7.95191C10.1564 7.49738 10.7355 7.18785 11.366 7.06245C11.9964 6.93705 12.6499 7.00141 13.2437 7.24739C13.8376 7.49338 14.3452 7.90994 14.7023 8.4444C15.0594 8.9788 15.25 9.60707 15.25 10.2498C15.2489 11.1114 14.9061 11.9375 14.2968 12.5468C13.6875 13.1561 12.8614 13.4989 11.9998 13.5Z" stroke="white"/>
<path d="M6.43426 14.8899L6.4344 14.8898C6.40938 14.8587 6.35079 14.7819 6.30421 14.7207L6.23924 14.6352L6.21873 14.6081L6.21304 14.6006L6.21156 14.5986L6.21154 14.5986L6.21115 14.5981L6.21105 14.598L6.21102 14.5979L6.21101 14.5979L6.60976 14.2963C5.72609 13.1326 5.24844 11.7112 5.25001 10.25L6.43426 14.8899ZM6.43426 14.8899L6.44289 14.9001M6.43426 14.8899L6.44289 14.9001M6.44289 14.9001L11.6186 21.0044L12 21.4541M6.44289 14.9001L12 21.4541M12 21.4541L12.3814 21.0043M12 21.4541L12.3814 21.0043M12.3814 21.0043L17.5639 14.8918L17.5685 14.8864M12.3814 21.0043L17.5685 14.8864M17.5685 14.8864L17.5729 14.8808M17.5685 14.8864L17.5729 14.8808M17.5729 14.8808C17.5946 14.8538 17.6519 14.7784 17.6975 14.7183L17.762 14.6333L17.7694 14.6234L17.7721 14.62M17.5729 14.8808L17.7721 14.62M17.7721 14.62L17.79 14.5963C18.7389 13.3462 19.2517 11.8194 19.25 10.25L17.7721 14.62ZM5.81033 14.8978L5.81025 14.8977C4.79566 13.5612 4.24755 11.9287 4.25001 10.2507V10.25C4.25001 8.19457 5.06652 6.22333 6.51993 4.76992C7.97334 3.31652 9.94458 2.5 12 2.5C14.0554 2.5 16.0267 3.31652 17.4801 4.76992C18.9335 6.22333 19.75 8.19457 19.75 10.25V10.2507C19.7525 11.9279 19.2046 13.5596 18.1905 14.8954L18.1405 14.9613L18.14 14.9629L18.0745 15.0484C18.0445 15.0876 18.0139 15.1274 17.9889 15.1595C17.9647 15.1907 17.9521 15.2067 17.9489 15.2106C17.9483 15.2114 17.9481 15.2117 17.9481 15.2116L17.9479 15.2119L12 22.2269L6.06054 15.2222C5.97628 15.1147 5.89287 15.0066 5.81033 14.8978ZM6.87348 5.12348C5.51391 6.48305 4.75008 8.32701 4.75001 10.2497L19.25 10.2494C19.2499 8.3268 18.486 6.48297 17.1265 5.12348C15.7669 3.76384 13.9228 3 12 3C10.0772 3 8.23312 3.76384 6.87348 5.12348Z" stroke="white"/>
</svg>
