<svg width="18" height="24" viewBox="0 0 18 24" fill="none" xmlns="http://www.w3.org/2000/svg">
<path d="M9 23V20M9 20C6.87827 20 4.84344 19.1571 3.34315 17.6569C1.84285 16.1566 1 14.1217 1 12M9 20C11.1217 20 13.1566 19.1571 14.6569 17.6569C16.1571 16.1566 17 14.1217 17 12M9 17C6.25 17 4 14.828 4 12.172V5.828C4 3.172 6.25 1 9 1C11.75 1 14 3.172 14 5.828V12.172C14 14.828 11.75 17 9 17Z" stroke="white" stroke-width="1.5" stroke-linecap="round" stroke-linejoin="round"/>
<path d="M9 23V20M9 20C6.87827 20 4.84344 19.1571 3.34315 17.6569C1.84285 16.1566 1 14.1217 1 12M9 20C11.1217 20 13.1566 19.1571 14.6569 17.6569C16.1571 16.1566 17 14.1217 17 12M9 17C6.25 17 4 14.828 4 12.172V5.828C4 3.172 6.25 1 9 1C11.75 1 14 3.172 14 5.828V12.172C14 14.828 11.75 17 9 17Z" stroke="white" stroke-width="1.5" stroke-linecap="round" stroke-linejoin="round"/>
</svg>
