<svg width="25" height="24" viewBox="0 0 25 24" fill="none" xmlns="http://www.w3.org/2000/svg">
<path d="M12.5 23V20M12.5 20C10.3783 20 8.34344 19.1571 6.84315 17.6569C5.34285 16.1566 4.5 14.1217 4.5 12M12.5 20C14.6217 20 16.6566 19.1571 18.1569 17.6569C19.6571 16.1566 20.5 14.1217 20.5 12M12.5 17C9.75 17 7.5 14.828 7.5 12.172V5.828C7.5 3.172 9.75 1 12.5 1C15.25 1 17.5 3.172 17.5 5.828V12.172C17.5 14.828 15.25 17 12.5 17Z" stroke="#0B1420" stroke-width="1.5" stroke-linecap="round" stroke-linejoin="round"/>
</svg>
