<svg width="18" height="21" viewBox="0 0 18 21" fill="none" xmlns="http://www.w3.org/2000/svg">
<path d="M17.7936 14.9944C17.2733 14.0981 16.4999 11.5622 16.4999 8.25C16.4999 6.26088 15.7097 4.35322 14.3032 2.9467C12.8967 1.54018 10.989 0.75 8.99989 0.75C7.01077 0.75 5.10311 1.54018 3.69659 2.9467C2.29007 4.35322 1.49989 6.26088 1.49989 8.25C1.49989 11.5631 0.725515 14.0981 0.205202 14.9944C0.072331 15.2222 0.0018909 15.4811 0.000985404 15.7449C7.99067e-05 16.0086 0.0687412 16.268 0.200045 16.4967C0.331349 16.7255 0.520652 16.9156 0.748864 17.0478C0.977075 17.1801 1.23613 17.2498 1.49989 17.25H5.32583C5.49886 18.0967 5.95904 18.8577 6.62851 19.4042C7.29799 19.9507 8.13568 20.2492 8.99989 20.2492C9.8641 20.2492 10.7018 19.9507 11.3713 19.4042C12.0407 18.8577 12.5009 18.0967 12.674 17.25H16.4999C16.7636 17.2496 17.0225 17.1798 17.2506 17.0475C17.4787 16.9151 17.6678 16.725 17.799 16.4963C17.9302 16.2676 17.9988 16.0083 17.9979 15.7446C17.9969 15.4809 17.9265 15.2222 17.7936 14.9944ZM8.99989 18.75C8.53472 18.7499 8.08103 18.6055 7.70126 18.3369C7.3215 18.0683 7.03432 17.6886 6.87926 17.25H11.1205C10.9655 17.6886 10.6783 18.0683 10.2985 18.3369C9.91875 18.6055 9.46506 18.7499 8.99989 18.75ZM1.49989 15.75C2.22176 14.5087 2.99989 11.6325 2.99989 8.25C2.99989 6.6587 3.63203 5.13258 4.75725 4.00736C5.88247 2.88214 7.40859 2.25 8.99989 2.25C10.5912 2.25 12.1173 2.88214 13.2425 4.00736C14.3677 5.13258 14.9999 6.6587 14.9999 8.25C14.9999 11.6297 15.7761 14.5059 16.4999 15.75H1.49989Z" fill="white"/>
</svg>
