<svg width="18" height="24" viewBox="0 0 18 24" fill="none" xmlns="http://www.w3.org/2000/svg">
<path d="M2.82615 0C1.26785 0 0 1.26785 0 2.82615V21.1696C0 22.7303 1.26785 24 2.82615 24H14.6946C16.2553 24 17.525 22.7303 17.525 21.1696V2.82615C17.525 1.26785 16.2553 0 14.6946 0H2.82615ZM16.958 2.82615V21.1696C16.958 22.4177 15.9426 23.4331 14.6946 23.4331H2.82615C1.58047 23.4331 0.566928 22.4177 0.566928 21.1696V2.82615C0.566928 1.58047 1.58047 0.566928 2.82615 0.566928H14.6946C15.9426 0.566928 16.958 1.58047 16.958 2.82615Z" fill="white"/>
<path d="M5.27957 2.22998C3.83309 2.22998 2.65625 3.40682 2.65625 4.8533C2.65625 6.30218 3.83309 7.48086 5.27957 7.48086C6.72845 7.48086 7.90713 6.30214 7.90713 4.8533C7.90713 3.40687 6.72845 2.22998 5.27957 2.22998ZM5.27957 6.91398C4.14571 6.91398 3.22318 5.98956 3.22318 4.85335C3.22318 3.71949 4.14571 2.79696 5.27957 2.79696C6.41583 2.79696 7.3402 3.71949 7.3402 4.85335C7.3402 5.98956 6.41583 6.91398 5.27957 6.91398Z" fill="white"/>
<path d="M5.04064 3.38785C4.31631 3.50576 3.79053 4.12256 3.79053 4.85443C3.79053 5.01093 3.91749 5.13789 4.07399 5.13789C4.23049 5.13789 4.35746 5.01093 4.35746 4.85443C4.35746 4.40192 4.68319 4.02046 5.13184 3.94737C5.20603 3.93526 5.27238 3.89419 5.3163 3.83318C5.36022 3.77217 5.37811 3.69621 5.36605 3.62201C5.3409 3.46754 5.19747 3.36313 5.04064 3.38785ZM12.2415 2.22998C10.795 2.22998 9.61815 3.40682 9.61815 4.8533C9.61815 6.30218 10.795 7.48086 12.2415 7.48086C13.6904 7.48086 14.869 6.30214 14.869 4.8533C14.869 3.40687 13.6904 2.22998 12.2415 2.22998ZM12.2415 6.91398C11.1076 6.91398 10.1851 5.98956 10.1851 4.85335C10.1851 3.71949 11.1076 2.79696 12.2415 2.79696C13.3777 2.79696 14.3021 3.71949 14.3021 4.85335C14.3021 5.98956 13.3777 6.91398 12.2415 6.91398Z" fill="white"/>
<path d="M12.0028 3.3879C11.2785 3.50581 10.7527 4.1226 10.7527 4.85448C10.7527 5.01098 10.8797 5.13794 11.0362 5.13794C11.1927 5.13794 11.3196 5.01098 11.3196 4.85448C11.3196 4.40196 11.6454 4.0205 12.094 3.94742C12.2485 3.92232 12.3533 3.77653 12.3282 3.62206C12.3031 3.46759 12.1591 3.36318 12.0028 3.3879ZM5.27957 9.37443C3.83309 9.37443 2.65625 10.5513 2.65625 11.9977C2.65625 13.4466 3.83309 14.6253 5.27957 14.6253C6.72845 14.6253 7.90713 13.4466 7.90713 11.9977C7.90713 10.5513 6.72845 9.37443 5.27957 9.37443ZM5.27957 14.0584C4.14571 14.0584 3.22318 13.134 3.22318 11.9977C3.22318 10.8639 4.14571 9.94136 5.27957 9.94136C6.41583 9.94136 7.3402 10.8639 7.3402 11.9977C7.3402 13.134 6.41583 14.0584 5.27957 14.0584Z" fill="white"/>
<path d="M5.04064 10.5323C4.31631 10.6502 3.79053 11.267 3.79053 11.9989C3.79053 12.1554 3.91749 12.2824 4.07399 12.2824C4.23049 12.2824 4.35746 12.1554 4.35746 11.9989C4.35746 11.5464 4.68319 11.1649 5.13184 11.0919C5.20603 11.0797 5.27238 11.0387 5.3163 10.9777C5.36022 10.9167 5.37811 10.8407 5.36605 10.7665C5.3409 10.6121 5.19747 10.508 5.04064 10.5323ZM12.2415 9.37451C10.795 9.37451 9.61815 10.5514 9.61815 11.9978C9.61815 13.4467 10.795 14.6254 12.2415 14.6254C13.6904 14.6254 14.869 13.4467 14.869 11.9978C14.869 10.5514 13.6904 9.37451 12.2415 9.37451ZM12.2415 14.0585C11.1076 14.0585 10.1851 13.1341 10.1851 11.9978C10.1851 10.864 11.1076 9.94144 12.2415 9.94144C13.3777 9.94144 14.3021 10.864 14.3021 11.9978C14.3021 13.1341 13.3777 14.0585 12.2415 14.0585Z" fill="white"/>
<path d="M12.0028 10.5323C11.2785 10.6502 10.7527 11.267 10.7527 11.9989C10.7527 12.1554 10.8797 12.2824 11.0362 12.2824C11.1927 12.2824 11.3196 12.1554 11.3196 11.9989C11.3196 11.5464 11.6454 11.1649 12.094 11.0919C12.1682 11.0798 12.2345 11.0387 12.2784 10.9777C12.3224 10.9167 12.3403 10.8407 12.3282 10.7665C12.3031 10.6121 12.1591 10.508 12.0028 10.5323ZM5.27957 16.5189C3.83309 16.5189 2.65625 17.6957 2.65625 19.1422C2.65625 20.5911 3.83309 21.7698 5.27957 21.7698C6.72845 21.7698 7.90713 20.591 7.90713 19.1422C7.90713 17.6957 6.72845 16.5189 5.27957 16.5189ZM5.27957 21.2029C4.14571 21.2029 3.22318 20.2785 3.22318 19.1422C3.22318 18.0084 4.14571 17.0858 5.27957 17.0858C6.41583 17.0858 7.3402 18.0084 7.3402 19.1422C7.3402 20.2785 6.41583 21.2029 5.27957 21.2029Z" fill="white"/>
<path d="M5.04064 17.6769C4.31631 17.7948 3.79053 18.4116 3.79053 19.1435C3.79053 19.3 3.91749 19.427 4.07399 19.427C4.23049 19.427 4.35746 19.3 4.35746 19.1435C4.35746 18.691 4.68319 18.3095 5.13184 18.2364C5.20603 18.2243 5.27238 18.1833 5.3163 18.1222C5.36022 18.0612 5.37811 17.9853 5.36605 17.9111C5.3409 17.7564 5.19747 17.6509 5.04064 17.6769ZM12.2415 16.519C10.795 16.519 9.61815 17.6959 9.61815 19.1424C9.61815 20.5912 10.795 21.7699 12.2415 21.7699C13.6904 21.7699 14.869 20.5912 14.869 19.1424C14.869 17.6959 13.6904 16.519 12.2415 16.519ZM12.2415 21.203C11.1076 21.203 10.1851 20.2786 10.1851 19.1424C10.1851 18.0086 11.1076 17.086 12.2415 17.086C13.3777 17.086 14.3021 18.0086 14.3021 19.1424C14.3021 20.2786 13.3777 21.203 12.2415 21.203Z" fill="white"/>
<path d="M12.0021 17.6768C11.2777 17.7947 10.752 18.4115 10.752 19.1434C10.752 19.2999 10.8789 19.4268 11.0354 19.4268C11.1919 19.4268 11.3189 19.2999 11.3189 19.1434C11.3189 18.6909 11.6446 18.3094 12.0932 18.2363C12.1674 18.2242 12.2338 18.1831 12.2777 18.1221C12.3216 18.0611 12.3395 17.9852 12.3274 17.911C12.3023 17.7563 12.1584 17.6508 12.0021 17.6768Z" fill="white"/>
</svg>
