<svg xmlns="http://www.w3.org/2000/svg" width="20" height="18.497" viewBox="0 0 20 18.497">
  <path id="camera-f" d="M13.925,2.5a2.25,2.25,0,0,1,1.94,1.11L16.679,5H18.75A3.25,3.25,0,0,1,22,8.25v9.5A3.25,3.25,0,0,1,18.75,21H5.25A3.25,3.25,0,0,1,2,17.75V8.25A3.25,3.25,0,0,1,5.25,5H7.33L8.2,3.576A2.25,2.25,0,0,1,10.122,2.5Zm0,1.5h-3.8a.75.75,0,0,0-.574.268l-.065.09L8.389,6.142A.75.75,0,0,1,7.75,6.5H5.25A1.75,1.75,0,0,0,3.5,8.25v9.5A1.75,1.75,0,0,0,5.25,19.5h13.5a1.75,1.75,0,0,0,1.75-1.75V8.25A1.75,1.75,0,0,0,18.75,6.5h-2.5a.75.75,0,0,1-.647-.37L14.571,4.373A.75.75,0,0,0,13.925,4ZM12,8a4.5,4.5,0,1,1-4.5,4.5A4.5,4.5,0,0,1,12,8Zm0,1.5a3,3,0,1,0,3,3A3,3,0,0,0,12,9.5Z" transform="translate(-2 -2.503)" fill="#212121"/>
</svg>
