<svg xmlns="http://www.w3.org/2000/svg" width="24" height="24" viewBox="0 0 24 24">
  <g id="check-circle" transform="translate(-596 -96)">
    <rect id="Rectangle_1292" data-name="Rectangle 1292" width="24" height="24" transform="translate(596 96)" fill="#fff" opacity="0"/>
    <path id="check-circle-f" d="M12,2A10,10,0,1,1,2,12,10,10,0,0,1,12,2Zm0,1.5A8.5,8.5,0,1,0,20.5,12,8.5,8.5,0,0,0,12,3.5Zm-1.25,9.939,4.47-4.47a.75.75,0,0,1,1.133.977l-.073.084-5,5a.75.75,0,0,1-.977.073l-.084-.073-2.5-2.5A.75.75,0,0,1,8.7,11.4l.084.073,1.97,1.97,4.47-4.47Z" transform="translate(596 96)" fill="#212121"/>
  </g>
</svg>
