<svg xmlns="http://www.w3.org/2000/svg" width="24" height="24" viewBox="0 0 24 24">
  <g id="close-circle" transform="translate(-844 -1212)">
    <rect id="Rectangle_1292" data-name="Rectangle 1292" width="24" height="24" transform="translate(844 1212)" fill="#fff" opacity="0"/>
    <path id="close-circle-f" d="M12,2A10,10,0,1,1,2,12,10,10,0,0,1,12,2Zm0,1.5A8.5,8.5,0,1,0,20.5,12,8.5,8.5,0,0,0,12,3.5Zm3.446,4.9.084.073a.75.75,0,0,1,.073.977l-.073.084L13.061,12l2.469,2.47a.75.75,0,0,1,.073.977l-.073.084a.75.75,0,0,1-.977.073l-.084-.073L12,13.061,9.53,15.53a.75.75,0,0,1-.977.073L8.47,15.53a.75.75,0,0,1-.073-.977l.073-.084L10.939,12,8.47,9.53A.75.75,0,0,1,8.4,8.554L8.47,8.47A.75.75,0,0,1,9.446,8.4l.084.073L12,10.939,14.47,8.47A.75.75,0,0,1,15.446,8.4Z" transform="translate(843 1212)" fill="#212121"/>
  </g>
</svg>
