<svg xmlns="http://www.w3.org/2000/svg" width="24" height="24" viewBox="0 0 24 24">
  <g id="close-circle-filled" transform="translate(-968 -344)">
    <rect id="Rectangle_1292" data-name="Rectangle 1292" width="24" height="24" transform="translate(968 344)" fill="#fff" opacity="0"/>
    <path id="close-circle-filled-2" data-name="close-circle-filled" d="M12,2A10,10,0,1,1,2,12,10,10,0,0,1,12,2Zm3.53,6.47L15.446,8.4a.751.751,0,0,0-.883-.007l-.094.08L12,10.939,9.53,8.47,9.446,8.4a.751.751,0,0,0-.883-.007l-.094.08L8.4,8.554a.751.751,0,0,0-.007.883l.08.094L10.939,12,8.47,14.47l-.073.084a.751.751,0,0,0-.007.883l.08.094.084.073a.75.75,0,0,0,.883.007l.094-.08L12,13.061l2.47,2.469.084.073a.75.75,0,0,0,.883.007l.094-.08.073-.084a.75.75,0,0,0,.007-.883l-.08-.094L13.061,12,15.53,9.53l.073-.084a.75.75,0,0,0,.007-.883l-.08-.094L15.446,8.4Z" transform="translate(968 344)" fill="#212121"/>
  </g>
</svg>
