<svg width="24" height="25" viewBox="0 0 24 25" fill="none" xmlns="http://www.w3.org/2000/svg">
<path d="M16.663 12.1751C17.6062 12.1749 18.5237 11.8673 19.2764 11.2988C20.0291 10.7303 20.576 9.9319 20.8342 9.02465C21.0923 8.1174 21.0477 7.15073 20.707 6.27112C20.3664 5.39151 19.7483 4.64692 18.9464 4.15019C18.1446 3.65345 17.2026 3.43164 16.2634 3.51838C15.3241 3.60512 14.4387 3.99568 13.7414 4.63087C13.044 5.26605 12.5728 6.11124 12.399 7.03836C12.2252 7.96547 12.3583 8.92397 12.7783 9.7686C12.8574 9.92203 12.8781 10.099 12.8364 10.2665L12.5779 11.2321C12.5523 11.3277 12.5523 11.4283 12.5779 11.5239C12.6036 11.6195 12.6539 11.7067 12.7239 11.7766C12.7938 11.8466 12.881 11.8969 12.9766 11.9226C13.0722 11.9482 13.1728 11.9482 13.2684 11.9226L14.234 11.6641C14.4015 11.6224 14.5785 11.6431 14.7319 11.7222C15.332 12.0203 15.9929 12.1753 16.663 12.1751Z" stroke="white" stroke-width="1.3"/>
<path d="M14.6202 16.1163L15.0149 15.7008L14.0711 14.8038L13.6764 15.2211L14.6202 16.1163ZM16.3153 15.5247L17.9723 16.4798L18.622 15.3512L16.9642 14.3969L16.3153 15.5247ZM18.2924 18.4569L17.0605 19.7538L18.0035 20.6508L19.2354 19.3539L18.2924 18.4569ZM16.3188 20.1702C15.0739 20.2925 11.8251 20.1884 8.29959 16.4772L7.35661 17.3725C11.1988 21.4176 14.864 21.6224 16.4463 21.4654L16.3188 20.1702ZM8.29959 16.4772C4.93714 12.9369 4.37326 9.9501 4.30299 8.64017L3.00347 8.71043C3.09022 10.3153 3.77035 13.5971 7.35661 17.3725L8.29959 16.4772ZM9.49328 10.7187L9.74138 10.4567L8.79841 9.56059L8.54943 9.82257L9.49328 10.7187ZM9.93744 7.1949L8.84352 5.64901L7.78082 6.40027L8.87388 7.94703L9.93744 7.1949ZM5.14014 5.31415L3.77989 6.749L4.72373 7.64514L6.08572 6.21115L5.14014 5.31415ZM9.02135 10.2702C8.86523 10.1197 8.70763 9.97081 8.54856 9.82344L8.54683 9.82518L8.54423 9.82778L8.50085 9.8781C8.41591 9.99071 8.34862 10.1156 8.30132 10.2485C8.21631 10.4871 8.1712 10.8029 8.22845 11.1967C8.34123 11.9705 8.84872 13.0107 10.1734 14.4065L11.1172 13.5095C9.87845 12.2056 9.57309 11.4032 9.51583 11.0076C9.48807 10.8167 9.51583 10.717 9.52711 10.6849L9.53405 10.6684C9.52473 10.683 9.51398 10.6967 9.50195 10.7092L9.49761 10.7135L9.49501 10.7161L9.49414 10.717C9.49414 10.717 9.49241 10.7187 9.02135 10.2702ZM10.1734 14.4065C11.4946 15.7979 12.4922 16.3436 13.253 16.4677C13.6443 16.531 13.9609 16.4798 14.2004 16.3853C14.3332 16.3335 14.4565 16.2602 14.5656 16.1684L14.5968 16.1389L14.609 16.1267L14.6176 16.1181C14.6176 16.1163 14.6202 16.1163 14.1483 15.6678C13.6764 15.2202 13.6773 15.2193 13.6773 15.2185L13.679 15.2176L13.6807 15.215L13.6851 15.2106L13.6937 15.202L13.7258 15.1742C13.7345 15.1696 13.7334 15.1699 13.7224 15.1751C13.705 15.182 13.6269 15.2098 13.4621 15.1829C13.1134 15.1256 12.3604 14.8185 11.1172 13.5095L10.1734 14.4065ZM8.84352 5.64901C7.96387 4.40501 6.20456 4.1942 5.141 5.31502L6.08311 6.21115C6.53682 5.73402 7.33666 5.77133 7.78082 6.40027L8.84352 5.64901ZM4.30299 8.64017C4.28391 8.29316 4.43572 7.94703 4.72373 7.64514L3.77989 6.749C3.31491 7.23828 2.96096 7.91753 3.00347 8.71043L4.30299 8.64017ZM17.0597 19.7546C16.8176 20.0097 16.5652 20.1459 16.3188 20.1702L16.4463 21.4654C17.0944 21.402 17.6192 21.0559 18.0035 20.6508L17.0597 19.7546ZM9.74138 10.4576C10.582 9.57273 10.6401 8.1908 9.93744 7.19577L8.87475 7.94703C9.24083 8.46493 9.18444 9.1546 8.79841 9.56059L9.74138 10.4576ZM17.9723 16.4798C18.6845 16.8901 18.8242 17.8982 18.2924 18.4577L19.2354 19.3539C20.3675 18.1619 20.0378 16.1666 18.622 15.3512L17.9723 16.4798ZM15.0149 15.7008C15.3489 15.3486 15.8703 15.2696 16.3153 15.5256L16.9642 14.3978C16.0108 13.8495 14.8302 14.0074 14.0711 14.8055L15.0149 15.7008Z" fill="white"/>
</svg>
