<svg width="31" height="31" viewBox="0 0 31 31" fill="none" xmlns="http://www.w3.org/2000/svg">
<path d="M15.6251 16.2149L19.0391 19.6289L17.9121 20.7558L14.4981 17.3418L10.9847 20.8553L9.84946 19.72L13.3629 16.2066L9.94889 12.7926L11.0758 11.6657L14.4898 15.0797L18.0199 11.5496L19.1551 12.6849L15.6251 16.2149Z" fill="white"/>
<path fill-rule="evenodd" clip-rule="evenodd" d="M14.8203 29.1215C22.0202 29.1215 27.8569 23.2849 27.8569 16.0849C27.8569 8.88502 22.0202 3.04834 14.8203 3.04834C7.62038 3.04834 1.78369 8.88502 1.78369 16.0849C1.78369 23.2849 7.62038 29.1215 14.8203 29.1215Z" stroke="white" stroke-width="2"/>
<path opacity="0.101042" fill-rule="evenodd" clip-rule="evenodd" d="M14.8203 29.1215C22.0202 29.1215 27.8569 23.2849 27.8569 16.0849C27.8569 8.88502 22.0202 3.04834 14.8203 3.04834C7.62038 3.04834 1.78369 8.88502 1.78369 16.0849C1.78369 23.2849 7.62038 29.1215 14.8203 29.1215Z" fill="white"/>
</svg>
