<svg xmlns="http://www.w3.org/2000/svg" width="24" height="24" viewBox="0 0 24 24">
  <g id="date" transform="translate(-1092 -220)">
    <rect id="Rectangle_1292" data-name="Rectangle 1292" width="24" height="24" transform="translate(1092 220)" fill="#fff" opacity="0"/>
    <g id="date-f" transform="translate(1094.15 222.15)">
      <g id="Group-23" transform="translate(-0.15 -0.15)">
        <g id="Group_23" data-name="Group 23">
          <g id="_006-calendar" data-name="006-calendar">
            <g id="Group-13">
              <path id="Shape" d="M18.74.96A3.263,3.263,0,0,0,16.419,0H3.281A3.281,3.281,0,0,0,0,3.281V16.419A3.281,3.281,0,0,0,3.281,19.7H16.419A3.281,3.281,0,0,0,19.7,16.419V3.281A3.257,3.257,0,0,0,18.74.96Zm-.351,15.452a1.97,1.97,0,0,1-1.97,1.97H3.281a1.97,1.97,0,0,1-1.97-1.97V3.281a1.97,1.97,0,0,1,1.97-1.97H16.419a1.97,1.97,0,0,1,1.97,1.97Z" transform="translate(0.15 0.15)" fill="#212121"/>
              <path id="Shape_-_Outline" data-name="Shape - Outline" d="M16.429-.15A3.427,3.427,0,0,1,19.85,3.28V16.42a3.434,3.434,0,0,1-3.43,3.43H3.28A3.434,3.434,0,0,1-.15,16.42V3.28A3.434,3.434,0,0,1,3.28-.15Zm-.009,19.7a3.138,3.138,0,0,0,3.134-3.134V3.28A3.132,3.132,0,0,0,16.429.146H3.28A3.138,3.138,0,0,0,.146,3.28V16.42A3.138,3.138,0,0,0,3.28,19.554ZM3.28,1.162H16.42A2.121,2.121,0,0,1,18.538,3.28V16.414a2.121,2.121,0,0,1-2.118,2.118H3.28a2.121,2.121,0,0,1-2.118-2.118V3.28A2.121,2.121,0,0,1,3.28,1.162ZM16.42,18.237a1.825,1.825,0,0,0,1.823-1.823V3.28A1.825,1.825,0,0,0,16.42,1.457H3.28A1.825,1.825,0,0,0,1.457,3.28V16.414A1.825,1.825,0,0,0,3.28,18.237Z" transform="translate(0.15 0.15)" fill="#212121"/>
            </g>
            <path id="Path" d="M10.742,5.35h2.7a.676.676,0,1,0,0-1.347h-2.7a.676.676,0,1,0,0,1.347Z" transform="translate(-1.699 -0.575)" fill="#212121"/>
            <path id="Path_-_Outline" data-name="Path - Outline" d="M13.507,5.5c-.024,0-.048,0-.072,0H10.749c-.024,0-.048,0-.072,0a.826.826,0,0,1,0-1.653c.024,0,.048,0,.072,0h2.686c.024,0,.048,0,.072,0a.826.826,0,0,1,0,1.653Zm-2.772-.3h2.721a.526.526,0,1,0,0-1.048H10.727a.526.526,0,1,0,0,1.048Z" transform="translate(-1.699 -0.573)" fill="#212121"/>
            <path id="Path-2" data-name="Path" d="M16.842,7.2H3.833a.645.645,0,0,0-.617.316.7.7,0,0,0,0,.714.645.645,0,0,0,.617.316H16.842a.679.679,0,0,0,0-1.347Z" transform="translate(-0.34 -1.152)" fill="#212121"/>
            <path id="Path_-_Outline-2" data-name="Path - Outline" d="M3.767,7.046c.025,0,.047,0,.07,0H16.859a.83.83,0,0,1,0,1.645H3.837c-.023,0-.047,0-.07,0a.789.789,0,0,1-.68-.391.845.845,0,0,1,0-.87A.789.789,0,0,1,3.767,7.046Zm13.07.3H3.816a.5.5,0,0,0-.478.245.548.548,0,0,0,0,.557.5.5,0,0,0,.478.245H16.837a.529.529,0,0,0,0-1.047Z" transform="translate(-0.34 -1.151)" fill="#212121"/>
          </g>
        </g>
      </g>
    </g>
  </g>
</svg>
