<svg xmlns="http://www.w3.org/2000/svg" width="18.272" height="20" viewBox="0 0 18.272 20">
  <path id="delete-f" d="M11.886,1.75a3.21,3.21,0,0,1,3.2,3.028l.005.182h5.185a.741.741,0,0,1,.1,1.475l-.1.007h-.786L18.23,19.3a2.716,2.716,0,0,1-2.53,2.445l-.173.005H8.244a2.716,2.716,0,0,1-2.681-2.278L5.541,19.3,4.276,6.441H3.491a.741.741,0,0,1-.734-.64L2.75,5.7a.741.741,0,0,1,.64-.734l.1-.007H8.676A3.21,3.21,0,0,1,11.886,1.75Zm6.12,4.691H5.764L7.016,19.155a1.235,1.235,0,0,0,1.1,1.107l.126.006h7.283a1.235,1.235,0,0,0,1.21-.989l.019-.124ZM13.614,9.157a.741.741,0,0,1,.734.64l.007.1v6.914a.741.741,0,0,1-1.475.1l-.007-.1V9.9A.741.741,0,0,1,13.614,9.157Zm-3.457,0a.741.741,0,0,1,.734.64l.007.1v6.914a.741.741,0,0,1-1.475.1l-.007-.1V9.9A.741.741,0,0,1,10.157,9.157Zm1.728-5.926a1.729,1.729,0,0,0-1.723,1.587l-.006.142h3.457A1.728,1.728,0,0,0,11.886,3.231Z" transform="translate(-2.75 -1.75)" fill="#212121"/>
</svg>
