<svg width="17" height="15" viewBox="0 0 17 15" fill="none" xmlns="http://www.w3.org/2000/svg">
<path d="M11.4248 3.93392C11.2827 3.93392 11.1598 3.88202 11.056 3.77821C10.9522 3.67439 10.9002 3.55146 10.9002 3.4094C10.9002 3.13075 10.9522 2.86302 11.056 2.60622C11.1598 2.34943 11.3128 2.12268 11.5149 1.92598L12.1624 1.27033C12.37 1.06271 12.4738 0.814104 12.4738 0.524523C12.4738 0.382465 12.5257 0.25953 12.6295 0.155718C12.7333 0.0519059 12.8563 0 12.9983 0C13.1404 0 13.2633 0.0519059 13.3671 0.155718C13.471 0.25953 13.5229 0.382465 13.5229 0.524523C13.5229 0.803176 13.471 1.0709 13.3671 1.3277C13.2633 1.5845 13.1103 1.81124 12.9082 2.00794L12.2607 2.66359C12.0531 2.87122 11.9493 3.11982 11.9493 3.4094C11.9493 3.55146 11.8974 3.67439 11.7936 3.77821C11.6898 3.88202 11.5668 3.93392 11.4248 3.93392ZM8.27763 3.93392C8.13557 3.93392 8.01264 3.88202 7.90883 3.77821C7.80501 3.67439 7.75311 3.55146 7.75311 3.4094C7.75311 3.13075 7.80501 2.86302 7.90883 2.60622C8.01264 2.34943 8.16562 2.12268 8.36778 1.92598L9.01524 1.27033C9.22287 1.06271 9.32668 0.814104 9.32668 0.524523C9.32668 0.382465 9.37858 0.25953 9.4824 0.155718C9.58621 0.0519059 9.70914 0 9.8512 0C9.99326 0 10.1162 0.0519059 10.22 0.155718C10.3238 0.25953 10.3757 0.382465 10.3757 0.524523C10.3757 0.803176 10.3238 1.0709 10.22 1.3277C10.1162 1.5845 9.96321 1.81124 9.76105 2.00794L9.11359 2.66359C8.90597 2.87122 8.80215 3.11982 8.80215 3.4094C8.80215 3.55146 8.75025 3.67439 8.64644 3.77821C8.54262 3.88202 8.41969 3.93392 8.27763 3.93392ZM15.0964 5.37636C15.315 5.37636 15.5199 5.41734 15.7111 5.4993C15.9023 5.58125 16.069 5.69326 16.211 5.83532C16.3531 5.97738 16.4651 6.14402 16.5471 6.33526C16.629 6.52649 16.67 6.73138 16.67 6.94993V10.0971C16.67 10.3156 16.629 10.5205 16.5471 10.7117C16.4651 10.903 16.3531 11.0696 16.211 11.2117C16.069 11.3537 15.9023 11.4657 15.7111 11.5477C15.5199 11.6297 15.315 11.6706 15.0964 11.6706H14.6293C14.6184 11.7089 14.6102 11.7444 14.6047 11.7772C14.5992 11.81 14.5883 11.8427 14.5719 11.8755V12.1952C14.5719 12.5558 14.5036 12.8945 14.367 13.2114C14.2304 13.5283 14.0419 13.807 13.8015 14.0474C13.5611 14.2878 13.2825 14.4763 12.9656 14.6129C12.6487 14.7495 12.3099 14.8178 11.9493 14.8178H8.80215C8.37598 14.8178 7.98259 14.7222 7.62198 14.5309C7.26137 14.3397 6.96086 14.0856 6.72045 13.7687H2.62262C2.26201 13.7687 1.92325 13.7004 1.60635 13.5638C1.28945 13.4272 1.0108 13.2415 0.770393 13.0065C0.529987 12.7716 0.341486 12.4929 0.204892 12.1706C0.0682973 11.8482 0 11.5067 0 11.1461V10.6216H2.09809C2.09809 10.19 2.18005 9.7829 2.34396 9.40044C2.50788 9.01797 2.73462 8.68468 3.0242 8.40057C3.31378 8.11645 3.64707 7.8897 4.02408 7.72032C4.40108 7.55095 4.80813 7.46899 5.24523 7.47445C5.40914 7.47445 5.56759 7.48811 5.72058 7.51543C5.87357 7.54275 6.02655 7.581 6.17954 7.63017V4.32732H14.5719V5.37636H15.0964ZM5.24523 8.5235C4.95565 8.5235 4.68519 8.57814 4.43386 8.68741C4.18253 8.79669 3.95851 8.94694 3.76181 9.13818C3.56512 9.32941 3.41486 9.55069 3.31105 9.80202C3.20724 10.0534 3.1526 10.3265 3.14714 10.6216H6.17954V8.75298C6.03748 8.68195 5.88996 8.62731 5.73697 8.58907C5.58399 8.55082 5.42007 8.52896 5.24523 8.5235ZM2.62262 12.7197H6.23691C6.19866 12.5612 6.17954 12.3864 6.17954 12.1952V11.6706H1.1392C1.19384 11.8236 1.27033 11.963 1.36868 12.0886C1.46703 12.2143 1.57903 12.3263 1.7047 12.4246C1.83037 12.523 1.97243 12.594 2.13088 12.6377C2.28932 12.6814 2.45324 12.7088 2.62262 12.7197ZM6.41721 13.2688V13.277L6.42541 13.2934V13.2852L6.41721 13.2688ZM13.5229 12.1952V5.37636H7.22858V12.1952C7.22858 12.4137 7.26956 12.6186 7.35152 12.8098C7.43348 13.0011 7.54548 13.1677 7.68754 13.3098C7.8296 13.4518 7.99625 13.5638 8.18748 13.6458C8.37871 13.7278 8.5836 13.7687 8.80215 13.7687H11.9493C12.1678 13.7687 12.3727 13.7278 12.564 13.6458C12.7552 13.5638 12.9218 13.4518 13.0639 13.3098C13.206 13.1677 13.318 13.0011 13.3999 12.8098C13.4819 12.6186 13.5229 12.4137 13.5229 12.1952ZM15.621 10.0971V6.94993C15.621 6.80787 15.569 6.68494 15.4652 6.58113C15.3614 6.47731 15.2385 6.42541 15.0964 6.42541H14.5719V10.6216H15.0964C15.2385 10.6216 15.3614 10.5697 15.4652 10.4659C15.569 10.3621 15.621 10.2391 15.621 10.0971Z" fill="white"/>
</svg>
