<svg xmlns="http://www.w3.org/2000/svg" width="16.943" height="21.179" viewBox="0 0 16.943 21.179">
  <path id="ic_fluent_document_48_regular" d="M10.25,4A2.25,2.25,0,0,0,8,6.25V22.929a2.25,2.25,0,0,0,2.25,2.25H22.693a2.25,2.25,0,0,0,2.25-2.25v-11.3a1.192,1.192,0,0,0-.349-.842L18.154,4.349A1.191,1.191,0,0,0,17.311,4ZM9.324,6.25a.927.927,0,0,1,.927-.927h6.221V9.957a1.986,1.986,0,0,0,1.986,1.986H23.62V22.929a.927.927,0,0,1-.927.927H10.25a.927.927,0,0,1-.927-.927Zm13.228,4.368H18.457a.662.662,0,0,1-.662-.662V5.863Z" transform="translate(-8 -4)" fill="#212121"/>
</svg>
