<svg width="18" height="14" viewBox="0 0 18 14" fill="none" xmlns="http://www.w3.org/2000/svg">
<path d="M7.75534 9.50736L13.2837 5.7482C13.4409 5.63097 13.5789 5.49542 13.6978 5.34153C14.102 4.81653 14.0945 4.08653 13.8378 3.47653C13.5461 2.78925 13.0579 2.20341 12.4345 1.79247C11.8111 1.38153 11.0803 1.16378 10.3337 1.16653C9.55367 1.16653 8.82867 1.39903 8.22617 1.79736L2.32617 5.96403" stroke="white" stroke-linecap="round" stroke-linejoin="round"/>
<path d="M3.99613 8.25484C3.99613 8.83484 4.30363 9.98818 5.69613 10.3048C6.5353 10.4948 8.9778 9.69151 7.7828 7.36484C6.5878 5.03818 3.7103 5.02651 2.53947 5.80651C1.82363 6.23984 0.434466 7.59651 0.6978 9.39901C0.791966 10.4907 1.65197 12.7073 4.34363 12.834H12.587C13.3553 12.7732 13.5136 12.6615 14.0986 12.2132C14.8861 11.5065 16.2003 10.2065 16.9645 9.35068C17.1295 9.16651 17.307 8.97568 17.3303 8.72901C17.4511 7.41568 15.4578 7.98485 14.0136 7.82818" stroke="white" stroke-linecap="round" stroke-linejoin="round"/>
</svg>
