<svg id="google-drive" xmlns="http://www.w3.org/2000/svg" width="19" height="16.976" viewBox="0 0 19 16.976">
  <path id="Path_944" data-name="Path 944" d="M1.436,56.014l.838,1.447a1.976,1.976,0,0,0,.718.718L5.985,53H0a1.972,1.972,0,0,0,.261.979Z" transform="translate(0 -41.465)" fill="#0066da"/>
  <path id="Path_945" data-name="Path 945" d="M9.5,6.38,6.507,1.2a1.976,1.976,0,0,0-.718.718L.261,11.494A1.972,1.972,0,0,0,0,12.474H5.985Z" transform="translate(0 -0.939)" fill="#00ac47"/>
  <path id="Path_946" data-name="Path 946" d="M62.791,58.18a1.976,1.976,0,0,0,.718-.718l.348-.6,1.665-2.884A1.972,1.972,0,0,0,65.784,53H59.8l1.274,2.5Z" transform="translate(-46.784 -41.465)" fill="#ea4335"/>
  <path id="Path_947" data-name="Path 947" d="M32.893,5.441,35.885.261A1.913,1.913,0,0,0,34.906,0H30.879A2.026,2.026,0,0,0,29.9.261Z" transform="translate(-23.393 0)" fill="#00832d"/>
  <path id="Path_948" data-name="Path 948" d="M23.772,53h-7.03L13.75,58.18a1.913,1.913,0,0,0,.979.261H25.786a2.026,2.026,0,0,0,.979-.261Z" transform="translate(-10.757 -41.465)" fill="#2684fc"/>
  <path id="Path_949" data-name="Path 949" d="M50.125,6.706,47.361,1.918a1.976,1.976,0,0,0-.718-.718L43.65,6.38l3.515,6.094h5.974a1.972,1.972,0,0,0-.261-.979Z" transform="translate(-34.15 -0.939)" fill="#ffba00"/>
</svg>
