<svg xmlns="http://www.w3.org/2000/svg" width="21" height="21" viewBox="0 0 21 21">
  <g id="home" transform="translate(-348 -220)">
    <rect id="Rectangle_1292" data-name="Rectangle 1292" width="21" height="21" transform="translate(348 220)" fill="#1f76c1" opacity="0"/>
    <path id="home-2" data-name="home" d="M9.606,2.478a1.931,1.931,0,0,1,2.538,0l5.906,5.11a2.042,2.042,0,0,1,.7,1.544v8.8A1.551,1.551,0,0,1,17.219,19.5H14.156a1.551,1.551,0,0,1-1.531-1.571V12.994a.222.222,0,0,0-.219-.224H9.344a.222.222,0,0,0-.219.224v4.937A1.551,1.551,0,0,1,7.594,19.5H4.531A1.551,1.551,0,0,1,3,17.931v-8.8a2.041,2.041,0,0,1,.7-1.544ZM11.3,3.507a.644.644,0,0,0-.846,0L4.546,8.617a.68.68,0,0,0-.233.515v8.8a.222.222,0,0,0,.219.224H7.594a.222.222,0,0,0,.219-.224V12.994a1.551,1.551,0,0,1,1.531-1.571h3.063a1.551,1.551,0,0,1,1.531,1.571v4.937a.222.222,0,0,0,.219.224h3.063a.222.222,0,0,0,.219-.224v-8.8a.68.68,0,0,0-.233-.515Z" transform="translate(347.625 219.748)" fill="#1f76c1"/>
  </g>
</svg>
