<svg xmlns="http://www.w3.org/2000/svg" width="24" height="24" viewBox="0 0 24 24">
  <g id="info" transform="translate(-100 -1849)">
    <rect id="Rectangle_1635" data-name="Rectangle 1635" width="24" height="24" transform="translate(100 1849)" fill="#fff" opacity="0"/>
    <path id="info-f" d="M12,2A10,10,0,1,1,2,12,10,10,0,0,1,12,2Zm0,1.5A8.5,8.5,0,1,0,20.5,12,8.5,8.5,0,0,0,12,3.5Zm0,7a.75.75,0,0,1,.744.648l.007.1,0,5.5a.75.75,0,0,1-1.493.1l-.007-.1,0-5.5A.75.75,0,0,1,12,10.5ZM12,7a1,1,0,1,1-1,1A1,1,0,0,1,12,7Z" transform="translate(100 1849)" fill="#212121"/>
  </g>
</svg>
