<svg width="17" height="15" viewBox="0 0 17 15" fill="none" xmlns="http://www.w3.org/2000/svg">
<path d="M1.41783 14.0379C1.01365 14.0379 0.676451 13.9028 0.406221 13.6326C0.135992 13.3623 0.000584912 13.0248 0 12.6201V1.41783C0 1.01365 0.135407 0.676451 0.406221 0.406222C0.677036 0.135992 1.01424 0.000584912 1.41783 0H12.6209C13.0245 0 13.3617 0.135407 13.6326 0.406222C13.9034 0.677036 14.0385 1.01424 14.0379 1.41783V6.78294C14.0379 6.90694 13.9958 7.01105 13.9116 7.09528C13.8273 7.17951 13.7229 7.22162 13.5983 7.22162C13.4737 7.22162 13.3696 7.17951 13.286 7.09528C13.2023 7.01105 13.1605 6.90694 13.1605 6.78294V1.41783C13.1605 1.28271 13.1044 1.15871 12.9921 1.04582C12.8798 0.932935 12.7558 0.876784 12.6201 0.877368H1.41783C1.28271 0.877368 1.15871 0.93352 1.04582 1.04582C0.932935 1.15813 0.876784 1.28184 0.877368 1.41695V12.6209C0.877368 12.7555 0.93352 12.8792 1.04582 12.9921C1.15813 13.105 1.28184 13.1611 1.41695 13.1605H3.64459C3.76859 13.1605 3.8727 13.2026 3.95693 13.2869C4.04116 13.3711 4.08327 13.4755 4.08327 13.6001C4.08327 13.7247 4.04116 13.8288 3.95693 13.9124C3.8727 13.9961 3.76859 14.0379 3.64459 14.0379H1.41783ZM0.877368 12.2832V13.1605V0.877368V12.2832ZM3.07079 9.04391V10.2582C3.07079 10.4594 3.13864 10.6279 3.27434 10.7636C3.41004 10.8993 3.57849 10.9671 3.7797 10.9671H3.98501C4.13591 10.4419 4.35233 9.95462 4.63426 9.50541C4.91619 9.0562 5.25778 8.66606 5.65903 8.335H3.77093C3.57323 8.335 3.40711 8.40285 3.27258 8.53855C3.13805 8.67425 3.07079 8.8427 3.07079 9.04391ZM3.07079 3.7797V4.99398C3.07079 5.19461 3.13864 5.36306 3.27434 5.49935C3.41004 5.63563 3.57849 5.70348 3.7797 5.7029H4.99398C5.19519 5.7029 5.36365 5.63504 5.49935 5.49935C5.63504 5.36365 5.7029 5.19519 5.7029 4.99398V3.7797C5.7029 3.57849 5.63504 3.41004 5.49935 3.27434C5.36365 3.13864 5.19519 3.07079 4.99398 3.07079H3.7797C3.57908 3.07079 3.41062 3.13864 3.27434 3.27434C3.13805 3.41004 3.0702 3.57849 3.07079 3.7797ZM8.77368 14.9153C8.05015 14.9153 7.43043 14.6576 6.91454 14.1423C6.39865 13.627 6.14099 13.0073 6.14158 12.2832C6.14216 11.559 6.39982 10.9393 6.91454 10.424C7.42926 9.90871 8.04898 9.65105 8.77368 9.65105H9.92128C10.0453 9.65105 10.1494 9.69317 10.2336 9.77739C10.3179 9.86162 10.36 9.96603 10.36 10.0906C10.36 10.2152 10.3179 10.3193 10.2336 10.403C10.1494 10.4866 10.0453 10.5284 9.92128 10.5284H8.77368C8.29113 10.5284 7.87818 10.7004 7.53484 11.0443C7.1915 11.3882 7.01953 11.8012 7.01895 12.2832C7.01836 12.7651 7.19033 13.1784 7.53484 13.5229C7.87935 13.8674 8.2923 14.0391 8.77368 14.0379H9.92128C10.0453 14.0379 10.1494 14.08 10.2336 14.1642C10.3179 14.2485 10.36 14.3529 10.36 14.4775C10.36 14.602 10.3179 14.7062 10.2336 14.7898C10.1494 14.8734 10.0453 14.9153 9.92128 14.9153H8.77368ZM9.04391 5.7029H10.2582C10.4594 5.7029 10.6279 5.63504 10.7636 5.49935C10.8993 5.36365 10.9671 5.19519 10.9671 4.99398V3.7797C10.9671 3.57849 10.8993 3.41004 10.7636 3.27434C10.6279 3.13864 10.4594 3.07079 10.2582 3.07079H9.04391C8.84329 3.07079 8.67483 3.13864 8.53855 3.27434C8.40227 3.41004 8.33442 3.57849 8.335 3.7797V4.99398C8.335 5.19519 8.40285 5.36365 8.53855 5.49935C8.67425 5.63504 8.8427 5.7029 9.04391 5.7029ZM9.21237 12.7218C9.08778 12.7218 8.98367 12.6797 8.90003 12.5955C8.81638 12.5113 8.77427 12.4069 8.77368 12.2823C8.7731 12.1577 8.81521 12.0536 8.90003 11.9699C8.98484 11.8863 9.08895 11.8445 9.21237 11.8445H13.5992C13.7238 11.8445 13.8279 11.8866 13.9116 11.9708C13.9952 12.055 14.0373 12.1594 14.0379 12.284C14.0385 12.4086 13.9964 12.5127 13.9116 12.5964C13.8267 12.68 13.7226 12.7218 13.5992 12.7218H9.21237ZM14.0379 14.9153H12.8903C12.7663 14.9153 12.6622 14.8732 12.578 14.7889C12.4937 14.7047 12.4516 14.6003 12.4516 14.4757C12.4516 14.3511 12.4937 14.247 12.578 14.1634C12.6622 14.0797 12.7663 14.0379 12.8903 14.0379H14.0379C14.5204 14.0379 14.9337 13.8662 15.2776 13.5229C15.6215 13.1795 15.7932 12.7663 15.7926 12.2832C15.792 11.8 15.6204 11.3871 15.2776 11.0443C14.9349 10.7016 14.5216 10.5296 14.0379 10.5284H12.8903C12.7663 10.5284 12.6622 10.4863 12.578 10.4021C12.4937 10.3179 12.4516 10.2134 12.4516 10.0889C12.4516 9.96427 12.4937 9.86016 12.578 9.77652C12.6622 9.69287 12.7663 9.65105 12.8903 9.65105H14.0379C14.762 9.65105 15.3817 9.90666 15.897 10.4179C16.4123 10.9285 16.67 11.552 16.67 12.2884C16.67 13.0137 16.4123 13.6328 15.897 14.1458C15.3817 14.6588 14.762 14.9153 14.0379 14.9153Z" fill="white"/>
</svg>
