<svg width="20" height="20" viewBox="0 0 20 20" fill="none" xmlns="http://www.w3.org/2000/svg">
<path d="M9.25654 1.42135C9.69173 0.975042 10.2112 0.619592 10.7849 0.375618C11.3585 0.131644 11.9749 0.00400202 12.5982 9.6249e-05C13.2216 -0.00380952 13.8395 0.116099 14.4161 0.352865C14.9928 0.589632 15.5167 0.938544 15.9575 1.37936C16.3982 1.82018 16.747 2.34413 16.9837 2.92081C17.2204 3.49749 17.3402 4.11544 17.3362 4.73879C17.3323 5.36214 17.2045 5.9785 16.9605 6.5521C16.7164 7.12571 16.3609 7.64514 15.9145 8.08027L8.59074 15.405C8.32922 15.6709 8.01764 15.8823 7.67398 16.0272C7.33032 16.1721 6.96138 16.2475 6.58844 16.249C6.2155 16.2506 5.84594 16.1783 5.50108 16.0363C5.15622 15.8943 4.84289 15.6855 4.57914 15.4218C4.3154 15.1581 4.10648 14.8448 3.96442 14.5C3.82236 14.1552 3.74998 13.7856 3.75146 13.4127C3.75293 13.0398 3.82823 12.6708 3.97301 12.3271C4.11779 11.9834 4.32919 11.6718 4.595 11.4102L11.9197 4.08548L13.2513 5.41708L5.9266 12.7418C5.83666 12.8287 5.76491 12.9326 5.71556 13.0475C5.66621 13.1624 5.64023 13.286 5.63914 13.411C5.63805 13.536 5.66188 13.66 5.70923 13.7758C5.75658 13.8915 5.82651 13.9967 5.91493 14.0851C6.00335 14.1735 6.10849 14.2434 6.22423 14.2908C6.33996 14.3381 6.46397 14.3619 6.58901 14.3609C6.71405 14.3598 6.83763 14.3338 6.95252 14.2844C7.06741 14.2351 7.17133 14.1633 7.2582 14.0734L14.5839 6.74868C14.8462 6.48631 15.0543 6.17484 15.1963 5.83205C15.3383 5.48925 15.4114 5.12185 15.4114 4.75081C15.4114 4.37977 15.3383 4.01237 15.1963 3.66957C15.0543 3.32678 14.8462 3.01531 14.5839 2.75294C14.3215 2.49058 14.01 2.28246 13.6672 2.14047C13.3244 1.99848 12.957 1.9254 12.586 1.9254C12.215 1.9254 11.8476 1.99848 11.5048 2.14047C11.162 2.28246 10.8505 2.49058 10.5881 2.75294L3.26341 10.0786C2.40569 10.9667 1.93109 12.1561 1.94182 13.3907C1.95255 14.6252 2.44775 15.8062 3.32077 16.6792C4.19378 17.5523 5.37476 18.0475 6.60934 18.0582C7.84393 18.0689 9.03334 17.5943 9.92139 16.7366L17.9129 8.74607L19.2445 10.0786L11.2539 18.0691C10.0176 19.3054 8.34081 20 6.5924 20C4.84399 20 3.16718 19.3054 1.93087 18.0691C0.694554 16.8328 1.30267e-08 15.156 0 13.4076C-1.30267e-08 11.6592 0.694554 9.98239 1.93087 8.74607L9.25654 1.42135Z" fill="white"/>
</svg>
