<svg width="17" height="21" viewBox="0 0 17 21" fill="none" xmlns="http://www.w3.org/2000/svg">
<path d="M8.10127 15.038L8.10009 15.038C7.94077 15.0384 7.82996 14.9899 7.73381 14.8938C7.63759 14.7976 7.58861 14.6861 7.58861 14.5253V10.4747C7.58861 10.316 7.63715 10.2042 7.73442 10.1066C7.8307 10.01 7.94132 9.96165 8.10009 9.96202C8.26072 9.9624 8.3727 10.0115 8.46934 10.1078C8.56498 10.2031 8.61392 10.314 8.61392 10.4747L8.61392 14.5253L8.61392 14.5265C8.6143 14.6858 8.56589 14.7966 8.46974 14.8928C8.37352 14.989 8.262 15.038 8.10127 15.038ZM8.10127 6.9367L8.0989 6.93671C7.94154 6.93746 7.83094 6.88965 7.73381 6.79252C7.63662 6.69533 7.58823 6.58402 7.58861 6.42523C7.58899 6.26459 7.63812 6.15262 7.73442 6.05598C7.82973 5.96034 7.94055 5.91139 8.10127 5.91139C8.26198 5.91139 8.3728 5.96034 8.46811 6.05598L8.82228 5.70304L8.46811 6.05598C8.56441 6.15262 8.61355 6.26459 8.61392 6.42523C8.6143 6.58455 8.56589 6.69536 8.46974 6.79151C8.37352 6.88772 8.262 6.93671 8.10127 6.9367ZM15.7025 4.77768V4.77848V9.56329C15.7025 11.8245 15.0583 13.9364 13.7596 15.9091C12.4696 17.8686 10.7456 19.2018 8.57619 19.9243L8.57606 19.9244C8.49859 19.9502 8.42269 19.9691 8.34818 19.9815C8.27778 19.9932 8.19589 20 8.10127 20C8.00664 20 7.92476 19.9932 7.85435 19.9815C7.77984 19.9691 7.70394 19.9502 7.62647 19.9244L7.46835 20.3987L7.62647 19.9244C5.45696 19.2012 3.73296 17.8676 2.44294 15.9081C1.14422 13.9354 0.5 11.8238 0.5 9.56329V4.77848C0.5 4.46076 0.589907 4.18409 0.772208 3.93299C0.960599 3.6735 1.19883 3.48887 1.49569 3.37185L7.56406 1.09621C7.7485 1.03075 7.92685 1 8.10127 1C8.27568 1 8.45403 1.03075 8.63846 1.09621L14.707 3.37191C15.0046 3.489 15.2431 3.67367 15.4313 3.93299C15.6135 4.18387 15.703 4.46023 15.7025 4.77768ZM16.2025 4.77848V9.56329C16.2025 11.9262 15.5274 14.1331 14.1772 16.1841C12.827 18.235 11.0127 19.6399 8.73418 20.3987L16.2025 4.77848ZM7.95004 18.9513L8.10127 18.9993L8.25249 18.9513C10.1247 18.3572 11.6639 17.1688 12.8678 15.416C14.0732 13.6611 14.6772 11.7058 14.6772 9.56329V4.77848V4.43198L14.3528 4.31032L8.27683 2.03184L8.10127 1.966L7.9257 2.03184L1.84975 4.31032L1.52532 4.43198V4.77848V9.56329C1.52532 11.7058 2.12933 13.6611 3.33469 15.416C4.53865 17.1688 6.07788 18.3572 7.95004 18.9513Z" stroke="white"/>
</svg>
