<svg width="12" height="18" viewBox="0 0 12 18" fill="none" xmlns="http://www.w3.org/2000/svg">
<path fill-rule="evenodd" clip-rule="evenodd" d="M3.73914 12.1054C3.80821 12.0872 3.88082 12.0869 3.94999 12.1048C4.01916 12.1227 4.08258 12.1581 4.13414 12.2075L5.48789 13.5059C5.54298 13.5588 5.58245 13.6258 5.602 13.6997C5.62155 13.7735 5.62041 13.8514 5.59872 13.9246L5.30331 14.9221C5.22963 15.1711 5.08021 15.3911 4.87581 15.5513L2.94122 17.0663C2.81219 17.1694 2.66401 17.2458 2.50524 17.2913C2.34647 17.3368 2.18026 17.3504 2.01622 17.3312C1.85217 17.3121 1.69355 17.2607 1.54951 17.1799C1.40546 17.0991 1.27886 16.9905 1.17701 16.8605C1.07516 16.7305 1.00008 16.5816 0.956116 16.4224C0.91215 16.2632 0.900168 16.0969 0.920862 15.933C0.941555 15.7692 0.994514 15.6111 1.07668 15.4678C1.15884 15.3245 1.26858 15.199 1.39956 15.0984L3.01997 13.8292L3.44622 12.3896C3.46658 12.3211 3.50421 12.259 3.55551 12.2092C3.60681 12.1594 3.67004 12.1237 3.73914 12.1054ZM4.05122 13.2821L3.78081 14.1934C3.75622 14.2763 3.70642 14.3496 3.63831 14.4029L1.91331 15.7546C1.82927 15.8237 1.77559 15.9229 1.76374 16.0311C1.7519 16.1392 1.78283 16.2477 1.84993 16.3334C1.91702 16.419 2.01496 16.4751 2.1228 16.4894C2.23065 16.5038 2.33984 16.4755 2.42706 16.4104L4.36164 14.895C4.4299 14.8417 4.47986 14.7685 4.50456 14.6854L4.72789 13.9313L4.05122 13.2821ZM7.66664 4.00002C7.99816 4.00002 8.3161 3.86832 8.55052 3.6339C8.78494 3.39948 8.91664 3.08154 8.91664 2.75002C8.91664 2.4185 8.78494 2.10056 8.55052 1.86614C8.3161 1.63172 7.99816 1.50002 7.66664 1.50002C7.33512 1.50002 7.01718 1.63172 6.78276 1.86614C6.54834 2.10056 6.41664 2.4185 6.41664 2.75002C6.41664 3.08154 6.54834 3.39948 6.78276 3.6339C7.01718 3.86832 7.33512 4.00002 7.66664 4.00002ZM7.66664 4.83335C8.21917 4.83335 8.74908 4.61386 9.13978 4.22316C9.53048 3.83246 9.74997 3.30255 9.74997 2.75002C9.74997 2.19749 9.53048 1.66758 9.13978 1.27688C8.74908 0.88618 8.21917 0.666687 7.66664 0.666687C7.11411 0.666687 6.5842 0.88618 6.1935 1.27688C5.8028 1.66758 5.58331 2.19749 5.58331 2.75002C5.58331 3.30255 5.8028 3.83246 6.1935 4.22316C6.5842 4.61386 7.11411 4.83335 7.66664 4.83335Z" fill="white"/>
<path fill-rule="evenodd" clip-rule="evenodd" d="M5.05703 4.98502C5.65203 4.76419 6.29119 4.77668 6.86494 5.07377C7.41078 5.35585 7.78036 5.83335 8.01286 6.33252C8.0998 6.51918 8.18078 6.69405 8.25578 6.8571C8.43911 7.2546 8.58911 7.58085 8.73286 7.86544C8.93536 8.26835 9.08369 8.5046 9.21453 8.6571C9.32703 8.78752 9.42328 8.85377 9.54744 8.9021C9.69328 8.9596 9.93203 9.01169 10.3566 9.0246C10.6653 9.03383 10.9576 9.16529 11.1693 9.39006C11.381 9.61483 11.4948 9.9145 11.4856 10.2231C11.4763 10.5318 11.3449 10.8241 11.1201 11.0358C10.8953 11.2476 10.5957 11.3613 10.287 11.3521C9.72161 11.335 9.18953 11.2625 8.69994 11.0713C8.18828 10.8713 7.78453 10.5659 7.44786 10.1734C7.40781 10.1268 7.36891 10.0793 7.33119 10.0309L7.16328 10.9075L8.98286 12.7029C9.09911 12.8171 9.18953 12.9546 9.24911 13.1063L10.2841 15.7438C10.34 15.8861 10.3672 16.038 10.3643 16.1909C10.3615 16.3437 10.3285 16.4945 10.2674 16.6346C10.2062 16.7748 10.1181 16.9015 10.0079 17.0075C9.89782 17.1136 9.76789 17.1969 9.62557 17.2527C9.48325 17.3086 9.33132 17.3358 9.17847 17.333C9.02561 17.3301 8.87482 17.2971 8.7347 17.236C8.59458 17.1748 8.46788 17.0867 8.36183 16.9766C8.25577 16.8664 8.17245 16.7365 8.11661 16.5942L7.17161 14.1871L3.89703 10.9559C3.77167 10.8319 3.67603 10.6812 3.61729 10.515C3.55855 10.3488 3.53823 10.1714 3.55786 9.99627L3.69328 8.80044C3.32161 9.28085 3.00911 9.85877 2.79078 10.5421C2.6969 10.8363 2.49001 11.0811 2.21562 11.2227C1.94123 11.3644 1.62182 11.3912 1.32765 11.2973C1.03348 11.2034 0.788654 10.9965 0.647025 10.7222C0.505396 10.4478 0.478569 10.1284 0.572444 9.83419C1.30911 7.52669 2.97536 5.78877 5.04328 4.99044L5.04578 4.98918L5.05703 4.98502ZM5.34869 5.76585L5.34203 5.76835C3.51619 6.47377 2.02786 8.0146 1.36661 10.0875C1.3534 10.1289 1.34846 10.1725 1.3521 10.2158C1.35573 10.2591 1.36785 10.3013 1.38778 10.3399C1.40771 10.3785 1.43504 10.4128 1.46823 10.4409C1.50141 10.4689 1.5398 10.4901 1.58119 10.5034C1.62259 10.5166 1.66618 10.5215 1.70948 10.5179C1.75278 10.5142 1.79494 10.5021 1.83355 10.4822C1.87217 10.4623 1.90648 10.4349 1.93453 10.4017C1.96258 10.3685 1.98381 10.3302 1.99703 10.2888C2.41119 8.99169 3.13244 8.01043 3.98036 7.31793C4.0445 7.2656 4.12277 7.23356 4.20519 7.22589C4.28762 7.21823 4.37045 7.23529 4.44314 7.27489C4.51583 7.3145 4.57507 7.37486 4.61332 7.44828C4.65156 7.52169 4.66707 7.60484 4.65786 7.6871L4.38619 10.09C4.38076 10.1398 4.38659 10.1901 4.40325 10.2372C4.41991 10.2844 4.44698 10.3272 4.48244 10.3625L7.81994 13.6559C7.86189 13.6972 7.89369 13.7453 7.91536 13.8L8.89244 16.29C8.90774 16.3312 8.9311 16.369 8.96116 16.4011C8.99121 16.4331 9.02736 16.4589 9.06749 16.4769C9.10761 16.4948 9.15092 16.5046 9.19487 16.5056C9.23881 16.5066 9.28253 16.4989 9.32345 16.4828C9.36437 16.4668 9.40168 16.4427 9.4332 16.4121C9.46472 16.3814 9.48982 16.3448 9.50703 16.3044C9.52423 16.2639 9.53321 16.2205 9.53342 16.1765C9.53364 16.1325 9.52509 16.089 9.50828 16.0484L8.47328 13.4109C8.45641 13.3677 8.43072 13.3285 8.39786 13.2959L6.41953 11.3442C6.37075 11.2961 6.33459 11.2367 6.31424 11.1713C6.29389 11.1059 6.28998 11.0365 6.30286 10.9692L6.71161 8.83377C6.7278 8.74883 6.77002 8.67104 6.8324 8.61117C6.89479 8.5513 6.97426 8.51232 7.05979 8.49964C7.14532 8.48696 7.23268 8.5012 7.30975 8.54039C7.38683 8.57957 7.4498 8.64177 7.48994 8.71835C7.67744 9.07544 7.86494 9.38085 8.07994 9.63085C8.33661 9.9296 8.63036 10.1492 9.00328 10.295C9.36994 10.4384 9.79703 10.5034 10.3116 10.5188C10.3555 10.5209 10.3994 10.5143 10.4407 10.4993C10.4821 10.4843 10.52 10.4612 10.5523 10.4313C10.5846 10.4015 10.6106 10.3655 10.6288 10.3255C10.647 10.2855 10.6571 10.2423 10.6584 10.1983C10.6598 10.1544 10.6523 10.1106 10.6365 10.0696C10.6208 10.0286 10.597 9.99108 10.5665 9.95935C10.5361 9.92761 10.4997 9.90227 10.4593 9.88478C10.419 9.8673 10.3756 9.85803 10.3316 9.85752C9.85661 9.84335 9.51328 9.78377 9.24411 9.67835C8.98161 9.57585 8.77494 9.42419 8.58244 9.1996C8.38411 8.96919 8.19994 8.66044 7.98869 8.24044C7.82056 7.90008 7.65803 7.55698 7.50119 7.21127L7.49911 7.20627C7.42439 7.04321 7.34383 6.86918 7.25744 6.68418C7.07828 6.30002 6.81994 5.98835 6.48244 5.81377C6.13744 5.63544 5.74536 5.61877 5.34869 5.76585Z" fill="white"/>
</svg>
