<svg id="onedrive" xmlns="http://www.w3.org/2000/svg" width="20" height="12.802" viewBox="0 0 20 12.802">
  <path id="Path" d="M2.689,3.557h0l4.2,2.514,2.5-1.053A4.047,4.047,0,0,1,11,4.686c.092,0,.184,0,.274.01A6.248,6.248,0,0,0,0,2.814l.064,0a4.974,4.974,0,0,1,2.625.745Z" transform="translate(4.928 0)" fill="#0364b8"/>
  <path id="Path-2" data-name="Path" d="M7.624.745A4.972,4.972,0,0,0,5,0L4.934,0A5,5,0,0,0,.9,7.858L4.6,6.3l1.646-.693L9.907,4.065,11.82,3.26Z" transform="translate(0 2.818)" fill="#0078d4"/>
  <path id="Path-3" data-name="Path" d="M4.39.01Q4.252,0,4.115,0A4.053,4.053,0,0,0,2.5.333L0,1.385l.726.434,2.38,1.424,1.038.621L7.694,5.99A4.063,4.063,0,0,0,4.39.01Z" transform="translate(11.82 4.686)" fill="#1490df"/>
  <path id="Path-4" data-name="Path" d="M15.067,2.477l-1.037-.62L11.652.433,10.927,0,9.013.8,5.349,2.344,3.7,3.036,0,4.592A4.994,4.994,0,0,0,4.1,6.731H15.039A4.062,4.062,0,0,0,18.615,4.6Z" transform="translate(0.902 6.071)" fill="#28a8ea"/>
</svg>
