<svg width="17" height="17" viewBox="0 0 17 17" fill="none" xmlns="http://www.w3.org/2000/svg">
<path d="M11.662 9.77828L11.662 9.77829L15.3517 11.4318C15.3519 11.4319 15.3521 11.4319 15.3522 11.432C15.5876 11.5348 15.7836 11.7108 15.911 11.9339C16.0386 12.1571 16.0906 12.4155 16.0594 12.6707L16.0593 12.6717C15.9218 13.7166 15.4085 14.6757 14.6155 15.3699C13.8225 16.064 12.8039 16.4457 11.75 16.4438C11.7499 16.4438 11.7499 16.4438 11.7498 16.4438L11.75 16.3438C5.63282 16.3438 0.656259 11.3672 0.656259 5.25001L11.662 9.77828ZM11.662 9.77828L11.6605 9.77763C11.478 9.69943 11.2788 9.66799 11.0811 9.68615C10.8837 9.70429 10.6939 9.77132 10.5289 9.88117M11.662 9.77828L5.44451 8.50135C6.03522 9.70343 7.30256 10.9633 8.52191 11.5523C8.52832 11.5551 8.53529 11.5564 8.54231 11.5562C8.54707 11.556 8.55177 11.5551 8.55624 11.5535L10.4742 9.92225C10.4743 9.92212 10.4745 9.92199 10.4746 9.92186C10.4917 9.90702 10.5098 9.89343 10.5289 9.88117M10.5289 9.88117C10.5291 9.88102 10.5293 9.88086 10.5296 9.88071L10.5836 9.96486L10.5281 9.88165C10.5284 9.88149 10.5286 9.88133 10.5289 9.88117ZM11.7503 15.3063H11.75C6.20524 15.3063 1.69376 10.7948 1.69376 5.25001L1.69376 5.24969C1.69123 4.47237 1.97179 3.72071 2.48303 3.13517C2.99283 2.55127 3.69723 2.17237 4.46527 2.06876H4.4754C4.48649 2.06911 4.49723 2.07272 4.50628 2.07916C4.51551 2.08574 4.52255 2.09495 4.52645 2.10559L4.52623 2.10567L4.52906 2.11198L6.17749 5.79245L6.17749 5.79245L6.17789 5.79332C6.18128 5.80069 6.18303 5.80871 6.18303 5.81681C6.18303 5.82149 6.18244 5.82614 6.1813 5.83065L4.54372 7.77465C4.52859 7.79192 4.51474 7.81029 4.5023 7.82959C4.38966 8.00154 4.32334 8.19966 4.30974 8.40477C4.29615 8.60987 4.33575 8.81501 4.4247 9.00032L4.425 9.00093C5.12791 10.44 6.57403 11.8749 8.02838 12.5776L8.02901 12.5779C8.2154 12.6663 8.42154 12.705 8.62732 12.69C8.8331 12.6751 9.03149 12.6071 9.20315 12.4926L9.20413 12.4919C9.22087 12.4805 9.23837 12.4676 9.25544 12.4534L9.25622 12.4527L11.174 10.8209C11.1783 10.8194 11.1828 10.8185 11.1874 10.8182C11.194 10.8178 11.2005 10.8187 11.2067 10.8208L14.8951 12.4733L14.8951 12.4733L14.8968 12.474C14.9076 12.4787 14.9167 12.4866 14.9229 12.4967C14.9286 12.5062 14.9314 12.5173 14.9309 12.5284C14.8285 13.2981 14.4497 14.0043 13.8651 14.5154C13.2796 15.0272 12.5279 15.3084 11.7503 15.3063Z" fill="#0B1420" stroke="#0B1420" stroke-width="0.2"/>
</svg>
