<svg width="20" height="20" viewBox="0 0 20 20" fill="none" xmlns="http://www.w3.org/2000/svg">
<g clip-path="url(#clip0_620_862)">
<path d="M18.2282 13.3334L13.8897 11.3891C13.6932 11.3049 13.4787 11.271 13.2657 11.2906C13.0528 11.3101 12.848 11.3825 12.6701 11.5012C12.652 11.5128 12.6348 11.5256 12.6187 11.5397L10.3511 13.4684C10.3276 13.4812 10.3014 13.4884 10.2746 13.4893C10.2479 13.4903 10.2212 13.485 10.1969 13.4739C8.73935 12.7704 7.22951 11.2697 6.52326 9.83243C6.5115 9.80841 6.50538 9.78202 6.50538 9.75528C6.50538 9.72854 6.5115 9.70215 6.52326 9.67814L8.45832 7.38214C8.47221 7.36515 8.48509 7.34737 8.49689 7.32887C8.61389 7.15025 8.68455 6.9453 8.70251 6.73253C8.72047 6.51976 8.68516 6.30587 8.59976 6.11016L6.66928 1.77899C6.55965 1.52332 6.37006 1.3101 6.12895 1.17133C5.88785 1.03256 5.60824 0.975736 5.3321 1.00938C4.13196 1.16715 3.03033 1.75653 2.23307 2.66736C1.43582 3.57819 0.997495 4.74816 1.00001 5.95862C1.00001 13.1497 6.85021 18.9999 14.0413 18.9999C15.2517 19.0022 16.4215 18.5638 17.3323 17.7666C18.2431 16.9694 18.8325 15.8679 18.9905 14.6678C19.0241 14.3929 18.968 14.1146 18.8307 13.8742C18.6933 13.6337 18.4821 13.4441 18.2282 13.3334ZM14.0413 17.8978C7.45819 17.8978 2.10209 12.5417 2.10209 5.95862C2.09902 5.01628 2.43914 4.10506 3.05892 3.3952C3.67869 2.68534 4.53571 2.22542 5.46985 2.10135H5.49098C5.52799 2.10204 5.56393 2.1139 5.59408 2.13537C5.62423 2.15684 5.6472 2.18692 5.65996 2.22166L7.59778 6.54824C7.60883 6.57229 7.61456 6.59845 7.61456 6.62492C7.61456 6.65139 7.60883 6.67755 7.59778 6.70161L5.65905 9.00312C5.64458 9.01954 5.63138 9.03704 5.61955 9.05546C5.49824 9.24067 5.4268 9.45405 5.41216 9.67497C5.39752 9.89588 5.44017 10.1168 5.53598 10.3164C6.3506 11.9842 8.03127 13.652 9.71745 14.4667C9.91821 14.5619 10.1402 14.6036 10.3619 14.5875C10.5835 14.5714 10.7972 14.4981 10.9821 14.3748C10.9995 14.3629 11.017 14.35 11.0335 14.3363L13.3001 12.4076C13.3225 12.3956 13.3472 12.3885 13.3726 12.387C13.3979 12.3854 13.4234 12.3893 13.4471 12.3984L17.7865 14.3427C17.8219 14.3578 17.8517 14.3836 17.8717 14.4166C17.8916 14.4496 17.9007 14.488 17.8976 14.5264C17.7742 15.4609 17.3147 16.3186 16.605 16.9391C15.8953 17.5595 14.9839 17.9003 14.0413 17.8978Z" stroke="white"/>
</g>
<defs>
<clipPath id="clip0_620_862">
<rect width="20" height="20" fill="white"/>
</clipPath>
</defs>
</svg>
