<svg width="19" height="23" viewBox="0 0 19 23" fill="none" xmlns="http://www.w3.org/2000/svg">
<mask id="path-1-outside-1_539_6142" maskUnits="userSpaceOnUse" x="0" y="-0.5" width="19" height="24" fill="black">
<rect fill="white" y="-0.5" width="19" height="24"/>
<path d="M4.5292 16.2879L3.2972 16.5622C2.64413 16.7039 2.05956 17.0657 1.64138 17.5869C1.22319 18.1082 0.996774 18.7572 1.00003 19.4255V20.0188C1.0006 20.4207 1.1329 20.8113 1.37668 21.1309C1.62045 21.4504 1.96226 21.6812 2.34973 21.7879C3.53957 22.1124 5.79787 22.5 9.80004 22.5C13.8022 22.5 16.0605 22.1124 17.2503 21.7879C17.6378 21.6812 17.9796 21.4504 18.2234 21.1309C18.4672 20.8113 18.5995 20.4207 18.6 20.0188V19.4255C18.6033 18.7572 18.3769 18.1082 17.9587 17.5869C17.5405 17.0657 16.9559 16.7039 16.3029 16.5622L15.0709 16.2879L13.3901 15.28L12.7143 13.7033L12.9343 13.4499L13.0997 13.4943C13.2727 13.5401 13.4509 13.5634 13.6299 13.5636C14.1705 13.5624 14.6887 13.3468 15.0705 12.9641C15.4524 12.5813 15.6668 12.0627 15.6667 11.522V11.082C15.9807 11.0009 16.259 10.818 16.4581 10.5619C16.6571 10.3058 16.7656 9.991 16.7667 9.66667V8.2C16.7655 7.87579 16.6569 7.56112 16.4579 7.30518C16.2588 7.04923 15.9806 6.86645 15.6667 6.7854V6.36667C15.6667 4.81073 15.0486 3.31852 13.9484 2.21831C12.8482 1.11809 11.356 0.5 9.80004 0.5C8.2441 0.5 6.75189 1.11809 5.65167 2.21831C4.55146 3.31852 3.93337 4.81073 3.93337 6.36667V6.7854C3.61945 6.86645 3.34123 7.04923 3.14221 7.30518C2.94319 7.56112 2.83458 7.87579 2.83337 8.2V9.66667C2.83337 10.0557 2.98789 10.4287 3.26294 10.7038C3.538 10.9788 3.91105 11.1333 4.30003 11.1333H5.03337C5.15856 11.1321 5.28261 11.1093 5.40003 11.0659V11.1924C5.39982 11.7158 5.58981 12.2216 5.93463 12.6154L6.88797 13.7026L6.21183 15.2792L4.5292 16.2879ZM6.3959 16.0236C7.05911 16.8974 7.96721 17.5544 9.00473 17.9108C8.65116 18.257 8.3574 18.6595 8.13537 19.1017C6.98111 18.5629 5.97462 17.7524 5.20203 16.7397L6.3959 16.0236ZM17.8667 19.4255V20.0188C17.8669 20.2602 17.7877 20.495 17.6414 20.6871C17.4952 20.8792 17.2899 21.018 17.0571 21.0821C15.9105 21.3934 13.7208 21.7667 9.80004 21.7667C5.87927 21.7667 3.68953 21.3934 2.54297 21.0803C2.31049 21.0163 2.10541 20.8778 1.95918 20.686C1.81294 20.4943 1.73362 20.2599 1.73337 20.0188V19.4255C1.73085 18.9243 1.90071 18.4374 2.21446 18.0464C2.52821 17.6555 2.96679 17.3843 3.4567 17.2783L4.5105 17.044C4.92373 17.5988 6.17663 19.1215 7.95057 19.8175C8.10234 19.8758 8.2706 19.8744 8.42139 19.8136C8.57218 19.7527 8.6943 19.637 8.7631 19.4897C9.00364 18.9807 9.35851 18.5343 9.80004 18.1851C10.2417 18.5342 10.5968 18.9805 10.8377 19.4893C10.8897 19.6 10.972 19.6936 11.0752 19.7593C11.1784 19.8249 11.2981 19.8598 11.4203 19.86C11.4992 19.8601 11.5773 19.8453 11.6506 19.8164C13.4242 19.1197 14.6771 17.5977 15.0903 17.0429L16.1441 17.2772C16.6341 17.3834 17.0726 17.6548 17.3862 18.046C17.6999 18.4371 17.8695 18.9242 17.8667 19.4255ZM11.4647 19.1017C11.2429 18.6594 10.9491 18.2569 10.5953 17.9108C11.6329 17.5544 12.541 16.8974 13.2042 16.0236L14.398 16.7397C13.6254 17.7524 12.6189 18.5628 11.4647 19.1017ZM14.4237 12.5578C14.1577 12.7604 13.8238 12.8523 13.4916 12.8145L13.6654 12.6158C14.0102 12.2218 14.2002 11.7159 14.2 11.1924V11.0659C14.3175 11.1093 14.4415 11.1321 14.5667 11.1333H14.9334V11.522C14.9341 11.7223 14.8884 11.92 14.8 12.0997C14.7116 12.2794 14.5828 12.4362 14.4237 12.5578ZM13.4667 6.72783C10.0981 6.62663 9.41174 5.14127 9.40734 5.13063C9.38013 5.06254 9.33313 5.00416 9.27241 4.96305C9.21169 4.92193 9.14003 4.89997 9.0667 4.9C7.99988 4.90168 6.97358 5.30879 6.1957 6.03887C6.52387 4.2191 8.0943 2.7 9.80004 2.7C10.7722 2.70107 11.7042 3.08772 12.3916 3.77512C13.079 4.46252 13.4656 5.39453 13.4667 6.36667V6.72783ZM16.0334 8.2V9.66667C16.0334 9.86116 15.9561 10.0477 15.8186 10.1852C15.6811 10.3227 15.4945 10.4 15.3 10.4H14.5667C14.4695 10.4 14.3762 10.3614 14.3074 10.2926C14.2387 10.2238 14.2 10.1306 14.2 10.0333V7.83333C14.2 7.73609 14.2387 7.64282 14.3074 7.57406C14.3762 7.5053 14.4695 7.46667 14.5667 7.46667H15.3C15.4945 7.46667 15.6811 7.54393 15.8186 7.68146C15.9561 7.81898 16.0334 8.00551 16.0334 8.2ZM9.80004 1.23333C11.161 1.23479 12.4659 1.77609 13.4282 2.73846C14.3906 3.70083 14.9319 5.00567 14.9334 6.36667V6.73333H14.5667C14.4415 6.73455 14.3175 6.75737 14.2 6.8008V6.36667C14.1988 5.2001 13.7348 4.08168 12.9099 3.25679C12.085 2.4319 10.9666 1.96793 9.80004 1.96667C7.45594 1.96667 5.40003 4.19417 5.40003 6.73333V6.8008C5.28261 6.75737 5.15856 6.73455 5.03337 6.73333H4.6667V6.36667C4.66816 5.00567 5.20946 3.70083 6.17183 2.73846C7.1342 1.77609 8.43904 1.23479 9.80004 1.23333ZM5.03337 10.4H4.30003C4.10554 10.4 3.91902 10.3227 3.78149 10.1852C3.64396 10.0477 3.5667 9.86116 3.5667 9.66667V8.2C3.5667 8.00551 3.64396 7.81898 3.78149 7.68146C3.91902 7.54393 4.10554 7.46667 4.30003 7.46667H5.03337C5.13061 7.46667 5.22388 7.5053 5.29264 7.57406C5.3614 7.64282 5.40003 7.73609 5.40003 7.83333V10.0333C5.40003 10.1306 5.3614 10.2238 5.29264 10.2926C5.22388 10.3614 5.13061 10.4 5.03337 10.4ZM6.13337 11.1924V7.21C6.44246 6.76269 6.84722 6.38976 7.3183 6.11826C7.78938 5.84677 8.31497 5.6835 8.85697 5.6403C9.2031 6.16427 10.3427 7.36913 13.4667 7.4586V11.1924C13.4668 11.5383 13.3411 11.8726 13.1132 12.1329L12.6842 12.6231L11.6576 12.3488L11.6686 12.3034C11.691 12.2097 11.6947 12.1125 11.6796 12.0173C11.6644 11.9222 11.6307 11.8309 11.5802 11.7488C11.5298 11.6667 11.4637 11.5954 11.3857 11.5388C11.3077 11.4823 11.2193 11.4417 11.1255 11.4193L10.056 11.1627C9.77211 11.0947 9.47287 11.1423 9.22408 11.2949C8.9753 11.4476 8.79734 11.6928 8.72937 11.9767C8.66139 12.2605 8.70897 12.5598 8.86162 12.8086C9.01427 13.0573 9.25951 13.2353 9.54337 13.3033L10.6129 13.5599C10.6694 13.5735 10.7272 13.5804 10.7853 13.5805C10.9417 13.5806 11.094 13.5301 11.2196 13.4367C11.3451 13.3433 11.4371 13.2119 11.4819 13.062L12.1452 13.2395L11.5967 13.865C11.4406 14.0435 11.2482 14.1865 11.0323 14.2846C10.8164 14.3826 10.582 14.4333 10.3449 14.4333H9.25517C9.01808 14.4332 8.78375 14.3824 8.56787 14.2844C8.35199 14.1864 8.15953 14.0434 8.00337 13.865L6.48757 12.1325C6.25939 11.8724 6.13351 11.5383 6.13337 11.1924ZM10.955 12.1329L10.7849 12.8457L9.71497 12.589C9.66758 12.5784 9.62277 12.5584 9.58316 12.5303C9.54354 12.5022 9.50991 12.4665 9.4842 12.4253C9.4585 12.384 9.44125 12.3381 9.43344 12.2902C9.42563 12.2422 9.42742 12.1932 9.43872 12.146C9.45001 12.0987 9.47058 12.0542 9.49923 12.015C9.52788 11.9758 9.56403 11.9426 9.6056 11.9175C9.64716 11.8924 9.69331 11.8757 9.74135 11.8686C9.7894 11.8614 9.83838 11.8639 9.88547 11.8758L10.955 12.1329ZM7.45043 14.3479C7.67547 14.6052 7.95293 14.8114 8.2642 14.9526C8.57548 15.0938 8.91336 15.1668 9.25517 15.1667H10.3449C10.6867 15.1668 11.0246 15.0938 11.3359 14.9525C11.6471 14.8113 11.9246 14.6052 12.1496 14.3479L12.179 14.3145L12.6839 15.4934C11.9882 16.4528 10.9601 17.1187 9.80004 17.3612C8.63999 17.1187 7.61187 16.4528 6.9162 15.4934L7.42147 14.3145L7.45043 14.3479Z"/>
</mask>
<path d="M4.5292 16.2879L3.2972 16.5622C2.64413 16.7039 2.05956 17.0657 1.64138 17.5869C1.22319 18.1082 0.996774 18.7572 1.00003 19.4255V20.0188C1.0006 20.4207 1.1329 20.8113 1.37668 21.1309C1.62045 21.4504 1.96226 21.6812 2.34973 21.7879C3.53957 22.1124 5.79787 22.5 9.80004 22.5C13.8022 22.5 16.0605 22.1124 17.2503 21.7879C17.6378 21.6812 17.9796 21.4504 18.2234 21.1309C18.4672 20.8113 18.5995 20.4207 18.6 20.0188V19.4255C18.6033 18.7572 18.3769 18.1082 17.9587 17.5869C17.5405 17.0657 16.9559 16.7039 16.3029 16.5622L15.0709 16.2879L13.3901 15.28L12.7143 13.7033L12.9343 13.4499L13.0997 13.4943C13.2727 13.5401 13.4509 13.5634 13.6299 13.5636C14.1705 13.5624 14.6887 13.3468 15.0705 12.9641C15.4524 12.5813 15.6668 12.0627 15.6667 11.522V11.082C15.9807 11.0009 16.259 10.818 16.4581 10.5619C16.6571 10.3058 16.7656 9.991 16.7667 9.66667V8.2C16.7655 7.87579 16.6569 7.56112 16.4579 7.30518C16.2588 7.04923 15.9806 6.86645 15.6667 6.7854V6.36667C15.6667 4.81073 15.0486 3.31852 13.9484 2.21831C12.8482 1.11809 11.356 0.5 9.80004 0.5C8.2441 0.5 6.75189 1.11809 5.65167 2.21831C4.55146 3.31852 3.93337 4.81073 3.93337 6.36667V6.7854C3.61945 6.86645 3.34123 7.04923 3.14221 7.30518C2.94319 7.56112 2.83458 7.87579 2.83337 8.2V9.66667C2.83337 10.0557 2.98789 10.4287 3.26294 10.7038C3.538 10.9788 3.91105 11.1333 4.30003 11.1333H5.03337C5.15856 11.1321 5.28261 11.1093 5.40003 11.0659V11.1924C5.39982 11.7158 5.58981 12.2216 5.93463 12.6154L6.88797 13.7026L6.21183 15.2792L4.5292 16.2879ZM6.3959 16.0236C7.05911 16.8974 7.96721 17.5544 9.00473 17.9108C8.65116 18.257 8.3574 18.6595 8.13537 19.1017C6.98111 18.5629 5.97462 17.7524 5.20203 16.7397L6.3959 16.0236ZM17.8667 19.4255V20.0188C17.8669 20.2602 17.7877 20.495 17.6414 20.6871C17.4952 20.8792 17.2899 21.018 17.0571 21.0821C15.9105 21.3934 13.7208 21.7667 9.80004 21.7667C5.87927 21.7667 3.68953 21.3934 2.54297 21.0803C2.31049 21.0163 2.10541 20.8778 1.95918 20.686C1.81294 20.4943 1.73362 20.2599 1.73337 20.0188V19.4255C1.73085 18.9243 1.90071 18.4374 2.21446 18.0464C2.52821 17.6555 2.96679 17.3843 3.4567 17.2783L4.5105 17.044C4.92373 17.5988 6.17663 19.1215 7.95057 19.8175C8.10234 19.8758 8.2706 19.8744 8.42139 19.8136C8.57218 19.7527 8.6943 19.637 8.7631 19.4897C9.00364 18.9807 9.35851 18.5343 9.80004 18.1851C10.2417 18.5342 10.5968 18.9805 10.8377 19.4893C10.8897 19.6 10.972 19.6936 11.0752 19.7593C11.1784 19.8249 11.2981 19.8598 11.4203 19.86C11.4992 19.8601 11.5773 19.8453 11.6506 19.8164C13.4242 19.1197 14.6771 17.5977 15.0903 17.0429L16.1441 17.2772C16.6341 17.3834 17.0726 17.6548 17.3862 18.046C17.6999 18.4371 17.8695 18.9242 17.8667 19.4255ZM11.4647 19.1017C11.2429 18.6594 10.9491 18.2569 10.5953 17.9108C11.6329 17.5544 12.541 16.8974 13.2042 16.0236L14.398 16.7397C13.6254 17.7524 12.6189 18.5628 11.4647 19.1017ZM14.4237 12.5578C14.1577 12.7604 13.8238 12.8523 13.4916 12.8145L13.6654 12.6158C14.0102 12.2218 14.2002 11.7159 14.2 11.1924V11.0659C14.3175 11.1093 14.4415 11.1321 14.5667 11.1333H14.9334V11.522C14.9341 11.7223 14.8884 11.92 14.8 12.0997C14.7116 12.2794 14.5828 12.4362 14.4237 12.5578ZM13.4667 6.72783C10.0981 6.62663 9.41174 5.14127 9.40734 5.13063C9.38013 5.06254 9.33313 5.00416 9.27241 4.96305C9.21169 4.92193 9.14003 4.89997 9.0667 4.9C7.99988 4.90168 6.97358 5.30879 6.1957 6.03887C6.52387 4.2191 8.0943 2.7 9.80004 2.7C10.7722 2.70107 11.7042 3.08772 12.3916 3.77512C13.079 4.46252 13.4656 5.39453 13.4667 6.36667V6.72783ZM16.0334 8.2V9.66667C16.0334 9.86116 15.9561 10.0477 15.8186 10.1852C15.6811 10.3227 15.4945 10.4 15.3 10.4H14.5667C14.4695 10.4 14.3762 10.3614 14.3074 10.2926C14.2387 10.2238 14.2 10.1306 14.2 10.0333V7.83333C14.2 7.73609 14.2387 7.64282 14.3074 7.57406C14.3762 7.5053 14.4695 7.46667 14.5667 7.46667H15.3C15.4945 7.46667 15.6811 7.54393 15.8186 7.68146C15.9561 7.81898 16.0334 8.00551 16.0334 8.2ZM9.80004 1.23333C11.161 1.23479 12.4659 1.77609 13.4282 2.73846C14.3906 3.70083 14.9319 5.00567 14.9334 6.36667V6.73333H14.5667C14.4415 6.73455 14.3175 6.75737 14.2 6.8008V6.36667C14.1988 5.2001 13.7348 4.08168 12.9099 3.25679C12.085 2.4319 10.9666 1.96793 9.80004 1.96667C7.45594 1.96667 5.40003 4.19417 5.40003 6.73333V6.8008C5.28261 6.75737 5.15856 6.73455 5.03337 6.73333H4.6667V6.36667C4.66816 5.00567 5.20946 3.70083 6.17183 2.73846C7.1342 1.77609 8.43904 1.23479 9.80004 1.23333ZM5.03337 10.4H4.30003C4.10554 10.4 3.91902 10.3227 3.78149 10.1852C3.64396 10.0477 3.5667 9.86116 3.5667 9.66667V8.2C3.5667 8.00551 3.64396 7.81898 3.78149 7.68146C3.91902 7.54393 4.10554 7.46667 4.30003 7.46667H5.03337C5.13061 7.46667 5.22388 7.5053 5.29264 7.57406C5.3614 7.64282 5.40003 7.73609 5.40003 7.83333V10.0333C5.40003 10.1306 5.3614 10.2238 5.29264 10.2926C5.22388 10.3614 5.13061 10.4 5.03337 10.4ZM6.13337 11.1924V7.21C6.44246 6.76269 6.84722 6.38976 7.3183 6.11826C7.78938 5.84677 8.31497 5.6835 8.85697 5.6403C9.2031 6.16427 10.3427 7.36913 13.4667 7.4586V11.1924C13.4668 11.5383 13.3411 11.8726 13.1132 12.1329L12.6842 12.6231L11.6576 12.3488L11.6686 12.3034C11.691 12.2097 11.6947 12.1125 11.6796 12.0173C11.6644 11.9222 11.6307 11.8309 11.5802 11.7488C11.5298 11.6667 11.4637 11.5954 11.3857 11.5388C11.3077 11.4823 11.2193 11.4417 11.1255 11.4193L10.056 11.1627C9.77211 11.0947 9.47287 11.1423 9.22408 11.2949C8.9753 11.4476 8.79734 11.6928 8.72937 11.9767C8.66139 12.2605 8.70897 12.5598 8.86162 12.8086C9.01427 13.0573 9.25951 13.2353 9.54337 13.3033L10.6129 13.5599C10.6694 13.5735 10.7272 13.5804 10.7853 13.5805C10.9417 13.5806 11.094 13.5301 11.2196 13.4367C11.3451 13.3433 11.4371 13.2119 11.4819 13.062L12.1452 13.2395L11.5967 13.865C11.4406 14.0435 11.2482 14.1865 11.0323 14.2846C10.8164 14.3826 10.582 14.4333 10.3449 14.4333H9.25517C9.01808 14.4332 8.78375 14.3824 8.56787 14.2844C8.35199 14.1864 8.15953 14.0434 8.00337 13.865L6.48757 12.1325C6.25939 11.8724 6.13351 11.5383 6.13337 11.1924ZM10.955 12.1329L10.7849 12.8457L9.71497 12.589C9.66758 12.5784 9.62277 12.5584 9.58316 12.5303C9.54354 12.5022 9.50991 12.4665 9.4842 12.4253C9.4585 12.384 9.44125 12.3381 9.43344 12.2902C9.42563 12.2422 9.42742 12.1932 9.43872 12.146C9.45001 12.0987 9.47058 12.0542 9.49923 12.015C9.52788 11.9758 9.56403 11.9426 9.6056 11.9175C9.64716 11.8924 9.69331 11.8757 9.74135 11.8686C9.7894 11.8614 9.83838 11.8639 9.88547 11.8758L10.955 12.1329ZM7.45043 14.3479C7.67547 14.6052 7.95293 14.8114 8.2642 14.9526C8.57548 15.0938 8.91336 15.1668 9.25517 15.1667H10.3449C10.6867 15.1668 11.0246 15.0938 11.3359 14.9525C11.6471 14.8113 11.9246 14.6052 12.1496 14.3479L12.179 14.3145L12.6839 15.4934C11.9882 16.4528 10.9601 17.1187 9.80004 17.3612C8.63999 17.1187 7.61187 16.4528 6.9162 15.4934L7.42147 14.3145L7.45043 14.3479Z" fill="white"/>
<path d="M4.5292 16.2879L3.2972 16.5622C2.64413 16.7039 2.05956 17.0657 1.64138 17.5869C1.22319 18.1082 0.996774 18.7572 1.00003 19.4255V20.0188C1.0006 20.4207 1.1329 20.8113 1.37668 21.1309C1.62045 21.4504 1.96226 21.6812 2.34973 21.7879C3.53957 22.1124 5.79787 22.5 9.80004 22.5C13.8022 22.5 16.0605 22.1124 17.2503 21.7879C17.6378 21.6812 17.9796 21.4504 18.2234 21.1309C18.4672 20.8113 18.5995 20.4207 18.6 20.0188V19.4255C18.6033 18.7572 18.3769 18.1082 17.9587 17.5869C17.5405 17.0657 16.9559 16.7039 16.3029 16.5622L15.0709 16.2879L13.3901 15.28L12.7143 13.7033L12.9343 13.4499L13.0997 13.4943C13.2727 13.5401 13.4509 13.5634 13.6299 13.5636C14.1705 13.5624 14.6887 13.3468 15.0705 12.9641C15.4524 12.5813 15.6668 12.0627 15.6667 11.522V11.082C15.9807 11.0009 16.259 10.818 16.4581 10.5619C16.6571 10.3058 16.7656 9.991 16.7667 9.66667V8.2C16.7655 7.87579 16.6569 7.56112 16.4579 7.30518C16.2588 7.04923 15.9806 6.86645 15.6667 6.7854V6.36667C15.6667 4.81073 15.0486 3.31852 13.9484 2.21831C12.8482 1.11809 11.356 0.5 9.80004 0.5C8.2441 0.5 6.75189 1.11809 5.65167 2.21831C4.55146 3.31852 3.93337 4.81073 3.93337 6.36667V6.7854C3.61945 6.86645 3.34123 7.04923 3.14221 7.30518C2.94319 7.56112 2.83458 7.87579 2.83337 8.2V9.66667C2.83337 10.0557 2.98789 10.4287 3.26294 10.7038C3.538 10.9788 3.91105 11.1333 4.30003 11.1333H5.03337C5.15856 11.1321 5.28261 11.1093 5.40003 11.0659V11.1924C5.39982 11.7158 5.58981 12.2216 5.93463 12.6154L6.88797 13.7026L6.21183 15.2792L4.5292 16.2879ZM6.3959 16.0236C7.05911 16.8974 7.96721 17.5544 9.00473 17.9108C8.65116 18.257 8.3574 18.6595 8.13537 19.1017C6.98111 18.5629 5.97462 17.7524 5.20203 16.7397L6.3959 16.0236ZM17.8667 19.4255V20.0188C17.8669 20.2602 17.7877 20.495 17.6414 20.6871C17.4952 20.8792 17.2899 21.018 17.0571 21.0821C15.9105 21.3934 13.7208 21.7667 9.80004 21.7667C5.87927 21.7667 3.68953 21.3934 2.54297 21.0803C2.31049 21.0163 2.10541 20.8778 1.95918 20.686C1.81294 20.4943 1.73362 20.2599 1.73337 20.0188V19.4255C1.73085 18.9243 1.90071 18.4374 2.21446 18.0464C2.52821 17.6555 2.96679 17.3843 3.4567 17.2783L4.5105 17.044C4.92373 17.5988 6.17663 19.1215 7.95057 19.8175C8.10234 19.8758 8.2706 19.8744 8.42139 19.8136C8.57218 19.7527 8.6943 19.637 8.7631 19.4897C9.00364 18.9807 9.35851 18.5343 9.80004 18.1851C10.2417 18.5342 10.5968 18.9805 10.8377 19.4893C10.8897 19.6 10.972 19.6936 11.0752 19.7593C11.1784 19.8249 11.2981 19.8598 11.4203 19.86C11.4992 19.8601 11.5773 19.8453 11.6506 19.8164C13.4242 19.1197 14.6771 17.5977 15.0903 17.0429L16.1441 17.2772C16.6341 17.3834 17.0726 17.6548 17.3862 18.046C17.6999 18.4371 17.8695 18.9242 17.8667 19.4255ZM11.4647 19.1017C11.2429 18.6594 10.9491 18.2569 10.5953 17.9108C11.6329 17.5544 12.541 16.8974 13.2042 16.0236L14.398 16.7397C13.6254 17.7524 12.6189 18.5628 11.4647 19.1017ZM14.4237 12.5578C14.1577 12.7604 13.8238 12.8523 13.4916 12.8145L13.6654 12.6158C14.0102 12.2218 14.2002 11.7159 14.2 11.1924V11.0659C14.3175 11.1093 14.4415 11.1321 14.5667 11.1333H14.9334V11.522C14.9341 11.7223 14.8884 11.92 14.8 12.0997C14.7116 12.2794 14.5828 12.4362 14.4237 12.5578ZM13.4667 6.72783C10.0981 6.62663 9.41174 5.14127 9.40734 5.13063C9.38013 5.06254 9.33313 5.00416 9.27241 4.96305C9.21169 4.92193 9.14003 4.89997 9.0667 4.9C7.99988 4.90168 6.97358 5.30879 6.1957 6.03887C6.52387 4.2191 8.0943 2.7 9.80004 2.7C10.7722 2.70107 11.7042 3.08772 12.3916 3.77512C13.079 4.46252 13.4656 5.39453 13.4667 6.36667V6.72783ZM16.0334 8.2V9.66667C16.0334 9.86116 15.9561 10.0477 15.8186 10.1852C15.6811 10.3227 15.4945 10.4 15.3 10.4H14.5667C14.4695 10.4 14.3762 10.3614 14.3074 10.2926C14.2387 10.2238 14.2 10.1306 14.2 10.0333V7.83333C14.2 7.73609 14.2387 7.64282 14.3074 7.57406C14.3762 7.5053 14.4695 7.46667 14.5667 7.46667H15.3C15.4945 7.46667 15.6811 7.54393 15.8186 7.68146C15.9561 7.81898 16.0334 8.00551 16.0334 8.2ZM9.80004 1.23333C11.161 1.23479 12.4659 1.77609 13.4282 2.73846C14.3906 3.70083 14.9319 5.00567 14.9334 6.36667V6.73333H14.5667C14.4415 6.73455 14.3175 6.75737 14.2 6.8008V6.36667C14.1988 5.2001 13.7348 4.08168 12.9099 3.25679C12.085 2.4319 10.9666 1.96793 9.80004 1.96667C7.45594 1.96667 5.40003 4.19417 5.40003 6.73333V6.8008C5.28261 6.75737 5.15856 6.73455 5.03337 6.73333H4.6667V6.36667C4.66816 5.00567 5.20946 3.70083 6.17183 2.73846C7.1342 1.77609 8.43904 1.23479 9.80004 1.23333ZM5.03337 10.4H4.30003C4.10554 10.4 3.91902 10.3227 3.78149 10.1852C3.64396 10.0477 3.5667 9.86116 3.5667 9.66667V8.2C3.5667 8.00551 3.64396 7.81898 3.78149 7.68146C3.91902 7.54393 4.10554 7.46667 4.30003 7.46667H5.03337C5.13061 7.46667 5.22388 7.5053 5.29264 7.57406C5.3614 7.64282 5.40003 7.73609 5.40003 7.83333V10.0333C5.40003 10.1306 5.3614 10.2238 5.29264 10.2926C5.22388 10.3614 5.13061 10.4 5.03337 10.4ZM6.13337 11.1924V7.21C6.44246 6.76269 6.84722 6.38976 7.3183 6.11826C7.78938 5.84677 8.31497 5.6835 8.85697 5.6403C9.2031 6.16427 10.3427 7.36913 13.4667 7.4586V11.1924C13.4668 11.5383 13.3411 11.8726 13.1132 12.1329L12.6842 12.6231L11.6576 12.3488L11.6686 12.3034C11.691 12.2097 11.6947 12.1125 11.6796 12.0173C11.6644 11.9222 11.6307 11.8309 11.5802 11.7488C11.5298 11.6667 11.4637 11.5954 11.3857 11.5388C11.3077 11.4823 11.2193 11.4417 11.1255 11.4193L10.056 11.1627C9.77211 11.0947 9.47287 11.1423 9.22408 11.2949C8.9753 11.4476 8.79734 11.6928 8.72937 11.9767C8.66139 12.2605 8.70897 12.5598 8.86162 12.8086C9.01427 13.0573 9.25951 13.2353 9.54337 13.3033L10.6129 13.5599C10.6694 13.5735 10.7272 13.5804 10.7853 13.5805C10.9417 13.5806 11.094 13.5301 11.2196 13.4367C11.3451 13.3433 11.4371 13.2119 11.4819 13.062L12.1452 13.2395L11.5967 13.865C11.4406 14.0435 11.2482 14.1865 11.0323 14.2846C10.8164 14.3826 10.582 14.4333 10.3449 14.4333H9.25517C9.01808 14.4332 8.78375 14.3824 8.56787 14.2844C8.35199 14.1864 8.15953 14.0434 8.00337 13.865L6.48757 12.1325C6.25939 11.8724 6.13351 11.5383 6.13337 11.1924ZM10.955 12.1329L10.7849 12.8457L9.71497 12.589C9.66758 12.5784 9.62277 12.5584 9.58316 12.5303C9.54354 12.5022 9.50991 12.4665 9.4842 12.4253C9.4585 12.384 9.44125 12.3381 9.43344 12.2902C9.42563 12.2422 9.42742 12.1932 9.43872 12.146C9.45001 12.0987 9.47058 12.0542 9.49923 12.015C9.52788 11.9758 9.56403 11.9426 9.6056 11.9175C9.64716 11.8924 9.69331 11.8757 9.74135 11.8686C9.7894 11.8614 9.83838 11.8639 9.88547 11.8758L10.955 12.1329ZM7.45043 14.3479C7.67547 14.6052 7.95293 14.8114 8.2642 14.9526C8.57548 15.0938 8.91336 15.1668 9.25517 15.1667H10.3449C10.6867 15.1668 11.0246 15.0938 11.3359 14.9525C11.6471 14.8113 11.9246 14.6052 12.1496 14.3479L12.179 14.3145L12.6839 15.4934C11.9882 16.4528 10.9601 17.1187 9.80004 17.3612C8.63999 17.1187 7.61187 16.4528 6.9162 15.4934L7.42147 14.3145L7.45043 14.3479Z" stroke="white" stroke-width="0.4" mask="url(#path-1-outside-1_539_6142)"/>
</svg>
