<svg width="19" height="19" viewBox="0 0 19 19" fill="none" xmlns="http://www.w3.org/2000/svg">
<path d="M5.33337 15.8678V18.5H17.9725V6.14978H16.4133" stroke="white" stroke-miterlimit="22.9256" stroke-linecap="round" stroke-linejoin="round"/>
<path d="M9.63044 3.92707L4.27125 2.49109L1 14.6995L9.72028 17.0361L14.1431 14.4826L16.4796 5.76234L13.4191 4.94224" stroke="white" stroke-miterlimit="22.9256" stroke-linecap="round" stroke-linejoin="round"/>
<path d="M9.76677 16.8618L10.6547 13.5481L13.9684 14.436M5.47295 4.98157L6.85054 5.35066M5.00563 6.72562L13.726 9.06222M8.85174 9.81237L4.49158 8.64409" stroke="white" stroke-miterlimit="22.9256" stroke-linecap="round" stroke-linejoin="round"/>
<path fill-rule="evenodd" clip-rule="evenodd" d="M3.21106 13.4231L3.67835 11.679L7.1665 12.6136L6.69921 14.3577L3.21106 13.4231Z" stroke="white" stroke-miterlimit="22.9256" stroke-linecap="round" stroke-linejoin="round"/>
<path d="M13.6953 4.32668C14.6828 4.18836 15.3713 3.27566 15.233 2.2881C15.0947 1.30054 14.1819 0.612089 13.1944 0.750407C12.2068 0.888726 11.5184 1.80143 11.6567 2.78899C11.795 3.77655 12.7077 4.465 13.6953 4.32668Z" stroke="white" stroke-miterlimit="22.9256" stroke-linecap="round" stroke-linejoin="round"/>
<path d="M11.5462 2.54102C10.5862 2.59027 9.83317 3.383 9.83317 4.34422C9.83317 5.34141 10.6416 6.14981 11.6388 6.14981C12.59 6.14981 13.3781 5.4118 13.4404 4.4626M10.3454 5.63757L9.83313 6.14985" stroke="white" stroke-miterlimit="22.9256" stroke-linecap="round" stroke-linejoin="round"/>
</svg>
