<svg width="8" height="16" viewBox="0 0 8 16" fill="none" xmlns="http://www.w3.org/2000/svg">
<path d="M1.42467 15.225C1.26634 15.225 1.10801 15.1667 0.983008 15.0417C0.741341 14.8 0.741341 14.4 0.983008 14.1583L6.41634 8.72502C6.81634 8.32502 6.81634 7.67502 6.41634 7.27502L0.983008 1.84168C0.741341 1.60002 0.741341 1.20002 0.983008 0.95835C1.22467 0.716683 1.62467 0.716683 1.86634 0.95835L7.29967 6.39168C7.72467 6.81668 7.96634 7.39168 7.96634 8.00002C7.96634 8.60835 7.73301 9.18335 7.29967 9.60835L1.86634 15.0417C1.74134 15.1583 1.58301 15.225 1.42467 15.225Z" fill="#0B1420"/>
</svg>
