<svg xmlns="http://www.w3.org/2000/svg" width="24" height="24" viewBox="0 0 24 24">
  <g id="stop" transform="translate(-95 -2306)">
    <rect id="Rectangle_2053" data-name="Rectangle 2053" width="24" height="24" transform="translate(95 2306)" fill="#fff" opacity="0"/>
    <path id="stop-2" data-name="stop" d="M12,3.5A8.5,8.5,0,1,0,20.5,12,8.5,8.5,0,0,0,12,3.5ZM2,12A10,10,0,1,1,12,22,10,10,0,0,1,2,12ZM8,9.5A1.5,1.5,0,0,1,9.5,8h5A1.5,1.5,0,0,1,16,9.5v5A1.5,1.5,0,0,1,14.5,16h-5A1.5,1.5,0,0,1,8,14.5Z" transform="translate(95 2306)" fill="#212121"/>
  </g>
</svg>
