<svg xmlns="http://www.w3.org/2000/svg" width="24" height="24" viewBox="0 0 24 24">
  <g id="video" transform="translate(-1216 -96)">
    <rect id="Rectangle_1292" data-name="Rectangle 1292" width="24" height="24" transform="translate(1216 96)" fill="#fff" opacity="0"/>
    <path id="video-f" d="M13.75,4.5A3.25,3.25,0,0,1,17,7.75v.173l3.864-2.318A.75.75,0,0,1,22,6.248v11.5a.75.75,0,0,1-1.136.643L17,16.075v.175a3.25,3.25,0,0,1-3.25,3.25H5.25A3.25,3.25,0,0,1,2,16.25V7.75A3.25,3.25,0,0,1,5.25,4.5Zm0,1.5H5.25A1.75,1.75,0,0,0,3.5,7.75v8.5A1.75,1.75,0,0,0,5.25,18h8.5a1.75,1.75,0,0,0,1.75-1.75V7.75A1.75,1.75,0,0,0,13.75,6ZM20.5,7.573,17,9.675v4.651l3.5,2.1Z" transform="translate(1216 96)" fill="#212121"/>
  </g>
</svg>
