<svg width="20" height="21" viewBox="0 0 20 21" fill="none" xmlns="http://www.w3.org/2000/svg">
<path d="M12.9496 11.7511L12.9496 11.7511L12.9461 11.7546L7.52052 17.1802C7.47954 17.2165 7.44219 17.2248 7.42467 17.2248C7.40699 17.2248 7.39147 17.2216 7.37815 17.2162C7.36529 17.211 7.35124 17.2026 7.33656 17.1879C7.31503 17.1664 7.30176 17.1356 7.30176 17.0998C7.30176 17.0639 7.31503 17.0332 7.33656 17.0117L12.7699 11.5783C13.3652 10.9831 13.3652 10.0165 12.7699 9.42122L7.33656 3.98789C7.31503 3.96636 7.30176 3.93562 7.30176 3.89977C7.30176 3.86392 7.31503 3.83319 7.33656 3.81166C7.35809 3.79013 7.38882 3.77686 7.42467 3.77686C7.46053 3.77686 7.49126 3.79013 7.51279 3.81166L12.9461 9.24499C13.2781 9.57702 13.4663 10.0252 13.4663 10.4998C13.4663 10.9786 13.2837 11.4235 12.9496 11.7511Z" stroke="white"/>
</svg>
