<svg id="Layer_1" data-name="Layer 1" xmlns="http://www.w3.org/2000/svg" viewBox="0 0 1562.33 1790.13"><defs><style>.cls-1{fill:#593310;}.cls-2{fill:#08af5f;}.cls-3,.cls-6{fill:none;}.cls-4{fill:#fff;}.cls-5{fill:#ffaf4b;}.cls-6{stroke:#f95943;stroke-miterlimit:10;stroke-width:13px;}.cls-11,.cls-7{fill:#f95943;}.cls-8{fill:#915417;}.cls-9{fill:#ffd797;}.cls-10{fill:#107ea0;}.cls-11{font-size:86.75px;font-family:Sylfaen;letter-spacing:0.6em;}</style></defs><rect class="cls-1" x="527.63" y="622.67" width="491.6" height="509.67"/><path class="cls-2" d="M486,1104.52c-3.46,3.54-7,7.19-10.75,10.87-25.11,24.84-45.59,59.67-56.18,95.56-.56,1.91-1.07,3.82-1.58,5.73-2.73-12.69-5.94-25.65-9.76-38.48-7.1-23.86-15.32-41.68-23.27-54.93-20.62-43.29-50.82-77.65-95-98.45a23.92,23.92,0,0,1-5.76-3.76,7.69,7.69,0,0,1-1.05-10.08c2-3,6.22-4.48,9.46-2.71,11.94,6.5,24.06,12.73,35.51,20,12.51,8,22.78,18.69,32.39,30,2.49,2.92,5.59,4,9.31,2.75,3.27-1.09,5.41-3.88,5.16-8.12-.49-8.49-.73-17.09-2.37-25.4-5.13-26-19.68-44.43-45.16-53.58-14.57-5.23-29.63-7.62-45-8.37-24.07-1.18-47.91,1.38-71.68,4.74-4.61.66-7.12,3.37-8,7.8l3.15,21.23c.36,1.09.8,2.15,1.06,3.26,2.7,11.44,5,23,8.15,34.31,5.13,18.27,12.22,35.76,23.39,51.31,8.48,11.81,18.56,21.79,32.67,26.69,19.93,6.92,39.82,5.49,59.28-1.59,7.51-2.74,14.51-6.87,21.9-10.62,9.8,8.09,29.29,29.45,44.05,79a558.43,558.43,0,0,1,14.93,65.68l.88-.11c-3,28.25.63,55.08,10.9,79,13.53,31.47,39.12,63.38,68.46,85.36,18.67,14,45.22,28.74,76.59,31.74,2.66.26,5.33.46,8,.53,1.39,0,2.78,0,4.18,0a118.93,118.93,0,0,0,14.55-1,9.94,9.94,0,0,0-2.7-19.7,100,100,0,0,1-21.22.42c-.82-1.92-1.64-3.83-2.44-5.77-17.26-41.84-15.76-67.1-13.55-78,7.1-1.51,14.13-2.56,20.74-4.83,17.14-5.89,31.45-15.87,41.19-31.55,6.9-11.1,8.27-23.44,7.54-36.14-1-16.73-5.78-32.52-12.34-47.78-4.07-9.43-8.89-18.55-13.35-27.82-.43-.9-.72-1.86-1.08-2.79l-9.53-16.18c-3-2.54-6.24-3-9.73-.91-18,10.8-35.64,22.19-51.37,36.24-10,9-19,18.89-26,30.47-12.29,20.25-12.06,40.77-1.21,61.3,3.45,6.55,8,12.54,12.37,18.58,2.16,3,5.15,3.74,8,2.69a7.05,7.05,0,0,0,4.81-7c.33-13,1.42-25.91,5.54-38.22,3.76-11.26,8.58-22.18,13.12-33.17,1.23-3,4.91-4.27,7.93-3.36a6.72,6.72,0,0,1,4.83,7.43,20.87,20.87,0,0,1-1.85,5.73C535.58,1291,534,1331,543.76,1371.83c1.88,13.35,6.09,30,14.36,50-54.2-11.13-99.71-62.72-117.21-103.45-27.64-64.31,4.25-145.32,48.29-188.88,3.84-3.8,7.47-7.52,11-11.11,23.65-24.17,43.52-44.49,98.13-59.16L586.78,1042C531.68,1057.82,510.34,1079.61,486,1104.52Z" transform="translate(-202.28 -57)"/><path class="cls-2" d="M1763.66,883.5c-9.07-18.55-18.75-36.75-31.2-53.33-7.94-10.58-16.9-20.15-27.66-28-18.8-13.73-38.91-15.22-59.93-6.31-6.7,2.84-12.94,6.82-19.22,10.56-3.14,1.87-4.1,4.74-3.3,7.59a6.93,6.93,0,0,0,6.45,5.3c12.67,1.4,25.25,3.55,37,8.61,10.71,4.63,21,10.25,31.38,15.62,2.82,1.46,3.77,5.16,2.63,8a6.61,6.61,0,0,1-7.68,4.12,20.61,20.61,0,0,1-5.46-2.29c-36.09-21.4-75.13-26.33-115.89-20.14-13.27.73-29.92,3.48-50.33,9.93-3.39,1.06-6.74,2.19-10.09,3.35A288.3,288.3,0,0,0,1539.62,754a284.67,284.67,0,0,0-3.23-96.94c1.32-11.63,3.09-23.64,5.47-35.54,8.49-42.63,23.13-62,30.7-69.55,6.47,2.57,12.65,5.48,19.15,7.19,16.83,4.41,33.57,4.06,49.71-3.28,11.42-5.2,19.08-14.33,25.26-24.87,8.13-13.87,12.7-29.06,15.57-44.74,1.78-9.71,2.78-19.56,4.15-29.34.14-.95.42-1.87.63-2.81l1-18c-1.07-3.64-3.39-5.72-7.29-5.9-20.15-1-40.29-1.25-60.34,1.6-12.8,1.83-25.21,5-37,10.5-20.61,9.64-31.35,26.16-33.61,48.34-.73,7.08-.26,14.29,0,21.43.12,3.57,2.13,5.74,5,6.4a6.79,6.79,0,0,0,7.57-3c7.16-10.19,14.92-19.95,24.77-27.59,9-7,18.66-13.16,28.14-19.52,2.58-1.73,6.2-.8,8.13,1.53a6.47,6.47,0,0,1-.09,8.52,20,20,0,0,1-4.53,3.59c-35.31,20.83-57.9,51.93-71.79,89.74-5.62,11.71-11.11,27.26-15.2,47.77-.74,3.71-1.4,7.43-2,11.14-33.83-112-124.86-184.32-138.23-194.45a553.08,553.08,0,0,0-68.29-44.68c10.43-32.25,23.49-46.73,30.31-52.46,5.57,2.77,10.85,5.81,16.51,7.81,14.65,5.18,29.58,6.11,44.49.78,10.55-3.78,18-11.34,24.33-20.26,8.28-11.75,13.47-24.93,17.19-38.67,2.31-8.51,3.93-17.2,5.88-25.81.18-.83.5-1.64.76-2.45l2.22-16c-.68-3.33-2.59-5.35-6-5.8-17.87-2.36-35.77-4.11-53.83-3a115.7,115.7,0,0,0-33.71,6.6c-19.06,7-29.84,21-33.51,40.53-1.17,6.24-1.29,12.7-1.6,19.08a5.6,5.6,0,0,0,3.93,6.05,6,6,0,0,0,7-2.13c7.13-8.53,14.76-16.65,24.1-22.72,8.53-5.56,17.59-10.32,26.5-15.28,2.42-1.36,5.57-.25,7.12,2a5.76,5.76,0,0,1-.72,7.57,18,18,0,0,1-4.29,2.86c-33,15.92-55.41,41.92-70.58,74.55a169.08,169.08,0,0,0-14.29,32.38c-57.76-30.1-114.66-43.61-173.22-41.21-8.32-4-16.82-8.51-25.08-13.47-27.74-16.66-37.65-31.79-41-39,3.42-3.89,7-7.49,9.84-11.62,7.32-10.69,11.28-22.51,10.19-35.67-.77-9.31-5.25-17-11.09-24-7.68-9.19-17.18-16.2-27.45-22.16-6.36-3.68-13-6.86-19.52-10.27-.63-.33-1.21-.76-1.81-1.15l-12.37-5.21a5.5,5.5,0,0,0-6,3.62c-5.74,13.89-11,27.93-14,42.7a96.49,96.49,0,0,0-1.93,28.57c1.58,16.86,10.46,28.54,25.44,35.7,4.78,2.29,9.95,3.77,15,5.39a4.67,4.67,0,0,0,5.72-1.86,5,5,0,0,0-.21-6.07c-5.35-7.58-10.24-15.47-13.12-24.3-2.64-8.06-4.54-16.38-6.62-24.62a4.72,4.72,0,0,1,3.12-5.32,4.82,4.82,0,0,1,6,2.21,15.28,15.28,0,0,1,1.38,4.07c5.73,30,21.85,53.64,44.87,72.87,6.79,6.88,16.31,14.63,29.66,22.65,4.59,2.75,9.26,5.37,13.92,7.85a354.73,354.73,0,0,0-47.28,7.38c-46.93,10.54-86.29,32.76-121,52.36-24.95,14.09-48.51,27.39-71.88,34.87-22.4,7.17-80.6,14.37-138.23-9A344.54,344.54,0,0,1,749.64,393c3.23-32.2,12.69-47.62,17.75-53.75,5,1.44,9.77,3.15,14.71,3.95,12.79,2.06,25.17.59,36.6-6,8.1-4.67,13.12-12,16.94-20.24,5-10.87,7.32-22.45,8.32-34.28.62-7.32.66-14.7,1-22,0-.71.17-1.42.26-2.13q-.29-6.7-.56-13.41a5.5,5.5,0,0,0-5.83-3.85c-15,.73-29.95,2-44.6,5.53a96.57,96.57,0,0,0-26.66,10.44c-14.58,8.62-21.35,21.64-21.44,38.24,0,5.3.85,10.61,1.54,15.89a4.69,4.69,0,0,0,4.13,4.38,5,5,0,0,0,5.39-2.79c4.58-8.06,9.63-15.86,16.38-22.23,6.17-5.83,12.88-11.09,19.45-16.49a4.69,4.69,0,0,1,6.13.55,4.81,4.81,0,0,1,.55,6.32,14.85,14.85,0,0,1-3.1,3c-24.67,18-39.18,42.66-46.75,71.68-3.33,9.08-6.28,21-7.83,36.49a343.68,343.68,0,0,0-1.55,36.93,194.17,194.17,0,0,1-69.22-52.91c-31.89-38.21-40.16-88.32-39.87-128.94h.24c.17-11.33.82-23.65,2.26-36a196.46,196.46,0,0,1,5.62-28.24l-.24-.11c4.9-17.13,11.29-26.36,15.16-30.7,4.92,1.63,9.64,3.52,14.54,4.5,12.71,2.55,25.14,1.55,36.81-4.61,8.26-4.36,13.56-11.49,17.69-19.59,5.44-10.67,8.17-22.16,9.61-33.94.9-7.3,1.21-14.66,1.8-22,.06-.71.23-1.41.35-2.12l-.06-13.42A5.51,5.51,0,0,0,729.46,57c-15,.16-30,.84-44.78,3.84a96.06,96.06,0,0,0-27,9.43c-14.9,8.06-22.15,20.81-22.87,37.4-.23,5.29.44,10.63.94,15.93a4.66,4.66,0,0,0,3.95,4.53,5,5,0,0,0,5.5-2.58c4.88-7.88,10.22-15.48,17.2-21.59,6.39-5.6,13.3-10.6,20.07-15.74a4.69,4.69,0,0,1,6.11.78,4.8,4.8,0,0,1,.3,6.33,14.87,14.87,0,0,1-3.21,2.87c-25.33,17-40.76,41.14-49.43,69.86a132,132,0,0,0-6.53,21.31c-7.95,29.39-20.6,90.26-2.36,147-3.3-3.94-6.72-7.86-10.26-11.67-10.6-11.42-20.14-19.14-28.27-24.37-23.56-18.57-50-29.48-80.54-28.92a14.92,14.92,0,0,1-4.27-.52,4.8,4.8,0,0,1-3.38-5.36,4.69,4.69,0,0,1,4.56-4.14c8.49.34,17,.48,25.46,1.4,9.23,1,18,4.17,26.47,7.84a5.06,5.06,0,0,0,6-1,4.69,4.69,0,0,0,.64-6c-2.63-4.62-5.15-9.38-8.36-13.59-10.09-13.18-23.35-19.48-40.18-17.55a96.38,96.38,0,0,0-27.56,7.77c-13.83,6-26.49,14-38.89,22.51a5.49,5.49,0,0,0-2.32,6.59l7.64,11c.5.51,1,1,1.5,1.54,4.68,5.67,9.16,11.53,14.07,17,7.94,8.82,16.76,16.68,27.33,22.3,8,4.28,16.45,7.08,25.72,5.92,13.1-1.63,23.86-7.94,32.81-17.31,3.46-3.61,6.24-7.86,9.34-12,7.74,1.83,24.59,8.41,46.6,32.13A349.26,349.26,0,0,1,638,362.63l.25-.16A151.82,151.82,0,0,0,656,389c32.79,39.28,77.59,65.28,129.57,75.18,44.05,8.38,84.12,3.57,106.93-3.73,25.3-8.1,49.73-21.89,75.6-36.49,29.58-16.7,60-33.85,95.17-44.78a142.11,142.11,0,0,0-23.31,20.17c-22.2,20.17-37.34,44.46-41.82,74.66a15.21,15.21,0,0,1-1.21,4.13,4.82,4.82,0,0,1-5.85,2.45,4.71,4.71,0,0,1-3.34-5.18c1.74-8.32,3.29-16.71,5.59-24.88,2.52-8.94,7.08-17,12.11-24.82a5,5,0,0,0,0-6.07,4.68,4.68,0,0,0-5.79-1.63c-5,1.83-10.11,3.53-14.79,6-14.67,7.77-23.06,19.81-23.94,36.72a96.79,96.79,0,0,0,3.11,28.47c3.65,14.63,9.48,28.44,15.79,42.08a5.49,5.49,0,0,0,6.11,3.37L998,528.94c.58-.41,1.14-.86,1.76-1.22,6.36-3.68,12.88-7.13,19.08-11.07,10-6.38,19.21-13.78,26.51-23.28,5.54-7.21,9.7-15.05,10.08-24.39.55-13.19-3.9-24.84-11.65-35.21-3-4-6.73-7.46-10.32-11.2,3.08-7.33,12.35-22.87,39.38-40.66,4.84-3.18,9.77-6.19,14.7-9.05,76-16.17,147.93-5.41,221.76,33.85q4.17,2.22,8.34,4.56a536,536,0,0,1,61.83,40.79c8.13,6.16,46.58,36.58,81.57,85.47a147.23,147.23,0,0,0-28.93-19.76c-25.39-16-52.85-24-83.15-20.25a15.11,15.11,0,0,1-4.3-.06,4.81,4.81,0,0,1-3.93-5,4.71,4.71,0,0,1,4.1-4.6c8.48-.56,17-1.32,25.46-1.29,9.29,0,18.3,2.25,27.16,5a5,5,0,0,0,5.84-1.66,4.68,4.68,0,0,0,0-6c-3.1-4.32-6.11-8.79-9.75-12.63-11.43-12-25.28-16.91-41.8-13.21a96.24,96.24,0,0,0-26.59,10.63c-13.12,7.44-24.86,16.76-36.3,26.5a5.51,5.51,0,0,0-1.61,6.8l8.77,10.16c.55.45,1.14.87,1.64,1.37,5.26,5.14,10.33,10.49,15.79,15.4,8.83,7.94,18.43,14.82,29.54,19.3,8.43,3.4,17.1,5.3,26.2,3.17,12.85-3,22.88-10.42,30.8-20.68,3-4,5.37-8.48,8-12.94,7.89,1,25.34,5.76,49.73,27,7.64,6.66,14.88,13.74,21.56,20.74,29.15,49.39,50.72,112.68,40.64,185.77-5.64,40.85-20.08,76.23-38.68,106.39q-5.16,8.37-10.72,16.2c-37.65,53.18-87.07,88-117.46,106L1358,1000c35.41-20.29,102-65.71,144.75-139.5,6.83-2.57,13.81-5,20.86-7.23,42.42-13.4,67-9.83,77.51-6.75.89,7.07,1.33,14.05,3,20.71,4.34,17.27,12.92,32.12,27.45,43,10.29,7.68,22.26,10,34.76,10.39,16.46.46,32.33-2.93,47.81-8.09,9.59-3.19,18.91-7.15,28.36-10.74.92-.35,1.89-.55,2.83-.82l16.63-8C1764.7,890.19,1765.41,887.09,1763.66,883.5Z" transform="translate(-202.28 -57)"/><path class="cls-3" d="M1149.15,735.37a12.39,12.39,0,0,0-13.41.36L1106,755.45V728.84a14,14,0,0,0-8.15-12.94,12.63,12.63,0,0,0-14.39,3l-30.6,32.3V715.85a13.71,13.71,0,0,0-9.9-13.57,12.77,12.77,0,0,0-14.86,6.74L958.16,842.27a16.24,16.24,0,0,0-.9,2.25,14.17,14.17,0,0,0-.92-2.25L886.46,709a12.78,12.78,0,0,0-14.87-6.74,13.72,13.72,0,0,0-9.89,13.57V751.2l-30.59-32.3a12.63,12.63,0,0,0-14.39-3,14,14,0,0,0-8.15,12.94v25.43l-29.79-19.71a12.39,12.39,0,0,0-13.41-.37,14,14,0,0,0-6.81,12.26v286.68a14.1,14.1,0,0,0,6.23,11.89l173,114.57a12.68,12.68,0,0,0,7,2.15,12.51,12.51,0,0,0,6.41-1.79,13.3,13.3,0,0,0,4.43-4.23h2.55a13.41,13.41,0,0,0,5.13,5.41,12.41,12.41,0,0,0,13.4-.36l173-114.57a14.08,14.08,0,0,0,6.22-11.89V747.62A14,14,0,0,0,1149.15,735.37ZM872.06,715.85a2.82,2.82,0,0,1,2.13-2.93,2.64,2.64,0,0,1,3.22,1.45l62.7,119.55-68.05-71.78Zm-53.14,13a2.88,2.88,0,0,1,1.78-2.78,2.77,2.77,0,0,1,1.15-.25,2.63,2.63,0,0,1,1.95.9l37.9,40,5.19,5.46,5.17,5.47,47.55,50.16-47.55-31.47-5.17-3.43-5.19-3.44-42.78-28.32ZM944.7,1149.92a7.41,7.41,0,0,1-2.82-.58l-2.42-1.62-19.85-13.14L770.27,1035.7a3.09,3.09,0,0,1-1.34-2.57V746.45a3,3,0,0,1,1.47-2.64,2.63,2.63,0,0,1,2.89.07l35.28,23.37,5.18,3.42,5.17,3.43,42.78,28.32,5.19,3.44,5.17,3.43,72.64,48.09Zm102.93-377.75,5.18-5.46,37.9-40a2.66,2.66,0,0,1,2-.9,2.77,2.77,0,0,1,1.15.25,2.9,2.9,0,0,1,1.76,2.78v33.48l-42.77,28.32-5.18,3.43-5.17,3.42L991.92,831l50.54-53.32Zm-10.53-57.8a2.61,2.61,0,0,1,2.4-1.57,3.22,3.22,0,0,1,.81.11,2.83,2.83,0,0,1,2.14,2.94v46.28l-68,71.79Zm-71.78,437.69H948.15V858.47h4.66s0,.12,0,.18v-.18h3.67v.18c0-.06,0-.13,0-.18H958s0,.12,0,.18v-.18h3.67v.18c0-.06,0-.13,0-.18h3.61Zm180.27-117.75a3.08,3.08,0,0,1-1.34,2.56L991.92,1137.74l-20.69,13.7a2.61,2.61,0,0,1-2.46.29V859.25l73.69-48.79,5.17-3.43,5.18-3.43,42.77-28.32,5.18-3.44,5.19-3.41,35.28-23.37a2.61,2.61,0,0,1,1.48-.47,2.83,2.83,0,0,1,1.41.39,3,3,0,0,1,1.47,2.64Z" transform="translate(-202.28 -57)"/><path d="M1289.31,1150.66c-1-2.24-1.88-4.53-2.75-6.83C1287.41,1146.13,1288.33,1148.42,1289.31,1150.66Z" transform="translate(-202.28 -57)"/><path d="M1347,1223.41c-2.42-1.77-4.79-3.62-7.12-5.51C1342.17,1219.81,1344.56,1221.66,1347,1223.41Z" transform="translate(-202.28 -57)"/><path class="cls-4" d="M1625.79,1077.08c0-2.08-.16-4.14-.31-6.18s-.29-4.29-.5-6.42a171.87,171.87,0,0,0-3.8-22.56c-.25-1.17-.54-2.35-.85-3.5-.72-2.8-1.5-5.57-2.36-8.32-1-3.18-2.07-6.3-3.24-9.41l-1-2.71c-.65-1.63-1.32-3.24-2-4.85-.42-1-.87-2-1.32-3-.58-1.3-1.2-2.58-1.81-3.86s-1.25-2.55-1.9-3.8c-.81-1.63-1.66-3.22-2.55-4.79-.49-.9-1-1.79-1.5-2.65-.65-1.14-1.3-2.26-2-3.37a9,9,0,0,0-.54-.88c-.59-1-1.21-2-1.84-3l-.06-.07c-.65-1-1.3-2-2-3s-1.43-2.13-2.17-3.16c-.49-.7-1-1.39-1.48-2.08-1.16-1.61-2.35-3.18-3.56-4.73-.58-.76-1.18-1.52-1.81-2.26-.22-.31-.44-.58-.67-.85-.71-.87-1.43-1.74-2.15-2.59a5.6,5.6,0,0,0-.4-.45c-.78-.94-1.59-1.88-2.42-2.78a5,5,0,0,0-.34-.4c-.67-.76-1.34-1.5-2-2.22-.34-.38-.67-.74-1-1.09-.63-.67-1.27-1.33-1.9-2-.32-.33-.63-.66-.94-1-.74-.76-1.5-1.5-2.26-2.24-.18-.2-.38-.38-.56-.56-.7-.67-1.41-1.36-2.11-2q-2-2-4.12-3.76c-.83-.74-1.68-1.47-2.53-2.17s-1.5-1.28-2.26-1.9-1.63-1.34-2.46-2c-.2-.16-.4-.32-.6-.45-.83-.67-1.66-1.3-2.49-1.91-.42-.33-.81-.62-1.21-.91-.58-.45-1.16-.87-1.76-1.28-.79-.6-1.6-1.18-2.44-1.74-.18-.12-.34-.25-.52-.36-.72-.5-1.45-1-2.19-1.5l-2.33-1.52c-1.46-1-2.93-1.88-4.41-2.76-1.06-.65-2.13-1.28-3.21-1.9-.84-.49-1.65-.94-2.46-1.39s-1.5-.83-2.26-1.23c-.92-.51-1.86-1-2.8-1.46-1.23-.65-2.5-1.27-3.74-1.88a.3.3,0,0,0-.11,0c-1.07-.52-2.14-1-3.2-1.5-1.68-.79-3.4-1.54-5.1-2.24l-2.6-1.07c-1.1-.45-2.21-.88-3.31-1.28-.72-.29-1.46-.56-2.2-.81s-1.38-.51-2.08-.74l-1.88-.65c-1-.35-2.1-.69-3.16-1a2,2,0,0,0-.35-.11c-1.25-.39-2.47-.75-3.74-1.12a4.18,4.18,0,0,0-.58-.16c-.81-.23-1.62-.47-2.46-.67s-1.57-.43-2.36-.61a13.11,13.11,0,0,0-1.47-.36c-.85-.22-1.7-.44-2.56-.62l-1.4-.31c-1.06-.23-2.15-.47-3.23-.68s-2.24-.44-3.36-.62q-1.41-.27-2.82-.48c-.76-.13-1.54-.26-2.3-.37l-.59-.07c-1.27-.2-2.55-.36-3.82-.5a.83.83,0,0,0-.3,0c-1.38-.18-2.75-.33-4.14-.45s-2.62-.26-3.93-.35-2.6-.18-3.92-.23c-1,0-2-.11-3-.13-.67,0-1.34,0-2,0a1.94,1.94,0,0,0-.34,0c-1.2,0-2.41,0-3.62,0-96.64,0-175.26,78.62-175.26,175.25,0,1.35,0,2.71.06,4.06,0,.38,0,.74,0,1.12,0,1.29.09,2.55.16,3.82.07,1.71.2,3.41.32,5.11.09,1,.17,2,.27,3l.17,1.63c.12,1.19.27,2.37.41,3.56s.29,2.17.45,3.25c.08.49.15,1,.22,1.47.2,1.32.43,2.65.67,4s.52,2.84.81,4.25a.78.78,0,0,1,0,.22c.29,1.37.58,2.73.9,4.08.26,1.12.53,2.24.83,3.36.08.38.17.74.28,1.1.21.85.43,1.72.68,2.57s.49,1.75.74,2.6c.18.65.36,1.29.58,1.94s.42,1.39.65,2.08.44,1.39.67,2.07c.45,1.38.94,2.73,1.43,4.09.27.78.56,1.54.85,2.31.87,2.3,1.79,4.59,2.75,6.83.63,1.5,1.3,3,2,4.49s1.38,2.94,2.1,4.41,1.36,2.71,2.06,4,1.43,2.65,2.17,4c.49.87,1,1.75,1.5,2.62s1,1.74,1.54,2.59,1,1.71,1.59,2.56,1.06,1.7,1.62,2.53,1.11,1.68,1.67,2.52c1.13,1.64,2.27,3.29,3.47,4.91l1.79,2.41c.75,1,1.51,2,2.27,3,1.56,1.95,3.13,3.87,4.76,5.75.81.94,1.62,1.88,2.45,2.8l.08.07c1.33,1.48,2.69,2.93,4.08,4.37s2.78,2.86,4.23,4.25c.7.69,1.45,1.38,2.17,2.06s1.46,1.38,2.2,2c1.49,1.34,3,2.66,4.5,3.94.78.65,1.54,1.31,2.32,1.94q3.5,2.85,7.12,5.51c.79.6,1.61,1.18,2.44,1.77s1.72,1.21,2.58,1.79,1.58,1.07,2.37,1.59l2.53,1.65q2.55,1.62,5.15,3.14l2.6,1.5c1.76,1,3.53,2,5.32,2.89.9.47,1.81.92,2.71,1.38,1.81.9,3.61,1.77,5.46,2.6,1.08.51,2.17,1,3.27,1.46.67.27,1.34.56,2,.85a8.71,8.71,0,0,0,.89.36c.74.31,1.48.62,2.22.91,1.9.74,3.8,1.44,5.73,2.13,1,.34,1.92.67,2.89,1,1.94.66,3.89,1.27,5.86,1.85,1,.29,2,.58,2.94.85q4,1.11,8,2c.65.17,1.32.31,2,.44s1.37.3,2.06.43c.23.06.49.11.72.15,1,.19,1.92.38,2.88.54,1.57.29,3.14.54,4.73.78,1,.16,2,.28,3,.41.66.11,1.31.18,2,.25,1,.15,2,.26,3,.35s2,.21,3.06.29c.81.09,1.62.14,2.44.2.18,0,.36,0,.56,0,2.35.18,4.7.29,7.08.36.56,0,1.12,0,1.7,0,1.14,0,2.3,0,3.45,0,96.62,0,175.24-78.62,175.24-175.26C1625.86,1080.46,1625.85,1078.76,1625.79,1077.08Z" transform="translate(-202.28 -57)"/><path class="cls-5" d="M1453.45,684.42c-21.42-63-85.67-148.89-249-148.89-150.14,0-243.62,111.66-243.62,111.66S867.4,535.53,717.26,535.53c-44.71,0-82,6.45-113,17.1a192.87,192.87,0,0,1,54.94,134.93c0,106.71-86.81,193.52-193.51,193.52-1.41,0-2.81,0-4.21-.06A407.28,407.28,0,0,0,503.09,996.5c52.9,96.67,120.22,165,208.82,234.79,86.45,68.14,249,166.06,249,166.06s164.83-100.58,249-166.06c27.09-21.09,52.12-42.13,75.35-63.94a184.76,184.76,0,0,1-20.68-85.19c0-102.6,83.48-186.08,186.1-186.08,2.12,0,4.23,0,6.35.11C1477.34,810.65,1468.87,729.73,1453.45,684.42Zm-297.51,349.89a14.08,14.08,0,0,1-6.22,11.89l-173,114.57a12.41,12.41,0,0,1-13.4.36,13.41,13.41,0,0,1-5.13-5.41h-2.55a13.3,13.3,0,0,1-4.43,4.23,12.51,12.51,0,0,1-6.41,1.79,12.68,12.68,0,0,1-7-2.15L764.79,1045a14.1,14.1,0,0,1-6.23-11.89V746.45a14,14,0,0,1,6.81-12.26,12.39,12.39,0,0,1,13.41.37l29.79,19.71V728.84a14,14,0,0,1,8.15-12.94,12.63,12.63,0,0,1,14.39,3l30.59,32.3V715.85a13.72,13.72,0,0,1,9.89-13.57A12.78,12.78,0,0,1,886.46,709l69.88,133.25a14.17,14.17,0,0,1,.92,2.25,16.24,16.24,0,0,1,.9-2.25L1028.05,709a12.77,12.77,0,0,1,14.86-6.74,13.71,13.71,0,0,1,9.9,13.57V751.2l30.6-32.3a12.63,12.63,0,0,1,14.39-3,14,14,0,0,1,8.15,12.94v26.61l29.79-19.72a12.39,12.39,0,0,1,13.41-.36,14,14,0,0,1,6.79,12.25Z" transform="translate(-202.28 -57)"/><circle class="cls-6" cx="1248.33" cy="1025.16" r="163.6"/><path class="cls-7" d="M1599.86,1045.76H1486V932.92a15.64,15.64,0,0,0-15.59-15.59h-39.66a15.57,15.57,0,0,0-15.56,15.57v112.86H1301.34a15.56,15.56,0,0,0-15.56,15.56V1101a15.64,15.64,0,0,0,15.59,15.59h113.84v114.84a15.57,15.57,0,0,0,15.56,15.57h39.66a15.64,15.64,0,0,0,15.59-15.59V1116.59h113.84a15.63,15.63,0,0,0,15.58-15.59v-39.66A15.62,15.62,0,0,0,1599.86,1045.76Z" transform="translate(-202.28 -57)"/><path class="cls-8" d="M866.89,805.86l-5.19-3.44L818.92,774.1l-5.17-3.43-5.18-3.42-35.28-23.37a2.63,2.63,0,0,0-2.89-.07,3,3,0,0,0-1.47,2.64v286.68a3.09,3.09,0,0,0,1.34,2.57l149.34,98.88,19.85,13.14,2.42,1.62a7.41,7.41,0,0,0,2.82.58V857.38l-72.64-48.09Z" transform="translate(-202.28 -57)"/><path class="cls-8" d="M1144.12,745a2.83,2.83,0,0,0-1.41-.39,2.61,2.61,0,0,0-1.48.47L1106,768.43l-5.19,3.41-5.18,3.44-42.77,28.32-5.18,3.43-5.17,3.43-73.69,48.79v292.48a2.61,2.61,0,0,0,2.46-.29l20.69-13.7,152.33-100.87a3.08,3.08,0,0,0,1.34-2.56V747.62A3,3,0,0,0,1144.12,745Z" transform="translate(-202.28 -57)"/><path class="cls-9" d="M877.41,714.37a2.64,2.64,0,0,0-3.22-1.45,2.82,2.82,0,0,0-2.13,2.93v46.29l68.05,71.78Z" transform="translate(-202.28 -57)"/><path class="cls-9" d="M1042.45,715.85a2.83,2.83,0,0,0-2.14-2.94,3.22,3.22,0,0,0-.81-.11,2.61,2.61,0,0,0-2.4,1.57L974.41,833.92l68-71.79Z" transform="translate(-202.28 -57)"/><path class="cls-9" d="M1042.46,797.49l5.17-3.42,5.18-3.43,42.77-28.32V728.84a2.9,2.9,0,0,0-1.76-2.78,2.77,2.77,0,0,0-1.15-.25,2.66,2.66,0,0,0-2,.9l-37.9,40-5.18,5.46-5.17,5.47L991.92,831Z" transform="translate(-202.28 -57)"/><path class="cls-9" d="M866.89,792.9l5.17,3.43,47.55,31.47-47.55-50.16-5.17-5.47-5.19-5.46-37.9-40a2.63,2.63,0,0,0-1.95-.9,2.77,2.77,0,0,0-1.15.25,2.88,2.88,0,0,0-1.78,2.78v32.3l42.78,28.32Z" transform="translate(-202.28 -57)"/><path class="cls-9" d="M961.69,858.65v-.18H958v.18c0-.06,0-.13,0-.18h-1.48s0,.12,0,.18v-.18h-3.67v.18c0-.06,0-.13,0-.18h-4.66v293.59h17.17V858.47h-3.61S961.69,858.59,961.69,858.65Z" transform="translate(-202.28 -57)"/><path class="cls-10" d="M648.35,687.56c0,100.73-82,182.67-182.67,182.67-2.1,0-4.18,0-6.26-.1C361.57,866.82,283,786.19,283,687.56c0-100.72,82-182.68,182.69-182.68A182.93,182.93,0,0,1,648.35,687.56Z" transform="translate(-202.28 -57)"/><path class="cls-4" d="M523.66,707.26c0,32.07-.08,64.11.05,96.16,0,4.86-1.5,8.29-6.09,10.15H514c-4.63-1.82-6.16-5.27-6.14-10.12.1-32.06.05-64.12.05-96.19V703.9l-26.48-21.12c0,8.44,0,22.12,0,30.34,0,5.5-3.09,8.57-8.62,8.66-2.69,0-5.36,0-8.24,0v3.47c0,20.67-.09,57,.07,77.68.06,4.88-1.33,8.47-5.83,10.62H420.87c-4.55-1.89-6.05-5.35-6-10.19.17-20.86.08-57.38.08-78.24V721.8h-8.19c-5.59-.09-8.75-3.11-8.77-8.59,0-33.65-.3-51.64.09-85.27.33-29.37,19.88-52.07,48.69-57.49a77.87,77.87,0,0,1,10.72-.85c3-.13,5.95,0,8.22,0,2.61-4.66,4.59-9.18,7.43-13.08,4.74-6.51,11.52-10,19.38-11.57.67-.13,1.33-.36,2-.54h8.42a85.69,85.69,0,0,1,8.26,2.35c14.35,5.51,22.28,19.12,20.66,35.22A31,31,0,0,1,523,600.14l-2.29,2.17a33.44,33.44,0,0,1-16,7.79c-7.93,1.41-11.91.74-23.19-4V628a22.9,22.9,0,0,0,6,15.44c.47.5,1,1,1.46,1.48,8.42,7.68,22.1,21.2,32.08,30.42a63.19,63.19,0,0,1,12.38,15.74c.51,6.78-3,11.51-9.79,12.87Z" transform="translate(-202.28 -57)"/><path class="cls-4" d="M523,600.14c-.78.72-1.54,1.44-2.3,2.16C521.53,601.61,522.3,600.9,523,600.14Z" transform="translate(-202.28 -57)"/><text class="cls-11" transform="translate(202.92 1764.54)">Heart to Soul</text><path class="cls-10" d="M639.83,1646.78v-5c9.2-2.73,10.63-4.67,10.63-14.55q0-37.77,0-75.56v-5.33h-30v81.52c0,9.26,1.55,11.27,10.68,13.58v5.23H581.87c-.07-1.55-.15-3.26-.22-4.9,9.8-3.18,10.85-4.64,10.85-14.72v-13.86c-17.84,18.09-37.46,27.34-60.72,13.4-17.59-10.54-25.26-27.55-25.61-47,8.22,0,16.1.86,23.72-.2,10.67-1.49,17.7-9.23,17.26-17-.46-8.3-8.8-15.75-19.39-16.17-12.31-.49-24.65-.11-37.61-.11V1570c-10.75,0-20.93-.6-31,.23a43.52,43.52,0,0,0-17.87,5.17c-10.34,6-15.41,15.71-13.51,27.87,2,12.79,10.55,20.31,22.47,23.43,5.41,1.42,11.49.61,17.22.17,1.3-.09,3.44-2.83,3.42-4.33-.07-6.07-.83-12.13-1.34-18.23h26.36c2.4,23.45-12.43,49.7-32.05,56.5l-3.38-4.52,10.6-20.25c-9.55,1.11-17.87,2.83-26.2,2.86a47.7,47.7,0,0,1-35.34-15c-13.78-14.16-13.6-34.33.37-48.33,9.68-9.69,21.59-14.12,35.11-14.54,5.46-.16,10.92,0,16.64,0v-14.67H380.31v19.33c-1.82.13-3.25.32-4.67.33q-15.52,0-31.05,0c-1.33,0-2.67,0-4,.06-5.83.39-9.33,2.72-9.52,6.28-.21,3.81,3.9,7.35,9.61,7.56,7.84.28,15.74-.46,23.52.28A97.65,97.65,0,0,1,384,1584.5a9.39,9.39,0,0,1,6.9,9c0,4.79-3.36,7.76-7.43,9.12-5.64,1.88-11.59,2.81-17.34,4.38-3.5,1-7.19,1.87-10.2,3.76-1.88,1.18-3.9,4.32-3.61,6.24.34,2.21,2.84,4.61,5,5.85,2,1.14,4.81,1.06,7.28,1.15,4.29.16,8.6,0,13.14,0v5.86c-11.21-.14-22.54,1.55-33.55-2.09a27.5,27.5,0,0,1-7.81-4.34c-5.6-4.3-5.24-10.2,1-13.69,3.13-1.75,6.8-2.56,10.24-3.75,3.29-1.13,6.71-2,9.86-3.38,3.4-1.53,6.25-4.54,5.13-8.2-.85-2.75-3.8-6.44-6.24-6.79-6.24-.88-13.14-1.57-19,.2-19.64,5.93-26.4,28.19-14.38,45.49,7,10.14,16.92,15.35,29.21,15.64a166,166,0,0,0,18-.65c5.77-.48,11.51-1.46,18-2.33-1.84,3.71-3.47,7.2-5.31,10.57a3.18,3.18,0,0,1-2.35,1.41c-19.77-.22-39.92,2.34-58.82-5.45A75.42,75.42,0,0,1,301,1639.88c-19.74-17.35-14-46.28,10.56-55.71,1.64-.63,3.32-1.15,5.77-2-2.95-1.26-5.27-2-7.35-3.17-7.41-4.15-8-13.83-.48-17.77a40.92,40.92,0,0,1,15.68-4.08c8.62-.66,17.32-.18,26.4-.18v-10.88h-68.1v-10.71H700.89v10.37h-22c-.18,1.63-.4,2.74-.4,3.84q0,39.78,0,79.56c0,8,2.38,10.67,10.51,12.25v5.38Zm-105.76-59.22c.39,2.5.69,5.81,1.44,9,2.89,12.27,12.6,21.9,23.3,23.34a32,32,0,0,0,32-16.82,15.47,15.47,0,0,0,1.61-6.64c.13-15.49.08-31,.05-46.47a35,35,0,0,0-.39-3.79H559.8c3.32,1.94,6.12,3.31,8.62,5.1,8.1,5.79,9.26,14.69,2.39,21.87a29.13,29.13,0,0,1-10.92,7.57C551.83,1583.54,543.37,1585.18,534.07,1587.56Z" transform="translate(-202.28 -57)"/><path class="cls-10" d="M1127.87,1535.27c0,2.69,0,5,0,7.31,0,1-.17,1.93-.3,3.24h-22.4v5.1q0,38.52,0,77.06c0,9.14,1.85,11.49,10.63,13.63v5.12h-49.28c-.1-1.63-.19-3.22-.28-4.74,10.1-3.58,10.91-4.74,10.91-15.59v-80.18h-30v81c0,10,1.11,11.47,10.74,14.49v5.09h-49.34c-.09-1.74-.17-3.34-.25-4.85,10.94-4,11.58-5.21,10.62-19.82-1.37,1-2.48,1.79-3.53,2.63-18.8,15-49.54,11.48-64.28-7.45-15.47-19.88-6.29-48.69,18.65-57.23,17.52-6,34.1-4.23,49,8.8v-22.6H923v81.19c0,9.45,1.54,11.51,10.72,14.12v5.17H884.42c-.12-1.59-.25-3.17-.39-5,1.86-.59,4-.67,5.13-1.78,2.23-2.15,5.36-4.77,5.55-7.38.67-9.28.26-18.64.26-27-6.59.24-13,1.4-19.16.49-11.3-1.7-11.38-2.47-8.59-14.28a70.14,70.14,0,0,0,8.37,2.47,35.89,35.89,0,0,0,9.41.61c8.51-.78,10-2.6,10-11.11q0-18-.05-36a9.47,9.47,0,0,0-.26-1.36H831.26c4,1.79,8.07,3.34,11.89,5.36,15.09,8,22.09,21.45,18.76,36.12-2.55,11.27-10.45,17.93-20.48,22.28-5.12,2.23-10.62,3.6-15.94,5.35,11.32,16.35,22.88,20.37,35.37,11.94l5.68,3.68c-11.8,14.78-32.7,23.77-51.15,6.41-2.79-2.63-5.51-5.36-8-8.24-6.74-7.71-14-14.7-24.1-19,.64-2.29,1.24-4.46,1.78-6.38,6.25.73,12.12,1.91,18,2,17.58.27,29.89-9.64,31.51-24.87a31.09,31.09,0,0,0-25.92-33.92c-8.78-1.53-17.9-1.18-27.29-1.7v-10.17Zm-108.69,60.31c0-4.67.13-9.34-.08-14a7.21,7.21,0,0,0-1.6-4.39c-12.32-13-38.26-7.52-44.27,9.44-3.17,8.94-2.22,17.51,4.33,24.79,7.27,8.07,16.56,11.18,27.12,9.07,11.43-2.3,14.5-6.48,14.5-17.89Z" transform="translate(-202.28 -57)"/><path class="cls-10" d="M1368.64,1604.79a2.64,2.64,0,0,0,1.25.24c8.31.24,17.44,1.78,25.61-.27,21.31-3.91,29.56-29.85,15.32-46.25-6.54-7.53-14.94-11.94-24.81-12.37-11.83-.51-23.69-.12-36.37-.12v5.38q0,38,0,76.07c0,9.42,1.52,11.46,10.73,14.13v5.15h-49.29c-.11-1.62-.23-3.21-.35-5,1.87-.61,4-.69,5.15-1.8,2.22-2.16,5.32-4.79,5.51-7.41.66-9.28.26-18.64.26-28.61-7.83,3.36-15.35,4.17-23.08,1.31-7.16-2.65-7.21-2.53-5.55-9.85.26-1.13.48-2.27.83-4,7.8,3.61,15.3,4.93,23.2,2.2,3.18-1.11,4.79-2.59,4.71-6.4-.27-13.49-.1-27-.1-40.86h-63.79c4.06,1.81,8.16,3.37,12,5.41,15.08,8,22.06,21.49,18.7,36.16-2.58,11.25-10.5,17.9-20.54,22.24-5.11,2.21-10.58,3.6-15.89,5.35,11.87,16.52,22.74,20.27,35.46,11.93l5.67,3.72c-13.89,16.53-34.66,23.31-53.13,4.6-3.74-3.8-7.17-7.91-11-11.68a83.39,83.39,0,0,0-9-7.89c-3-2.26-6.46-4-10.14-6.26.56-2,1.17-4.14,1.49-5.25,9,.28,17.52,1.64,25.72.55,13.21-1.74,21.36-10.12,23.62-21.78a30,30,0,0,0-13.32-31.19,36.69,36.69,0,0,0-20.72-6.28H1208v-10.74h274.77v10.56h-69.16c5.93,3,11.46,5.22,16.39,8.36,12.57,8,17.91,20.51,14.85,33.8-2.17,9.43-8.23,16-16.61,20.17-6.3,3.11-13.11,5.2-19.6,7.7,16.3,19.31,24,19.28,35.27,11.61l5.66,3.76c-9.45,12.15-24.74,18.34-36.85,14.79-9-2.64-15.43-9-21.58-15.66a120.7,120.7,0,0,0-11.21-11.4c-4-3.38-8.71-6-13.55-9.28" transform="translate(-202.28 -57)"/><path class="cls-10" d="M1508.18,1597.4c.36,9,5.28,14.57,12,18.89,12.75,8.13,31.59,7.71,44-1,7.13-5,11.14-11.41,10.93-20.57-.37-15.67-.13-31.36-.15-47a11.14,11.14,0,0,0-.31-1.57h-7.89v-10.77h116.6v10.48H1661V1551q0,38.54,0,77.06c0,9.09,1.82,11.4,10.65,13.63v5.09h-49.3c-.09-1.68-.18-3.27-.26-4.79,9.85-3.32,10.89-4.78,10.89-15.1,0-26.68,0-53.37,0-80.47h-30v80.37c0,10.44.92,11.73,10.69,15v5h-49.29v-5c10.09-3.37,10.62-4.12,10.62-15v-10.4c-19.24,19.8-41.5,26.51-66.38,16.22-18.37-7.61-27.54-23.29-28.64-43.8,15.27,3,30.09,4.18,44.9-3.92-5.94-1.46-11.13-2.26-16-4-12.88-4.68-20.06-13.8-20.21-24.65-.09-7,2.85-12.54,8.2-16.88,15.13-12.29,40.48-12.58,56-.67,9.54,7.31,12.07,19,5.93,31-8.08,15.87-22.23,23.25-39.09,26.29C1516.09,1596.68,1512.27,1596.92,1508.18,1597.4Zm26.63-41.4c-1.29-4.26-2.19-9.39-4.4-13.87s-6.78-4.24-9.76-.43c-5.5,7-5,24.69.85,31.24,3.34,3.73,8.52,2.93,10-1.89C1532.94,1566.5,1533.6,1561.71,1534.81,1556Z" transform="translate(-202.28 -57)"/><path class="cls-10" d="M923.76,1525v5.58c-9.83,0-19.61.54-29.27-.28-3.51-.31-7.13-3.45-10-6-8.69-7.75-17.4-15.55-25.43-24-6.06-6.34-12.94-9-21.41-8.37-2,.13-4,0-6.34,0v-7c12.44,0,24.9-.33,37.31.24,2.83.13,5.78,3.07,8.21,5.23,10,8.85,19.72,17.9,29.55,26.88C911.19,1521.7,916.1,1526,923.76,1525Z" transform="translate(-202.28 -57)"/><path class="cls-10" d="M1346.51,1501a12.18,12.18,0,0,1-12.21,11.88c-6.37-.18-11.81-6.06-11.61-12.54a11.91,11.91,0,0,1,12-11.47A11.69,11.69,0,0,1,1346.51,1501Z" transform="translate(-202.28 -57)"/><path class="cls-10" d="M1450.22,1591.42c9.19,4.49,18.14,5.08,27.08.23,1.66,11-.69,13.95-11.29,14.32a27.61,27.61,0,0,1-7.43-.63C1445.46,1602.14,1447.57,1603.43,1450.22,1591.42Z" transform="translate(-202.28 -57)"/></svg>